<svg width="11" height="13" viewBox="0 0 11 13" fill="none" xmlns="http://www.w3.org/2000/svg">
<path d="M8.08472 1.64935C7.54475 0.640599 6.58564 0.0243139 5.51909 0.000761867C5.47356 -0.000253956 5.42773 -0.000253956 5.38218 0.000761867C4.31565 0.0243139 3.35654 0.640599 2.81654 1.64935C2.2646 2.68045 2.24949 3.919 2.77614 4.96249L4.98246 9.33405C4.98345 9.33599 4.98444 9.33792 4.98547 9.33984C5.08254 9.52248 5.25644 9.63152 5.45067 9.63152C5.64488 9.63152 5.81878 9.52247 5.91583 9.33984C5.91686 9.33792 5.91785 9.33599 5.91884 9.33405L8.12516 4.96249C8.65178 3.919 8.63667 2.68045 8.08472 1.64935V1.64935ZM5.45063 4.36429C4.76072 4.36429 4.19944 3.75669 4.19944 3.00986C4.19944 2.26302 4.76072 1.65542 5.45063 1.65542C6.14055 1.65542 6.70183 2.26302 6.70183 3.00986C6.70183 3.75669 6.14056 4.36429 5.45063 4.36429Z" fill="black"/>
<ellipse cx="5.5" cy="11.9568" rx="5.5" ry="0.478261" fill="black"/>
</svg>
