<svg width="36" height="36" viewBox="0 0 36 36" fill="none" xmlns="http://www.w3.org/2000/svg">
<rect width="36" height="36" rx="9.47368" fill="#1A1A1A"/>
<path d="M11 14L11 8" stroke="#EB5757" stroke-width="1.71429" stroke-linecap="round" stroke-linejoin="round"/>
<path fill-rule="evenodd" clip-rule="evenodd" d="M9.16795 15.1125C9.12653 15.3081 9.09244 15.5065 9.066 15.7074C9 16.2087 9 16.8058 9 18C9 19.1942 9 19.7913 9.066 20.2926C9.52173 23.7543 12.2457 26.4783 15.7074 26.934C16.2087 27 16.8058 27 18 27H22.5C24.3057 27 25.2086 27 25.8572 26.5666C26.138 26.379 26.379 26.138 26.5666 25.8572C27 25.2086 27 24.3057 27 22.5V18C27 16.8058 27 16.2087 26.934 15.7074C26.4783 12.2457 23.7543 9.52173 20.2926 9.066C19.7913 9 19.1942 9 18 9C16.8058 9 16.2087 9 15.7074 9.066C15.5064 9.09246 15.3078 9.12657 15.1121 9.16804C15.7299 9.54402 16.1426 10.2238 16.1426 10.9999C16.1426 12.1834 15.1832 13.1428 13.9997 13.1428H13.1426V13.9999C13.1426 15.1834 12.1832 16.1428 10.9997 16.1428C10.2237 16.1428 9.54396 15.7302 9.16795 15.1125ZM15.0003 16.1428C14.5269 16.1428 14.1431 16.5266 14.1431 17C14.1431 17.4734 14.5269 17.8571 15.0003 17.8571H21.0003C21.4737 17.8571 21.8574 17.4734 21.8574 17C21.8574 16.5266 21.4737 16.1428 21.0003 16.1428H15.0003ZM18.0003 20.1428C17.5269 20.1428 17.1431 20.5266 17.1431 20.9999C17.1431 21.4733 17.5269 21.8571 18.0003 21.8571H21.0003C21.4737 21.8571 21.8574 21.4733 21.8574 20.9999C21.8574 20.5266 21.4737 20.1428 21.0003 20.1428H18.0003Z" fill="#EB5757"/>
<path d="M8 11H14" stroke="#EB5757" stroke-width="1.71429" stroke-linecap="round" stroke-linejoin="round"/>
</svg>
