<svg width="22" height="22" viewBox="0 0 22 22" fill="none" xmlns="http://www.w3.org/2000/svg">
<rect x="0.240866" y="0.240866" width="21.518" height="21.5173" rx="7.94859" stroke="#5B86E5" stroke-width="0.481733"/>
<path d="M15.0941 10.9995C15.0941 11.1806 15.0246 11.3556 14.8948 11.4823C14.7681 11.612 14.593 11.6845 14.4119 11.6845H11.6832V14.4121C11.6832 14.5932 11.6108 14.7682 11.481 14.8949C11.3542 15.0216 11.1821 15.0941 11.001 15.0941C10.8199 15.0941 10.6448 15.0216 10.5181 14.8949C10.3883 14.7682 10.3158 14.5932 10.3158 14.4121V11.6845H7.58714C7.40603 11.6845 7.23096 11.612 7.10419 11.4823C6.97741 11.3556 6.90497 11.1806 6.90497 10.9995C6.90497 10.8185 6.97741 10.6465 7.10419 10.5167C7.23096 10.39 7.40603 10.3176 7.58714 10.3176H10.3158V7.58991C10.3158 7.40886 10.3883 7.23386 10.5181 7.10713C10.6448 6.97738 10.8199 6.90497 11.001 6.90497C11.1821 6.90497 11.3542 6.97738 11.481 7.10713C11.6108 7.23386 11.6832 7.40886 11.6832 7.58991V10.3176H14.4119C14.593 10.3176 14.7681 10.39 14.8948 10.5167C15.0246 10.6465 15.0941 10.8185 15.0941 10.9995Z" fill="#5B86E5"/>
</svg>
