<svg width="44" height="44" viewBox="0 0 44 44" fill="none" xmlns="http://www.w3.org/2000/svg">
<path d="M20.1663 34.8341L19.6846 33.6297C18.8493 31.5415 19.2014 29.1654 20.6064 27.4091V27.4091C21.3207 26.5162 22.6787 26.5162 23.393 27.4091V27.4091C24.798 29.1654 25.1501 31.5415 24.3148 33.6297L23.833 34.8341" stroke="#EBA945" stroke-width="3.66667"/>
<path d="M26.5827 18.3335C26.5827 16.8824 28.5128 16.4977 29.0248 17.8556C30.2635 21.14 31.166 24.0782 31.166 25.6667C31.166 30.7293 27.062 34.8334 21.9993 34.8334C16.9367 34.8334 12.8327 30.7293 12.8327 25.6667C12.8327 23.9601 13.8744 20.6956 15.2555 17.1175C17.0446 12.4825 17.9392 10.1649 19.0434 10.0401C19.3968 10.0002 19.7822 10.072 20.0975 10.2365C21.0827 10.7506 21.0827 13.2782 21.0827 18.3335C21.0827 19.8523 22.3139 21.0835 23.8327 21.0835C25.3515 21.0835 26.5827 19.8523 26.5827 18.3335Z" stroke="#EBA945" stroke-width="3.66667"/>
<path d="M20 34.5009L19 32.5009V30.5009C19 30.0017 20 28.5 20 28C20 27.5 21.5 27.5009 22 27.0009C22.4 26.6009 23.1667 27.1675 23.5 27.5009C23.8333 27.8342 24.5 28.6009 24.5 29.0009C24.5 29.5009 24.5 29.5009 25 30.5009C25.5 31.5009 25 32.5009 25 33.5009C25 34.3009 23.6667 34.5009 23 34.5009H20Z" fill="#EBA945"/>
</svg>
