<svg width="28" height="28" viewBox="0 0 28 28" fill="none" xmlns="http://www.w3.org/2000/svg">
<rect x="4.66699" y="3.5" width="18.6667" height="21" rx="2" fill="#F2994A"/>
<path d="M4.66699 22.1667C4.66699 21.8571 4.66699 21.7023 4.6841 21.5723C4.80226 20.6749 5.50847 19.9686 6.40594 19.8505C6.53591 19.8334 6.69071 19.8334 7.00033 19.8334H19.8337C21.2381 19.8334 21.9403 19.8334 22.4448 19.4963C22.6632 19.3504 22.8507 19.1629 22.9966 18.9445C23.3337 18.4401 23.3337 17.7378 23.3337 16.3334V20.5C23.3337 22.3857 23.3337 23.3285 22.7479 23.9143C22.1621 24.5 21.2193 24.5 19.3337 24.5H7.00032C6.69071 24.5 6.53591 24.5 6.40594 24.4829C5.50847 24.3648 4.80226 23.6586 4.6841 22.7611C4.66699 22.6311 4.66699 22.4763 4.66699 22.1667Z" fill="white"/>
<path d="M11.083 12.25L13.3103 14.4772C13.3689 14.5358 13.4638 14.5358 13.5224 14.4772L18.083 9.91663" stroke="white" stroke-width="1.2"/>
</svg>
