<svg width="23" height="26" viewBox="0 0 23 26" fill="none" xmlns="http://www.w3.org/2000/svg">
<path d="M16.904 3.44864C15.7749 1.33944 13.7695 0.0508383 11.5394 0.001593C11.4442 -0.000530999 11.3484 -0.000530999 11.2532 0.001593C9.02314 0.0508383 7.01773 1.33944 5.88865 3.44864C4.73457 5.60458 4.703 8.19428 5.80417 10.3761L10.4174 19.5167C10.4195 19.5207 10.4215 19.5248 10.4237 19.5288C10.6267 19.9107 10.9903 20.1387 11.3964 20.1387C11.8025 20.1387 12.1661 19.9106 12.369 19.5288C12.3711 19.5248 12.3732 19.5207 12.3753 19.5167L16.9885 10.3761C18.0896 8.19428 18.058 5.60458 16.904 3.44864V3.44864ZM11.3963 9.12534C9.95376 9.12534 8.78017 7.85492 8.78017 6.29334C8.78017 4.73177 9.95376 3.46135 11.3963 3.46135C12.8388 3.46135 14.0124 4.73177 14.0124 6.29334C14.0124 7.85492 12.8389 9.12534 11.3963 9.12534Z" fill="#040404"/>
<ellipse cx="11.5" cy="24.9998" rx="11.5" ry="1" fill="#040404"/>
</svg>
