<svg width="21" height="17" viewBox="0 0 21 17" fill="none" xmlns="http://www.w3.org/2000/svg">
<path fill-rule="evenodd" clip-rule="evenodd" d="M4.33468 4.33045C4.36745 4.18988 4.44682 4.06453 4.55988 3.9748C4.67294 3.88507 4.81304 3.83624 4.95738 3.83626H10.3865C10.5308 3.83624 10.6709 3.88507 10.784 3.9748C10.8971 4.06453 10.9764 4.18988 11.0092 4.33045L11.3416 5.75422H4.00223L4.33468 4.33045V4.33045ZM1.27872 7.03286H1.91805C1.51655 7.56734 1.27872 8.23095 1.27872 8.95083V9.59015C1.27872 10.4251 1.81256 11.136 2.55737 11.3994V12.7868C2.55737 12.9563 2.62472 13.1189 2.74462 13.2388C2.86452 13.3587 3.02713 13.4261 3.19669 13.4261H3.83601C4.00557 13.4261 4.16818 13.3587 4.28808 13.2388C4.40797 13.1189 4.47533 12.9563 4.47533 12.7868V11.5081H10.8685V12.7868C10.8685 12.9563 10.9359 13.1189 11.0558 13.2388C11.1757 13.3587 11.3383 13.4261 11.5079 13.4261H12.1472C12.3167 13.4261 12.4794 13.3587 12.5993 13.2388C12.7192 13.1189 12.7865 12.9563 12.7865 12.7868V11.3994C13.1606 11.2671 13.4844 11.022 13.7134 10.698C13.9424 10.374 14.0653 9.98692 14.0652 9.59015V8.95083C14.0662 8.25901 13.8417 7.58571 13.4258 7.03286H14.0652C14.2347 7.03286 14.3973 6.96551 14.5172 6.84561C14.6371 6.72572 14.7045 6.5631 14.7045 6.39354C14.7045 6.22398 14.6371 6.06137 14.5172 5.94147C14.3973 5.82158 14.2347 5.75422 14.0652 5.75422H13.4258C13.2669 5.75428 13.1138 5.81351 12.9962 5.92035C12.8786 6.0272 12.805 6.17401 12.7897 6.33217L12.7699 6.24842L12.2546 4.03956C12.1562 3.61796 11.918 3.24206 11.5788 2.973C11.2397 2.70393 10.8194 2.55754 10.3865 2.55761H4.95738C4.52444 2.55754 4.10422 2.70393 3.76504 2.973C3.42587 3.24206 3.1877 3.61796 3.08928 4.03956L2.57399 6.24842L2.55481 6.33217C2.53955 6.1739 2.46585 6.027 2.34812 5.92014C2.23038 5.81328 2.07705 5.75412 1.91805 5.75422H1.27872C1.10917 5.75422 0.946552 5.82158 0.826656 5.94147C0.70676 6.06137 0.639404 6.22398 0.639404 6.39354C0.639404 6.5631 0.70676 6.72572 0.826656 6.84561C0.946552 6.96551 1.10917 7.03286 1.27872 7.03286V7.03286ZM4.47533 7.03286C3.96666 7.03286 3.47881 7.23493 3.11913 7.59462C2.75944 7.95431 2.55737 8.44215 2.55737 8.95083V9.59015C2.55737 9.75971 2.62472 9.92232 2.74462 10.0422C2.86452 10.1621 3.02713 10.2295 3.19669 10.2295H12.1472C12.3167 10.2295 12.4794 10.1621 12.5993 10.0422C12.7192 9.92232 12.7865 9.75971 12.7865 9.59015V8.95083C12.7865 8.44215 12.5844 7.95431 12.2248 7.59462C11.8651 7.23493 11.3772 7.03286 10.8685 7.03286H4.47533ZM3.83601 8.63117C3.83601 8.37683 3.93705 8.13291 4.11689 7.95307C4.29673 7.77322 4.54065 7.67219 4.79499 7.67219C5.04933 7.67219 5.29325 7.77322 5.4731 7.95307C5.65294 8.13291 5.75397 8.37683 5.75397 8.63117C5.75397 8.88551 5.65294 9.12943 5.4731 9.30927C5.29325 9.48912 5.04933 9.59015 4.79499 9.59015C4.54065 9.59015 4.29673 9.48912 4.11689 9.30927C3.93705 9.12943 3.83601 8.88551 3.83601 8.63117ZM10.5489 7.67219C10.2945 7.67219 10.0506 7.77322 9.87078 7.95307C9.69094 8.13291 9.5899 8.37683 9.5899 8.63117C9.5899 8.88551 9.69094 9.12943 9.87078 9.30927C10.0506 9.48912 10.2945 9.59015 10.5489 9.59015C10.8032 9.59015 11.0471 9.48912 11.227 9.30927C11.4068 9.12943 11.5079 8.88551 11.5079 8.63117C11.5079 8.37683 11.4068 8.13291 11.227 7.95307C11.0471 7.77322 10.8032 7.67219 10.5489 7.67219Z" fill="#202020"/>
<path d="M3.40981 13.2115L5.11459 10.2281L5.96698 8.52335V6.39238C6.2511 6.10825 6.9046 5.54 7.24556 5.54C7.67175 5.54 8.95033 5.1138 9.37652 5.1138C9.80272 5.1138 11.5075 4.68761 12.3599 4.68761H15.3432C15.7694 4.68761 17.4742 5.1138 17.4742 5.54C17.4742 5.96619 17.9004 6.81858 17.9004 7.24477C17.9004 7.67096 18.7528 9.37574 18.7528 9.80193C18.7528 10.2281 19.6052 11.0805 19.6052 11.5067C19.6052 11.9329 20.4576 13.6377 20.8837 14.0639C21.3099 14.4901 20.4576 15.7686 20.0314 16.1948C19.6904 16.5358 18.1845 16.621 17.4742 16.621H13.2123H8.52414H4.68839L3.40981 15.3424V13.2115Z" fill="#202020"/>
</svg>
