<svg width="26" height="26" viewBox="0 0 26 26" fill="none" xmlns="http://www.w3.org/2000/svg">
<path fill-rule="evenodd" clip-rule="evenodd" d="M20.6816 5.06291C20.8764 5.1151 21.0424 5.24252 21.1433 5.41715C21.2441 5.59178 21.2714 5.79931 21.2192 5.99409L21.0195 6.73951C20.8386 7.41464 20.5266 8.04755 20.1011 8.60208C19.6757 9.15661 19.1452 9.62192 18.5399 9.97142L15.9506 11.4658L16.5874 17.2849C16.6356 17.725 16.5547 18.1696 16.3545 18.5645C16.1544 18.9594 15.8436 19.2875 15.4602 19.5088L13.9918 20.3566C13.8901 20.4154 13.7763 20.4497 13.6592 20.4571C13.542 20.4645 13.4248 20.4446 13.3166 20.3991C13.2084 20.3535 13.1122 20.2836 13.0356 20.1947C12.959 20.1057 12.904 20.0003 12.8749 19.8866L11.3769 14.0327L8.96094 15.221L8.75263 16.9472C8.70654 17.3297 8.54127 17.688 8.28024 17.9713C8.01921 18.2546 7.67566 18.4486 7.29825 18.5258C6.92084 18.603 6.52871 18.5595 6.17741 18.4014C5.82611 18.2434 5.53346 17.9787 5.34091 17.6451L2.65298 12.9892C2.46031 12.6556 2.3775 12.2698 2.41626 11.8866C2.45503 11.5033 2.61341 11.1419 2.86897 10.8536C3.12453 10.5654 3.46431 10.3648 3.84017 10.2804C4.21604 10.196 4.60893 10.232 4.96319 10.3833L6.56224 11.066L8.79921 9.56773L4.47891 5.34344C4.39483 5.2614 4.3309 5.16099 4.29215 5.05008C4.25339 4.93917 4.24086 4.8208 4.25555 4.70423C4.27023 4.58767 4.31173 4.4761 4.37678 4.37827C4.44183 4.28044 4.52866 4.19902 4.63047 4.14039L6.0985 3.29401C6.48186 3.07259 6.92136 2.96752 7.3634 2.99162C7.80544 3.01572 8.23091 3.16795 8.58792 3.42973L13.308 6.89057L15.8981 5.39635C16.5033 5.04661 17.1715 4.81953 17.8645 4.72808C18.5575 4.63663 19.2617 4.68261 19.937 4.86338L20.6816 5.06291ZM19.5537 6.33494L19.5427 6.33199C18.569 6.07112 17.5316 6.20765 16.6586 6.71157L13.6389 8.4551C13.511 8.52895 13.3645 8.56399 13.2171 8.55595C13.0697 8.5479 12.9278 8.49712 12.8088 8.4098L7.68889 4.65527C7.56987 4.56795 7.42801 4.51716 7.28061 4.50912C7.13321 4.50107 6.98666 4.53611 6.85884 4.60996L6.25825 4.95673L10.5312 9.13449C10.612 9.21355 10.6742 9.30964 10.7131 9.41576C10.7521 9.52189 10.767 9.63537 10.7565 9.74794C10.7461 9.86052 10.7107 9.96936 10.653 10.0665C10.5952 10.1637 10.5165 10.2468 10.4225 10.3097L7.06511 12.5586C6.96006 12.629 6.83909 12.6722 6.71317 12.684C6.58726 12.6959 6.46036 12.6762 6.34398 12.6267L4.36647 11.782C4.30567 11.7558 4.23816 11.7494 4.17353 11.7638C4.10891 11.7782 4.05046 11.8126 4.00651 11.8621C3.96256 11.9116 3.93533 11.9737 3.92871 12.0396C3.92209 12.1054 3.93641 12.1717 3.96963 12.229L6.65756 16.8849C6.69054 16.9423 6.74078 16.9878 6.80114 17.015C6.86149 17.0422 6.92889 17.0497 6.99374 17.0364C7.0586 17.0231 7.1176 16.9897 7.16237 16.9409C7.20713 16.8921 7.23538 16.8305 7.24308 16.7647L7.50033 14.6297C7.51553 14.504 7.56188 14.384 7.63518 14.2808C7.70848 14.1775 7.80641 14.0942 7.92006 14.0384L11.5463 12.2551C11.6478 12.2053 11.7591 12.1787 11.8721 12.1773C11.9852 12.1759 12.0972 12.1997 12.1998 12.2471C12.3025 12.2944 12.3933 12.3641 12.4657 12.4509C12.5381 12.5378 12.5901 12.6398 12.6181 12.7493L14.0997 18.5382L14.7001 18.1921C14.8279 18.1183 14.9315 18.0089 14.9983 17.8773C15.065 17.7456 15.092 17.5973 15.0759 17.4506L14.3847 11.1383C14.3686 10.9916 14.3955 10.8433 14.4623 10.7117C14.529 10.58 14.6326 10.4706 14.7605 10.3968L17.78 8.654C18.6529 8.14986 19.2898 7.31965 19.5507 6.34596L19.5537 6.33494Z" fill="#292929"/>
<path d="M25.2393 15.9667L13.0744 25.0904" stroke="#292929" stroke-width="1.4879" stroke-linecap="round"/>
</svg>
