<svg width="43" height="42" viewBox="0 0 43 42" fill="none" xmlns="http://www.w3.org/2000/svg">
<path fill-rule="evenodd" clip-rule="evenodd" d="M11.8654 11.8529C11.9551 11.4681 12.1723 11.125 12.4818 10.8794C12.7913 10.6338 13.1748 10.5001 13.5699 10.5001H28.4315C28.8266 10.5001 29.2101 10.6338 29.5196 10.8794C29.8291 11.125 30.0464 11.4681 30.1361 11.8529L31.0461 15.7503H10.9553L11.8654 11.8529V11.8529ZM3.50007 19.2505H5.25013C4.15109 20.7135 3.50007 22.5301 3.50007 24.5007V26.2507C3.50007 28.5363 4.96137 30.4824 7.0002 31.2034V35.001C7.0002 35.4652 7.18458 35.9103 7.51278 36.2385C7.84098 36.5667 8.28611 36.7511 8.75026 36.7511H10.5003C10.9645 36.7511 11.4096 36.5667 11.7378 36.2385C12.066 35.9103 12.2504 35.4652 12.2504 35.001V31.5009H29.751V35.001C29.751 35.4652 29.9354 35.9103 30.2636 36.2385C30.5918 36.5667 31.037 36.7511 31.5011 36.7511H33.2512C33.7153 36.7511 34.1605 36.5667 34.4887 36.2385C34.8169 35.9103 35.0012 35.4652 35.0012 35.001V31.2034C36.0252 30.8411 36.9116 30.1703 37.5384 29.2833C38.1653 28.3963 38.5017 27.3368 38.5014 26.2507V24.5007C38.5042 22.6069 37.8898 20.7638 36.7513 19.2505H38.5014C38.9655 19.2505 39.4107 19.0661 39.7389 18.7379C40.0671 18.4097 40.2514 17.9645 40.2514 17.5004C40.2514 17.0362 40.0671 16.5911 39.7389 16.2629C39.4107 15.9347 38.9655 15.7503 38.5014 15.7503H36.7513C36.3164 15.7505 35.8971 15.9126 35.5751 16.2051C35.2532 16.4976 35.0517 16.8994 35.01 17.3324L34.9557 17.1031L33.5452 11.0567C33.2758 9.90257 32.6238 8.87359 31.6954 8.13706C30.7669 7.40053 29.6166 6.99978 28.4315 7H13.5699C12.3848 6.99978 11.2345 7.40053 10.3061 8.13706C9.37761 8.87359 8.72566 9.90257 8.45625 11.0567L7.0457 17.1031L6.9932 17.3324C6.95141 16.8991 6.74969 16.497 6.4274 16.2045C6.10511 15.912 5.68538 15.7501 5.25013 15.7503H3.50007C3.03592 15.7503 2.59078 15.9347 2.26258 16.2629C1.93438 16.5911 1.75 17.0362 1.75 17.5004C1.75 17.9645 1.93438 18.4097 2.26258 18.7379C2.59078 19.0661 3.03592 19.2505 3.50007 19.2505V19.2505ZM12.2504 19.2505C10.858 19.2505 9.52255 19.8036 8.53794 20.7882C7.55334 21.7728 7.0002 23.1082 7.0002 24.5007V26.2507C7.0002 26.7149 7.18458 27.16 7.51278 27.4882C7.84098 27.8164 8.28611 28.0008 8.75026 28.0008H33.2512C33.7153 28.0008 34.1605 27.8164 34.4887 27.4882C34.8169 27.16 35.0012 26.7149 35.0012 26.2507V24.5007C35.0012 23.1082 34.4481 21.7728 33.4635 20.7882C32.4789 19.8036 31.1435 19.2505 29.751 19.2505H12.2504ZM10.5003 23.6256C10.5003 22.9294 10.7769 22.2617 11.2692 21.7694C11.7615 21.2771 12.4292 21.0005 13.1254 21.0005C13.8216 21.0005 14.4893 21.2771 14.9816 21.7694C15.4739 22.2617 15.7505 22.9294 15.7505 23.6256C15.7505 24.3218 15.4739 24.9895 14.9816 25.4818C14.4893 25.9741 13.8216 26.2507 13.1254 26.2507C12.4292 26.2507 11.7615 25.9741 11.2692 25.4818C10.7769 24.9895 10.5003 24.3218 10.5003 23.6256ZM28.876 21.0005C28.1798 21.0005 27.5121 21.2771 27.0198 21.7694C26.5275 22.2617 26.2509 22.9294 26.2509 23.6256C26.2509 24.3218 26.5275 24.9895 27.0198 25.4818C27.5121 25.9741 28.1798 26.2507 28.876 26.2507C29.5722 26.2507 30.2399 25.9741 30.7322 25.4818C31.2245 24.9895 31.5011 24.3218 31.5011 23.6256C31.5011 22.9294 31.2245 22.2617 30.7322 21.7694C30.2399 21.2771 29.5722 21.0005 28.876 21.0005Z" fill="#1C1C1C"/>
<path d="M6 23.2506L9.00011 18.0004L10.5002 15.0003V11.2501C11.0002 10.7501 12.1502 9.75006 12.7503 9.75006C13.5003 9.75006 15.7504 9.00003 16.5004 9.00003C17.2504 9.00003 20.2505 8.25 21.7506 8.25H27.0008C27.7508 8.25 30.7509 9.00003 30.7509 9.75006C30.7509 10.5001 31.5009 12.0001 31.5009 12.7502C31.5009 13.5002 33.001 16.5003 33.001 17.2503C33.001 18.0004 34.5011 19.5004 34.5011 20.2504C34.5011 21.0005 36.0011 24.0006 36.7511 24.7506C37.5012 25.5006 36.0011 27.7507 35.2511 28.5008C34.6511 29.1008 32.001 29.2508 30.7509 29.2508H23.2506H15.0003H8.25008L6 27.0007V23.2506Z" fill="#1C1C1C"/>
</svg>
