<svg width="31" height="31" viewBox="0 0 31 31" fill="none" xmlns="http://www.w3.org/2000/svg">
<path fill-rule="evenodd" clip-rule="evenodd" d="M15.5 27.125C21.9203 27.125 27.125 21.9203 27.125 15.5C27.125 9.07969 21.9203 3.875 15.5 3.875C9.07969 3.875 3.875 9.07969 3.875 15.5C3.875 21.9203 9.07969 27.125 15.5 27.125ZM21.6588 12.4519C22.1155 11.9039 22.0415 11.0894 21.4934 10.6327C20.9454 10.176 20.1309 10.2501 19.6742 10.7981L15.0269 16.3749C14.579 16.9123 14.3273 17.2099 14.1263 17.3927L14.1186 17.3996L14.1103 17.3934C13.8936 17.2295 13.6159 16.956 13.1213 16.4614L11.2465 14.5867C10.7421 14.0822 9.92428 14.0822 9.41985 14.5867C8.91542 15.0911 8.91542 15.9089 9.41985 16.4133L11.2946 18.2881L11.3473 18.3408C11.769 18.7627 12.1747 19.1685 12.5522 19.454C12.975 19.7737 13.5288 20.0744 14.2385 20.0422C14.9481 20.01 15.4724 19.6604 15.8645 19.3037C16.2146 18.9853 16.5819 18.5444 16.9637 18.086L17.0115 18.0287L21.6588 12.4519Z" fill="#219653"/>
</svg>
