<svg width="29" height="29" viewBox="0 0 29 29" fill="none" xmlns="http://www.w3.org/2000/svg">
<path fill-rule="evenodd" clip-rule="evenodd" d="M8.19322 8.18263C8.25515 7.91694 8.40516 7.68002 8.61885 7.51043C8.83255 7.34083 9.09734 7.24854 9.37015 7.24857H19.6315C19.9043 7.24854 20.1691 7.34083 20.3828 7.51043C20.5965 7.68002 20.7465 7.91694 20.8084 8.18263L21.4368 10.8736H7.56487L8.19322 8.18263V8.18263ZM2.4173 13.2903H3.62565C2.8668 14.3005 2.4173 15.5548 2.4173 16.9154V18.1237C2.4173 19.7018 3.42627 21.0455 4.834 21.5434V24.1655C4.834 24.486 4.96131 24.7933 5.18792 25.0199C5.41453 25.2465 5.72188 25.3739 6.04235 25.3739H7.2507C7.57118 25.3739 7.87853 25.2465 8.10514 25.0199C8.33175 24.7933 8.45905 24.486 8.45905 24.1655V21.7488H20.5426V24.1655C20.5426 24.486 20.6699 24.7933 20.8965 25.0199C21.1231 25.2465 21.4304 25.3739 21.7509 25.3739H22.9593C23.2798 25.3739 23.5871 25.2465 23.8137 25.0199C24.0403 24.7933 24.1676 24.486 24.1676 24.1655V21.5434C24.8746 21.2932 25.4866 20.8301 25.9194 20.2176C26.3523 19.6052 26.5845 18.8737 26.5843 18.1237V16.9154C26.5863 15.6078 26.1621 14.3352 25.376 13.2903H26.5843C26.9048 13.2903 27.2122 13.163 27.4388 12.9364C27.6654 12.7098 27.7927 12.4025 27.7927 12.082C27.7927 11.7615 27.6654 11.4542 27.4388 11.2275C27.2122 11.0009 26.9048 10.8736 26.5843 10.8736H25.376C25.0757 10.8737 24.7862 10.9857 24.5639 11.1876C24.3416 11.3896 24.2025 11.6671 24.1737 11.966L24.1362 11.8077L23.1623 7.63283C22.9763 6.83598 22.5261 6.12551 21.8851 5.61696C21.244 5.10842 20.4497 4.83172 19.6315 4.83187H9.37015C8.55188 4.83172 7.75763 5.10842 7.11657 5.61696C6.47551 6.12551 6.02537 6.83598 5.83935 7.63283L4.86542 11.8077L4.82917 11.966C4.80032 11.6668 4.66103 11.3892 4.4385 11.1872C4.21598 10.9852 3.92617 10.8734 3.62565 10.8736H2.4173C2.09682 10.8736 1.78947 11.0009 1.56286 11.2275C1.33625 11.4542 1.20894 11.7615 1.20894 12.082C1.20894 12.4025 1.33625 12.7098 1.56286 12.9364C1.78947 13.163 2.09682 13.2903 2.4173 13.2903V13.2903ZM8.45905 13.2903C7.49763 13.2903 6.57558 13.6723 5.89575 14.3521C5.21592 15.0319 4.834 15.954 4.834 16.9154V18.1237C4.834 18.4442 4.96131 18.7516 5.18792 18.9782C5.41453 19.2048 5.72188 19.3321 6.04235 19.3321H22.9593C23.2798 19.3321 23.5871 19.2048 23.8137 18.9782C24.0403 18.7516 24.1676 18.4442 24.1676 18.1237V16.9154C24.1676 15.954 23.7857 15.0319 23.1059 14.3521C22.426 13.6723 21.504 13.2903 20.5426 13.2903H8.45905ZM7.2507 16.3112C7.2507 15.8305 7.44166 15.3695 7.78158 15.0296C8.12149 14.6896 8.58252 14.4987 9.06323 14.4987C9.54394 14.4987 10.005 14.6896 10.3449 15.0296C10.6848 15.3695 10.8758 15.8305 10.8758 16.3112C10.8758 16.7919 10.6848 17.2529 10.3449 17.5929C10.005 17.9328 9.54394 18.1237 9.06323 18.1237C8.58252 18.1237 8.12149 17.9328 7.78158 17.5929C7.44166 17.2529 7.2507 16.7919 7.2507 16.3112ZM19.9384 14.4987C19.4577 14.4987 18.9967 14.6896 18.6567 15.0296C18.3168 15.3695 18.1259 15.8305 18.1259 16.3112C18.1259 16.7919 18.3168 17.2529 18.6567 17.5929C18.9967 17.9328 19.4577 18.1237 19.9384 18.1237C20.4191 18.1237 20.8801 17.9328 21.22 17.5929C21.56 17.2529 21.7509 16.7919 21.7509 16.3112C21.7509 15.8305 21.56 15.3695 21.22 15.0296C20.8801 14.6896 20.4191 14.4987 19.9384 14.4987Z" fill="#202020"/>
<path d="M4.14244 16.0544L6.2139 12.4293L7.24963 10.3579V7.76853C7.59487 7.42329 8.38893 6.7328 8.80322 6.7328C9.32109 6.7328 10.8747 6.21494 11.3925 6.21494C11.9104 6.21494 13.9819 5.69707 15.0176 5.69707H18.6427C19.1605 5.69707 21.232 6.21494 21.232 6.7328C21.232 7.25067 21.7498 8.2864 21.7498 8.80426C21.7498 9.32213 22.7856 11.3936 22.7856 11.9115C22.7856 12.4293 23.8213 13.465 23.8213 13.9829C23.8213 14.5008 24.857 16.5722 25.3749 17.0901C25.8928 17.608 24.857 19.1616 24.3392 19.6794C23.9249 20.0937 22.0951 20.1973 21.232 20.1973H16.0533H10.3568H5.69603L4.14244 18.6437V16.0544Z" fill="#202020"/>
</svg>
