<svg width="39" height="39" viewBox="0 0 39 39" fill="none" xmlns="http://www.w3.org/2000/svg">
<rect x="0.416865" y="0.416865" width="38.1666" height="38.1653" rx="13.7566" stroke="black" stroke-width="0.833731"/>
<path d="M26.7584 19.4968C26.7584 19.8177 26.6354 20.128 26.4053 20.3526C26.1805 20.5826 25.8702 20.711 25.5491 20.711H20.7118V25.5466C20.7118 25.8675 20.5834 26.1778 20.3533 26.4024C20.1285 26.6271 19.8235 26.7554 19.5025 26.7554C19.1814 26.7554 18.871 26.6271 18.6463 26.4024C18.4162 26.1778 18.2878 25.8675 18.2878 25.5466V20.711H13.4505C13.1294 20.711 12.819 20.5826 12.5943 20.3526C12.3696 20.128 12.2411 19.8177 12.2411 19.4968C12.2411 19.1758 12.3696 18.871 12.5943 18.6409C12.819 18.4163 13.1294 18.2879 13.4505 18.2879H18.2878V13.4524C18.2878 13.1314 18.4162 12.8212 18.6463 12.5965C18.871 12.3665 19.1814 12.2381 19.5025 12.2381C19.8235 12.2381 20.1285 12.3665 20.3533 12.5965C20.5834 12.8212 20.7118 13.1314 20.7118 13.4524V18.2879H25.5491C25.8702 18.2879 26.1805 18.4163 26.4053 18.6409C26.6354 18.871 26.7584 19.1758 26.7584 19.4968Z" fill="black"/>
</svg>
