<svg width="24" height="24" viewBox="0 0 24 24" fill="none" xmlns="http://www.w3.org/2000/svg">
<path fill-rule="evenodd" clip-rule="evenodd" d="M1 1.99995C1 1.73475 1.10536 1.48041 1.29289 1.29288C1.48043 1.10535 1.73478 1 2 1H3.015C3.93428 0.999934 4.84457 1.18093 5.69389 1.53265C6.54321 1.88438 7.31494 2.39994 7.965 3.0499L10.745 5.83076L17.921 3.0409C18.4637 2.82986 19.0561 2.7813 19.6259 2.90116C20.1957 3.02101 20.7183 3.30409 21.13 3.71587L22.707 5.29279C22.8162 5.40193 22.8986 5.53486 22.9478 5.68117C22.9971 5.82749 23.0117 5.98322 22.9907 6.13615C22.9697 6.28909 22.9136 6.43508 22.8267 6.56269C22.7398 6.69031 22.6246 6.79608 22.49 6.87171L15.563 10.7675L17.895 13.4324L20.159 13.1094C20.6606 13.0378 21.172 13.1258 21.6208 13.3609C22.0696 13.5961 22.433 13.9665 22.6596 14.4197C22.8861 14.8729 22.9644 15.3859 22.8831 15.886C22.8019 16.3861 22.5653 16.848 22.207 17.2062L17.207 22.206C16.8488 22.5643 16.3869 22.8008 15.8868 22.8821C15.3866 22.9633 14.8736 22.8851 14.4204 22.6585C13.9672 22.432 13.5967 22.0686 13.3615 21.6198C13.1264 21.171 13.0384 20.6596 13.11 20.1581L13.433 17.8942L10.768 15.5623L6.872 22.4889C6.79639 22.6237 6.69058 22.7391 6.56288 22.8261C6.43517 22.9131 6.28904 22.9693 6.13596 22.9903C5.98288 23.0113 5.827 22.9966 5.68057 22.9473C5.53414 22.8979 5.40114 22.8153 5.292 22.7059L3.717 21.129C3.3052 20.7174 3.02211 20.1948 2.90225 19.625C2.78239 19.0552 2.83095 18.4628 3.042 17.9202L5.832 10.7455L3.052 7.96366C2.40164 7.31379 1.88569 6.54218 1.5336 5.69289C1.18152 4.8436 1.0002 3.93327 1 3.0139V1.99995ZM3 2.9999V3.0149C3.00002 4.34067 3.52662 5.61215 4.464 6.54973L7.707 9.79257C7.84433 9.92982 7.93874 10.1041 7.97869 10.2941C8.01864 10.4841 8.00242 10.6816 7.932 10.8625L4.905 18.6451C4.83458 18.8261 4.81836 19.0236 4.85831 19.2136C4.89826 19.4036 4.99267 19.5778 5.13 19.7151L5.775 20.3601L9.628 13.5094C9.70094 13.3798 9.80186 13.2681 9.92341 13.1825C10.045 13.0968 10.1841 13.0394 10.3306 13.0143C10.4772 12.9892 10.6275 12.9971 10.7706 13.0374C10.9138 13.0777 11.0461 13.1495 11.158 13.2474L15.158 16.7472C15.2833 16.8567 15.3792 16.9957 15.4372 17.1516C15.4952 17.3076 15.5133 17.4755 15.49 17.6402L15.09 20.44C15.0774 20.5262 15.0923 20.6141 15.1326 20.6914C15.1728 20.7686 15.2364 20.8311 15.3143 20.8701C15.3922 20.9091 15.4803 20.9225 15.5663 20.9085C15.6522 20.8945 15.7316 20.8537 15.793 20.792L20.793 15.7923C20.8547 15.7308 20.8955 15.6515 20.9095 15.5656C20.9235 15.4796 20.91 15.3915 20.8711 15.3136C20.8321 15.2357 20.7695 15.1721 20.6923 15.1319C20.6151 15.0916 20.5272 15.0767 20.441 15.0893L17.641 15.4893C17.4761 15.5128 17.308 15.4947 17.1519 15.4367C16.9958 15.3788 16.8566 15.2827 16.747 15.1573L13.247 11.1575C13.1491 11.0455 13.0774 10.9132 13.0372 10.77C12.9969 10.6268 12.9891 10.4765 13.0143 10.3299C13.0395 10.1834 13.0971 10.0443 13.1828 9.92278C13.2686 9.80127 13.3803 9.70043 13.51 9.62758L20.36 5.77477L19.716 5.1298C19.5787 4.99247 19.4045 4.89807 19.2145 4.85812C19.0245 4.81817 18.8269 4.83439 18.646 4.90481L10.862 7.93166C10.6811 8.00208 10.4835 8.0183 10.2935 7.97835C10.1035 7.9384 9.92925 7.844 9.792 7.70667L6.55 4.46383C5.61237 3.5265 4.34083 2.99992 3.015 2.9999H3Z" fill="black"/>
</svg>
