<svg width="29" height="29" viewBox="0 0 29 29" fill="none" xmlns="http://www.w3.org/2000/svg">
<path fill-rule="evenodd" clip-rule="evenodd" d="M8.19227 8.1835C8.2542 7.91781 8.40421 7.68091 8.6179 7.51132C8.83158 7.34173 9.09637 7.24944 9.36917 7.24947H19.6302C19.903 7.24944 20.1678 7.34173 20.3815 7.51132C20.5952 7.68091 20.7452 7.91781 20.8071 8.1835L21.4354 10.8744H7.56395L8.19227 8.1835V8.1835ZM2.41653 13.291H3.62484C2.86602 14.3012 2.41653 15.5554 2.41653 16.916V18.1243C2.41653 19.7024 3.42547 21.046 4.83316 21.5438V24.1659C4.83316 24.4864 4.96046 24.7937 5.18706 25.0203C5.41367 25.2469 5.72101 25.3742 6.04147 25.3742H7.24979C7.57025 25.3742 7.87759 25.2469 8.1042 25.0203C8.3308 24.7937 8.4581 24.4864 8.4581 24.1659V21.7493H20.5413V24.1659C20.5413 24.4864 20.6686 24.7937 20.8952 25.0203C21.1218 25.2469 21.4291 25.3742 21.7496 25.3742H22.9579C23.2784 25.3742 23.5857 25.2469 23.8123 25.0203C24.0389 24.7937 24.1662 24.4864 24.1662 24.1659V21.5438C24.8732 21.2937 25.4852 20.8305 25.918 20.2181C26.3508 19.6057 26.5831 18.8742 26.5828 18.1243V16.916C26.5848 15.6085 26.1606 14.3359 25.3745 13.291H26.5828C26.9033 13.291 27.2106 13.1637 27.4373 12.9371C27.6639 12.7105 27.7912 12.4032 27.7912 12.0827C27.7912 11.7623 27.6639 11.4549 27.4373 11.2283C27.2106 11.0017 26.9033 10.8744 26.5828 10.8744H25.3745C25.0742 10.8745 24.7847 10.9865 24.5625 11.1884C24.3402 11.3903 24.2011 11.6678 24.1723 11.9667L24.1348 11.8084L23.1609 7.63371C22.9749 6.83689 22.5247 6.12644 21.8837 5.61791C21.2427 5.10938 20.4484 4.83269 19.6302 4.83284H9.36917C8.55093 4.83269 7.7567 5.10938 7.11566 5.61791C6.47462 6.12644 6.02449 6.83689 5.83848 7.63371L4.86457 11.8084L4.82832 11.9667C4.79947 11.6676 4.6602 11.39 4.43767 11.188C4.21515 10.986 3.92535 10.8742 3.62484 10.8744H2.41653C2.09606 10.8744 1.78872 11.0017 1.56212 11.2283C1.33551 11.4549 1.20821 11.7623 1.20821 12.0827C1.20821 12.4032 1.33551 12.7105 1.56212 12.9371C1.78872 13.1637 2.09606 13.291 2.41653 13.291V13.291ZM8.4581 13.291C7.49671 13.291 6.57469 13.673 5.89488 14.3528C5.21507 15.0326 4.83316 15.9546 4.83316 16.916V18.1243C4.83316 18.4448 4.96046 18.7521 5.18706 18.9787C5.41367 19.2053 5.72101 19.3326 6.04147 19.3326H22.9579C23.2784 19.3326 23.5857 19.2053 23.8123 18.9787C24.0389 18.7521 24.1662 18.4448 24.1662 18.1243V16.916C24.1662 15.9546 23.7843 15.0326 23.1045 14.3528C22.4247 13.673 21.5027 13.291 20.5413 13.291H8.4581ZM7.24979 16.3118C7.24979 15.8311 7.44074 15.3701 7.78065 15.0302C8.12055 14.6903 8.58156 14.4994 9.06226 14.4994C9.54296 14.4994 10.004 14.6903 10.3439 15.0302C10.6838 15.3701 10.8747 15.8311 10.8747 16.3118C10.8747 16.7925 10.6838 17.2535 10.3439 17.5935C10.004 17.9334 9.54296 18.1243 9.06226 18.1243C8.58156 18.1243 8.12055 17.9334 7.78065 17.5935C7.44074 17.2535 7.24979 16.7925 7.24979 16.3118ZM19.9371 14.4994C19.4564 14.4994 18.9954 14.6903 18.6555 15.0302C18.3156 15.3701 18.1246 15.8311 18.1246 16.3118C18.1246 16.7925 18.3156 17.2535 18.6555 17.5935C18.9954 17.9334 19.4564 18.1243 19.9371 18.1243C20.4178 18.1243 20.8788 17.9334 21.2187 17.5935C21.5586 17.2535 21.7496 16.7925 21.7496 16.3118C21.7496 15.8311 21.5586 15.3701 21.2187 15.0302C20.8788 14.6903 20.4178 14.4994 19.9371 14.4994Z" fill="#202020"/>
<path d="M4.63956 17.9808L6.95953 13.9209L8.11951 11.6009V8.70098C8.50617 8.31432 9.39549 7.54099 9.85949 7.54099C10.4395 7.54099 12.1795 6.961 12.7594 6.961C13.3394 6.961 15.6594 6.38101 16.8194 6.38101H20.8793C21.4593 6.38101 23.7793 6.961 23.7793 7.54099C23.7793 8.12099 24.3593 9.28097 24.3593 9.86096C24.3593 10.441 25.5193 12.7609 25.5193 13.3409C25.5193 13.9209 26.6792 15.0809 26.6792 15.6609C26.6792 16.2409 27.8392 18.5608 28.4192 19.1408C28.9992 19.7208 27.8392 21.4608 27.2592 22.0408C26.7952 22.5048 24.7459 22.6208 23.7793 22.6208H17.9794H11.5995H6.37954L4.63956 20.8808V17.9808Z" fill="#202020"/>
</svg>
