<svg width="22" height="22" viewBox="0 0 22 22" fill="none" xmlns="http://www.w3.org/2000/svg">
<rect x="0.237237" y="0.237237" width="21.5258" height="21.525" rx="7.82881" stroke="#B3B3B3" stroke-width="0.474473"/>
<path d="M15.0949 10.9993C15.0949 11.1803 15.0255 11.3554 14.8957 11.4821C14.7689 11.6118 14.5939 11.6843 14.4128 11.6843H11.684H10.3166H7.58786C7.40675 11.6843 7.23168 11.6118 7.1049 11.4821C6.97812 11.3554 6.90567 11.1803 6.90567 10.9993C6.90567 10.8183 6.97812 10.6463 7.1049 10.5165C7.23168 10.3898 7.40675 10.3174 7.58786 10.3174H10.3166H11.684H14.4128C14.5939 10.3174 14.7689 10.3898 14.8957 10.5165C15.0255 10.6463 15.0949 10.8183 15.0949 10.9993Z" fill="#B3B3B3"/>
</svg>
