<svg width="35" height="34" viewBox="0 0 35 34" fill="none" xmlns="http://www.w3.org/2000/svg">
<path fill-rule="evenodd" clip-rule="evenodd" d="M7.08419 7.08422C7.08419 6.70847 7.23345 6.34812 7.49914 6.08243C7.76483 5.81674 8.12518 5.66748 8.50093 5.66748H25.5018C25.8775 5.66748 26.2378 5.81674 26.5035 6.08243C26.7692 6.34812 26.9185 6.70847 26.9185 7.08422V15.5846C28.0457 15.5846 29.1268 16.0324 29.9238 16.8295C30.7209 17.6266 31.1687 18.7076 31.1687 19.8348V25.5018C31.1687 26.629 30.7209 27.7101 29.9238 28.5071C29.1268 29.3042 28.0457 29.752 26.9185 29.752H7.08419C5.95697 29.752 4.87591 29.3042 4.07884 28.5071C3.28177 27.7101 2.83398 26.629 2.83398 25.5018V19.8348C2.83398 18.7076 3.28177 17.6266 4.07884 16.8295C4.87591 16.0324 5.95697 15.5846 7.08419 15.5846V7.08422ZM7.08419 18.4181C6.70845 18.4181 6.3481 18.5674 6.08241 18.8331C5.81672 19.0987 5.66746 19.4591 5.66746 19.8348V25.5018C5.66746 25.8775 5.81672 26.2379 6.08241 26.5036C6.3481 26.7693 6.70845 26.9185 7.08419 26.9185H26.9185C27.2942 26.9185 27.6546 26.7693 27.9203 26.5036C28.186 26.2379 28.3352 25.8775 28.3352 25.5018V19.8348C28.3352 19.4591 28.186 19.0987 27.9203 18.8331C27.6546 18.5674 27.2942 18.4181 26.9185 18.4181V21.2516C26.9185 21.6273 26.7692 21.9877 26.5035 22.2534C26.2378 22.519 25.8775 22.6683 25.5018 22.6683H8.50093C8.12518 22.6683 7.76483 22.519 7.49914 22.2534C7.23345 21.9877 7.08419 21.6273 7.08419 21.2516V18.4181ZM9.91766 8.50095V19.8348H24.085V8.50095H9.91766Z" fill="#56F2D6"/>
<path d="M5.00206 19.0002C5.00206 17.8002 6.66873 17.8336 7.50206 18.0002C7.66873 18.3336 8.10208 19.3001 8.50208 20.4995C8.50208 21.2994 8.83541 21.4995 9.00208 21.4995H10.5021C11.0021 21.6662 12.1021 21.9995 12.5021 21.9995H16.5021H20.5021C21.7021 21.9995 23.3354 21.6662 24.0021 21.4995C24.6687 20.9995 26.0021 19.8995 26.0021 19.4997V17.4997C26.5021 17.333 27.6021 17.0997 28.0021 17.4997C28.5021 17.9997 29.0021 18.4997 29.5021 19.4997C30.0021 20.4997 29.5021 20.9997 29.5021 22.4997V24.9997V27.4997C29.5021 28.2997 28.5021 28.1663 28.0021 27.9997C27.1687 28.1663 25.1021 28.4997 23.5021 28.4997H18.0021H12.5021H8.50208C7.50208 28.4997 6.00206 27.9997 5.00206 27.4997C4.00206 26.9997 5.00206 24.4997 5.00206 23.4997V19.0002Z" fill="#56F2D6"/>
<rect x="12" y="8" width="3" height="13" fill="#56F2D6"/>
<rect x="19" y="8" width="3" height="13" fill="#56F2D6"/>
</svg>
