<svg width="39" height="39" viewBox="0 0 39 39" fill="none" xmlns="http://www.w3.org/2000/svg">
<rect width="39" height="39" rx="11.9388" fill="#212121"/>
<path fill-rule="evenodd" clip-rule="evenodd" d="M20.7939 11.2949C20.2293 11.1035 19.6255 11 18.9997 11C16.1532 11 13.7619 13.1403 13.4475 15.9694L13.1957 18.2356L13.1893 18.2933C13.0603 19.417 12.6946 20.5005 12.1161 21.4725L12.0863 21.5222L11.5083 22.4856C10.9837 23.3599 10.7215 23.797 10.7781 24.1559C10.8158 24.3946 10.9387 24.6117 11.124 24.7668C11.4026 25 11.9124 25 12.9319 25H25.0674C26.087 25 26.5968 25 26.8753 24.7668C27.0607 24.6117 27.1836 24.3946 27.2213 24.1559C27.2779 23.797 27.0156 23.3599 26.4911 22.4856L25.913 21.5222L25.8832 21.4725C25.427 20.7059 25.1031 19.8698 24.9233 18.9994C22.1971 18.9586 19.9997 16.7359 19.9997 14C19.9997 13.0033 20.2913 12.0747 20.7939 11.2949ZM23.2738 12.9888C23.0996 13.2855 22.9997 13.6311 22.9997 14C22.9997 14.9498 23.6617 15.7449 24.5495 15.9491C24.4201 14.8213 23.9605 13.8038 23.2738 12.9888Z" fill="#56CCF2"/>
<path d="M16 25C16 25.394 16.0776 25.7841 16.2284 26.1481C16.3791 26.512 16.6001 26.8427 16.8787 27.1213C17.1573 27.3999 17.488 27.6209 17.8519 27.7716C18.2159 27.9224 18.606 28 19 28C19.394 28 19.7841 27.9224 20.1481 27.7716C20.512 27.6209 20.8427 27.3999 21.1213 27.1213C21.3999 26.8427 21.6209 26.512 21.7716 26.1481C21.9224 25.7841 22 25.394 22 25L19 25H16Z" fill="#56CCF2"/>
<circle cx="25" cy="14" r="2.5" fill="#56CCF2" stroke="#56CCF2"/>
</svg>
