<svg width="24" height="24" viewBox="0 0 24 24" fill="none" xmlns="http://www.w3.org/2000/svg">
<path fill-rule="evenodd" clip-rule="evenodd" d="M11.553 1.10546C11.6918 1.03611 11.8448 1 12 1C12.1552 1 12.3082 1.03611 12.447 1.10546L22.447 6.10522C22.6482 6.20607 22.8096 6.37187 22.9049 6.57578C23.0002 6.77969 23.0239 7.0098 22.9722 7.22886C22.9205 7.44793 22.7964 7.64315 22.62 7.78293C22.4435 7.92271 22.2251 7.99889 22 7.99913H2C1.7749 7.99889 1.55647 7.92271 1.38004 7.78293C1.20361 7.64315 1.07951 7.44793 1.0278 7.22886C0.9761 7.0098 0.999821 6.77969 1.09513 6.57578C1.19044 6.37187 1.35176 6.20607 1.553 6.10522L11.553 1.10546ZM6.236 5.99922H17.764L12 3.11736L6.236 5.99922ZM6 8.99908C6.26522 8.99908 6.51957 9.10443 6.70711 9.29196C6.89464 9.47949 7 9.73383 7 9.99903V14.9988C7 15.264 6.89464 15.5183 6.70711 15.7059C6.51957 15.8934 6.26522 15.9987 6 15.9987C5.73478 15.9987 5.48043 15.8934 5.29289 15.7059C5.10536 15.5183 5 15.264 5 14.9988V9.99903C5 9.73383 5.10536 9.47949 5.29289 9.29196C5.48043 9.10443 5.73478 8.99908 6 8.99908ZM10 8.99908C10.2652 8.99908 10.5196 9.10443 10.7071 9.29196C10.8946 9.47949 11 9.73383 11 9.99903V14.9988C11 15.264 10.8946 15.5183 10.7071 15.7059C10.5196 15.8934 10.2652 15.9987 10 15.9987C9.73478 15.9987 9.48043 15.8934 9.29289 15.7059C9.10536 15.5183 9 15.264 9 14.9988V9.99903C9 9.73383 9.10536 9.47949 9.29289 9.29196C9.48043 9.10443 9.73478 8.99908 10 8.99908ZM14 8.99908C14.2652 8.99908 14.5196 9.10443 14.7071 9.29196C14.8946 9.47949 15 9.73383 15 9.99903V14.9988C15 15.264 14.8946 15.5183 14.7071 15.7059C14.5196 15.8934 14.2652 15.9987 14 15.9987C13.7348 15.9987 13.4804 15.8934 13.2929 15.7059C13.1054 15.5183 13 15.264 13 14.9988V9.99903C13 9.73383 13.1054 9.47949 13.2929 9.29196C13.4804 9.10443 13.7348 8.99908 14 8.99908ZM18 8.99908C18.2652 8.99908 18.5196 9.10443 18.7071 9.29196C18.8946 9.47949 19 9.73383 19 9.99903V14.9988C19 15.264 18.8946 15.5183 18.7071 15.7059C18.5196 15.8934 18.2652 15.9987 18 15.9987C17.7348 15.9987 17.4804 15.8934 17.2929 15.7059C17.1054 15.5183 17 15.264 17 14.9988V9.99903C17 9.73383 17.1054 9.47949 17.2929 9.29196C17.4804 9.10443 17.7348 8.99908 18 8.99908ZM3 17.9986C3 17.7334 3.10536 17.4791 3.29289 17.2916C3.48043 17.104 3.73478 16.9987 4 16.9987H20C20.2652 16.9987 20.5196 17.104 20.7071 17.2916C20.8946 17.4791 21 17.7334 21 17.9986C21 18.2638 20.8946 18.5182 20.7071 18.7057C20.5196 18.8932 20.2652 18.9986 20 18.9986H4C3.73478 18.9986 3.48043 18.8932 3.29289 18.7057C3.10536 18.5182 3 18.2638 3 17.9986ZM1 20.9985C1 20.7333 1.10536 20.479 1.29289 20.2914C1.48043 20.1039 1.73478 19.9985 2 19.9985H22C22.2652 19.9985 22.5196 20.1039 22.7071 20.2914C22.8946 20.479 23 20.7333 23 20.9985C23 21.2637 22.8946 21.518 22.7071 21.7056C22.5196 21.8931 22.2652 21.9985 22 21.9985H2C1.73478 21.9985 1.48043 21.8931 1.29289 21.7056C1.10536 21.518 1 21.2637 1 20.9985Z" fill="black"/>
</svg>
