<svg width="33" height="32" viewBox="0 0 33 32" fill="none" xmlns="http://www.w3.org/2000/svg">
<path fill-rule="evenodd" clip-rule="evenodd" d="M9.04005 9.0315C9.10839 8.73831 9.27393 8.47688 9.50973 8.28974C9.74554 8.10259 10.0377 8.00075 10.3388 8.00078H21.662C21.963 8.00075 22.2552 8.10259 22.4911 8.28974C22.7269 8.47688 22.8924 8.73831 22.9607 9.0315L23.6541 12.001H8.34669L9.04005 9.0315V9.0315ZM2.66641 14.6678H3.99981C3.16243 15.7825 2.66641 17.1666 2.66641 18.668V20.0014C2.66641 21.7428 3.77979 23.2255 5.3332 23.7749V26.6684C5.3332 27.022 5.47369 27.3612 5.72375 27.6112C5.97381 27.8613 6.31296 28.0018 6.6666 28.0018H8C8.35364 28.0018 8.6928 27.8613 8.94286 27.6112C9.19292 27.3612 9.3334 27.022 9.3334 26.6684V24.0016H22.6674V26.6684C22.6674 27.022 22.8079 27.3612 23.0579 27.6112C23.308 27.8613 23.6471 28.0018 24.0008 28.0018H25.3342C25.6878 28.0018 26.027 27.8613 26.277 27.6112C26.5271 27.3612 26.6676 27.022 26.6676 26.6684V23.7749C27.4477 23.4989 28.1231 22.9878 28.6007 22.3119C29.0783 21.6361 29.3346 20.8289 29.3344 20.0014V18.668C29.3365 17.2251 28.8684 15.8208 28.001 14.6678H29.3344C29.688 14.6678 30.0272 14.5273 30.2772 14.2772C30.5273 14.0272 30.6678 13.688 30.6678 13.3344C30.6678 12.9807 30.5273 12.6416 30.2772 12.3915C30.0272 12.1415 29.688 12.001 29.3344 12.001H28.001C27.6696 12.0011 27.3501 12.1246 27.1048 12.3475C26.8596 12.5703 26.7061 12.8765 26.6742 13.2064L26.6329 13.0317L25.5582 8.4248C25.3529 7.54549 24.8562 6.7615 24.1488 6.20032C23.4414 5.63915 22.565 5.33382 21.662 5.33398H10.3388C9.43583 5.33382 8.55938 5.63915 7.85199 6.20032C7.14459 6.7615 6.64786 7.54549 6.44259 8.4248L5.36787 13.0317L5.32787 13.2064C5.29603 12.8763 5.14234 12.5699 4.89678 12.347C4.65122 12.1241 4.33143 12.0008 3.99981 12.001H2.66641C2.31277 12.001 1.97361 12.1415 1.72355 12.3915C1.47349 12.6416 1.33301 12.9807 1.33301 13.3344C1.33301 13.688 1.47349 14.0272 1.72355 14.2772C1.97361 14.5273 2.31277 14.6678 2.66641 14.6678V14.6678ZM9.3334 14.6678C8.27248 14.6678 7.25502 15.0892 6.50483 15.8394C5.75465 16.5896 5.3332 17.6071 5.3332 18.668V20.0014C5.3332 20.355 5.47369 20.6942 5.72375 20.9442C5.97381 21.1943 6.31296 21.3348 6.6666 21.3348H25.3342C25.6878 21.3348 26.027 21.1943 26.277 20.9442C26.5271 20.6942 26.6676 20.355 26.6676 20.0014V18.668C26.6676 17.6071 26.2461 16.5896 25.496 15.8394C24.7458 15.0892 23.7283 14.6678 22.6674 14.6678H9.3334ZM8 18.0013C8 17.4708 8.21073 16.9621 8.58582 16.587C8.96091 16.2119 9.46964 16.0012 10.0001 16.0012C10.5306 16.0012 11.0393 16.2119 11.4144 16.587C11.7895 16.9621 12.0002 17.4708 12.0002 18.0013C12.0002 18.5317 11.7895 19.0405 11.4144 19.4156C11.0393 19.7906 10.5306 20.0014 10.0001 20.0014C9.46964 20.0014 8.96091 19.7906 8.58582 19.4156C8.21073 19.0405 8 18.5317 8 18.0013ZM22.0007 16.0012C21.4702 16.0012 20.9615 16.2119 20.5864 16.587C20.2113 16.9621 20.0006 17.4708 20.0006 18.0013C20.0006 18.5317 20.2113 19.0405 20.5864 19.4156C20.9615 19.7906 21.4702 20.0014 22.0007 20.0014C22.5311 20.0014 23.0399 19.7906 23.415 19.4156C23.7901 19.0405 24.0008 18.5317 24.0008 18.0013C24.0008 17.4708 23.7901 16.9621 23.415 16.587C23.0399 16.2119 22.5311 16.0012 22.0007 16.0012Z" fill="#202020"/>
<path d="M4.57129 17.7162L6.85712 13.716L8.00003 11.4302V8.57294C8.381 8.19196 9.25723 7.43002 9.7144 7.43002C10.2859 7.43002 12.0002 6.85857 12.5717 6.85857C13.1431 6.85857 15.429 6.28711 16.5719 6.28711H20.5721C21.1435 6.28711 23.4294 6.85857 23.4294 7.43002C23.4294 8.00148 24.0008 9.14439 24.0008 9.71585C24.0008 10.2873 25.1437 12.5731 25.1437 13.1446C25.1437 13.716 26.2866 14.859 26.2866 15.4304C26.2866 16.0019 27.4295 18.2877 28.001 18.8592C28.5725 19.4306 27.4295 21.145 26.8581 21.7164C26.4009 22.1736 24.3818 22.2879 23.4294 22.2879H17.7148H11.4288H6.28566L4.57129 20.5735V17.7162Z" fill="#202020"/>
</svg>
