<svg width="18" height="20" viewBox="0 0 18 20" fill="none" xmlns="http://www.w3.org/2000/svg">
<path d="M13.0025 2.6528C12.134 1.03033 10.5914 0.0391063 8.87592 0.00122538C8.80269 -0.00040846 8.72899 -0.00040846 8.65573 0.00122538C6.94032 0.0391063 5.3977 1.03033 4.52918 2.6528C3.64143 4.31121 3.61714 6.30328 4.46419 7.98163L8.01282 15.0128C8.01442 15.0159 8.01601 15.019 8.01766 15.0221C8.17379 15.3159 8.45348 15.4912 8.76588 15.4912C9.07825 15.4912 9.35795 15.3159 9.51405 15.0221C9.5157 15.019 9.51729 15.0159 9.51889 15.0128L13.0675 7.98163C13.9145 6.30328 13.8902 4.31121 13.0025 2.6528ZM8.76583 7.01948C7.65618 7.01948 6.75342 6.04223 6.75342 4.84103C6.75342 3.63982 7.65618 2.66257 8.76583 2.66257C9.87547 2.66257 10.7782 3.63982 10.7782 4.84103C10.7782 6.04223 9.8755 7.01948 8.76583 7.01948Z" fill="#131313"/>
<ellipse cx="8.84615" cy="19.2302" rx="8.84615" ry="0.769231" fill="#131313"/>
</svg>
