<svg width="56" height="56" viewBox="0 0 56 56" fill="none" xmlns="http://www.w3.org/2000/svg">
<g filter="url(#filter0_d_23_4064)">
<circle cx="27.9995" cy="22.815" r="17.6294" fill="white"/>
</g>
<path d="M27.9995 51.5257L22.4588 36.4148L33.5402 36.4148L27.9995 51.5257Z" fill="white"/>
<path fill-rule="evenodd" clip-rule="evenodd" d="M26.1782 15.5204C26.4685 15.5204 26.7469 15.405 26.9522 15.1998C27.1574 14.9945 27.2727 14.7161 27.2727 14.4258C27.2727 14.1355 27.1574 13.8571 26.9522 13.6519C26.7469 13.4466 26.4685 13.3313 26.1782 13.3313C25.8879 13.3313 25.6095 13.4466 25.4042 13.6519C25.199 13.8571 25.0837 14.1355 25.0837 14.4258C25.0837 14.7161 25.199 14.9945 25.4042 15.1998C25.6095 15.405 25.8879 15.5204 26.1782 15.5204ZM24.6694 15.2631C24.7585 15.2855 24.8405 15.3299 24.9079 15.3922C24.9753 15.4546 25.026 15.5329 25.0552 15.62C25.1548 15.9171 25.2938 16.1771 25.4651 16.396C25.9368 16.998 26.6981 17.3417 27.7303 17.1698C27.8021 17.1556 27.8761 17.156 27.9478 17.171C28.0195 17.1859 28.0875 17.2151 28.1478 17.2568C28.208 17.2985 28.2593 17.3518 28.2985 17.4137C28.3377 17.4756 28.3641 17.5447 28.3761 17.6169C28.3882 17.6892 28.3855 17.7631 28.3685 17.8344C28.3514 17.9056 28.3202 17.9727 28.2767 18.0317C28.2332 18.0906 28.1783 18.1402 28.1153 18.1776C28.0522 18.2149 27.9824 18.2392 27.9098 18.2491C26.7408 18.4439 25.7289 18.1467 24.9983 17.4933L23.5124 18.7969L24.4007 19.8115C24.4881 19.9113 24.5364 20.0395 24.5364 20.1722V22.6349C24.5364 22.78 24.4787 22.9192 24.3761 23.0219C24.2735 23.1245 24.1343 23.1822 23.9891 23.1822C23.844 23.1822 23.7048 23.1245 23.6021 23.0219C23.4995 22.9192 23.4418 22.78 23.4418 22.6349V20.3779L22.3303 19.1083L22.3062 19.0809C22.1749 18.9348 21.956 18.6896 21.8608 18.4006C21.8028 18.2228 21.7842 18.0176 21.8471 17.8008C21.9073 17.5907 22.0321 17.4123 22.1864 17.2607L22.1941 17.2536L24.1604 15.3961C24.2272 15.333 24.3089 15.2877 24.3979 15.2645C24.4868 15.2412 24.5802 15.2408 24.6694 15.2631V15.2631ZM18.5164 21.5403C18.5164 21.1049 18.6894 20.6873 18.9973 20.3794C19.3052 20.0715 19.7228 19.8985 20.1582 19.8985C20.5936 19.8985 21.0112 20.0715 21.3191 20.3794C21.627 20.6873 21.8 21.1049 21.8 21.5403C21.8 21.9758 21.627 22.3934 21.3191 22.7013C21.0112 23.0092 20.5936 23.1822 20.1582 23.1822C19.7228 23.1822 19.3052 23.0092 18.9973 22.7013C18.6894 22.3934 18.5164 21.9758 18.5164 21.5403ZM20.1582 18.804C19.4325 18.804 18.7365 19.0923 18.2233 19.6054C17.7101 20.1186 17.4219 20.8146 17.4219 21.5403C17.4219 22.2661 17.7101 22.9621 18.2233 23.4752C18.7365 23.9884 19.4325 24.2767 20.1582 24.2767C20.8839 24.2767 21.5799 23.9884 22.0931 23.4752C22.6063 22.9621 22.8946 22.2661 22.8946 21.5403C22.8946 20.8146 22.6063 20.1186 22.0931 19.6054C21.5799 19.0923 20.8839 18.804 20.1582 18.804ZM26.1782 21.5403C26.1782 21.1049 26.3512 20.6873 26.6591 20.3794C26.967 20.0715 27.3846 19.8985 27.82 19.8985C28.2554 19.8985 28.673 20.0715 28.9809 20.3794C29.2888 20.6873 29.4618 21.1049 29.4618 21.5403C29.4618 21.9758 29.2888 22.3934 28.9809 22.7013C28.673 23.0092 28.2554 23.1822 27.82 23.1822C27.3846 23.1822 26.967 23.0092 26.6591 22.7013C26.3512 22.3934 26.1782 21.9758 26.1782 21.5403V21.5403ZM27.82 18.804C27.0943 18.804 26.3983 19.0923 25.8851 19.6054C25.3719 20.1186 25.0837 20.8146 25.0837 21.5403C25.0837 22.2661 25.3719 22.9621 25.8851 23.4752C26.3983 23.9884 27.0943 24.2767 27.82 24.2767C28.5457 24.2767 29.2417 23.9884 29.7549 23.4752C30.2681 22.9621 30.5564 22.2661 30.5564 21.5403C30.5564 20.8146 30.2681 20.1186 29.7549 19.6054C29.2417 19.0923 28.5457 18.804 27.82 18.804Z" fill="#219653"/>
<defs>
<filter id="filter0_d_23_4064" x="-0.000173892" y="0.000404947" width="55.9994" height="55.9994" filterUnits="userSpaceOnUse" color-interpolation-filters="sRGB">
<feFlood flood-opacity="0" result="BackgroundImageFix"/>
<feColorMatrix in="SourceAlpha" type="matrix" values="0 0 0 0 0 0 0 0 0 0 0 0 0 0 0 0 0 0 127 0" result="hardAlpha"/>
<feOffset dy="5.14706"/>
<feGaussianBlur stdDeviation="5.14706"/>
<feComposite in2="hardAlpha" operator="out"/>
<feColorMatrix type="matrix" values="0 0 0 0 0 0 0 0 0 0 0 0 0 0 0 0 0 0 0.1 0"/>
<feBlend mode="normal" in2="BackgroundImageFix" result="effect1_dropShadow_23_4064"/>
<feBlend mode="normal" in="SourceGraphic" in2="effect1_dropShadow_23_4064" result="shape"/>
</filter>
</defs>
</svg>
