<svg width="40" height="14" viewBox="0 0 40 14" fill="none" xmlns="http://www.w3.org/2000/svg">
<path d="M2.30134 9.99862C2.47037 10.4509 2.7044 10.8376 3.00346 11.1587C3.30252 11.4799 3.65681 11.7257 4.06635 11.8961C4.47593 12.0665 4.92124 12.1517 5.40232 12.1517C5.87042 12.1517 6.30921 12.0632 6.71879 11.8862C7.12837 11.7092 7.4859 11.4602 7.79143 11.1391C8.09697 10.8179 8.33427 10.4345 8.50331 9.98879C8.67235 9.54309 8.75684 9.045 8.75684 8.4944V0H10.8046V13.7641H8.77635V12.486C8.32128 12.9709 7.78492 13.3445 7.16734 13.6068C6.54971 13.8689 5.88341 14 5.1683 14C4.44015 14 3.76082 13.8722 3.1302 13.6166C2.49963 13.3609 1.95351 12.9972 1.49198 12.5253C1.03044 12.0533 0.666347 11.4865 0.399825 10.8245C0.133261 10.1625 0 9.42514 0 8.61236V0H2.0478V8.4944C2.0478 9.045 2.1323 9.54635 2.30134 9.99862ZM14.3345 0V5.01404C14.7896 4.55524 15.3162 4.19151 15.9143 3.92276C16.5123 3.65401 17.1624 3.51965 17.8645 3.51965C18.5927 3.51965 19.2752 3.65727 19.9123 3.93255C20.5494 4.20783 21.102 4.58143 21.5701 5.05337C22.0382 5.5253 22.4087 6.08239 22.6818 6.7247C22.9548 7.36706 23.0913 8.0487 23.0913 8.76968C23.0913 9.49062 22.9548 10.169 22.6818 10.8047C22.4087 11.4405 22.0382 11.9944 21.5701 12.4662C21.102 12.9382 20.5494 13.3118 19.9123 13.5871C19.2752 13.8623 18.5926 14 17.8645 14C17.1624 14 16.5091 13.8656 15.9045 13.5969C15.2999 13.3281 14.7701 12.9644 14.315 12.5056V13.764H12.3647V0H14.3345ZM14.5588 10.1264C14.7343 10.5459 14.9781 10.9129 15.2902 11.2276C15.6022 11.5422 15.9663 11.7913 16.3823 11.9748C16.7984 12.1583 17.2469 12.25 17.728 12.25C18.1961 12.25 18.6382 12.1583 19.0542 11.9748C19.4703 11.7913 19.831 11.5422 20.1366 11.2276C20.4422 10.913 20.686 10.5459 20.868 10.1264C21.05 9.70694 21.141 9.25471 21.141 8.76968C21.141 8.28465 21.05 7.82912 20.868 7.40308C20.686 6.97705 20.4422 6.60675 20.1366 6.29214C19.8311 5.97757 19.4703 5.73175 19.0542 5.5548C18.6381 5.37785 18.1961 5.28932 17.728 5.28932C17.26 5.28932 16.8179 5.37781 16.4019 5.5548C15.9858 5.7318 15.6218 5.97757 15.3097 6.29214C14.9977 6.60675 14.7506 6.97705 14.5686 7.40308C14.3865 7.82912 14.2955 8.28465 14.2955 8.76968C14.2955 9.25471 14.3833 9.70694 14.5588 10.1264ZM24.2028 6.74441C24.4628 6.11519 24.8204 5.56137 25.2754 5.08291C25.7304 4.60445 26.2701 4.22758 26.8942 3.9523C27.5183 3.67702 28.1944 3.53941 28.9225 3.53941C29.6376 3.53941 30.3007 3.6705 30.9118 3.93264C31.5229 4.19482 32.0495 4.55859 32.4915 5.02396C32.9336 5.48928 33.2782 6.03988 33.5252 6.67562C33.7722 7.31141 33.8957 8.00289 33.8957 8.7501V9.39899H25.802C25.8671 9.80536 25.9971 10.1822 26.1921 10.5296C26.3872 10.8769 26.6309 11.1784 26.9234 11.434C27.216 11.6897 27.5475 11.8896 27.9181 12.0338C28.2887 12.178 28.6819 12.2501 29.098 12.2501C30.2812 12.2501 31.2369 11.7585 31.965 10.7753L33.3887 11.8371C32.8946 12.5057 32.2836 13.03 31.5555 13.4102C30.8273 13.7903 30.0082 13.9804 29.0981 13.9804C28.3569 13.9804 27.6646 13.8492 27.021 13.5871C26.3774 13.325 25.8183 12.9579 25.3438 12.486C24.8692 12.014 24.4954 11.4602 24.2224 10.8245C23.9493 10.1887 23.8128 9.49719 23.8128 8.75002C23.8127 8.04218 23.9428 7.37363 24.2028 6.74441ZM26.943 5.9677C26.3904 6.43306 26.0231 7.05245 25.841 7.82585H31.9065C31.7374 7.05245 31.3766 6.43306 30.824 5.9677C30.2715 5.50238 29.6246 5.26969 28.8835 5.26969C28.1424 5.26969 27.4955 5.50238 26.943 5.9677ZM37.5817 6.19381C37.1656 6.65261 36.9576 7.27526 36.9576 8.0618V13.7641H34.9877V3.73598H36.938V4.97475C37.1851 4.56838 37.5069 4.2472 37.9034 4.01126C38.3 3.77527 38.7713 3.65727 39.3174 3.65727H40V5.5056H39.1809C38.5308 5.50564 37.9977 5.73501 37.5817 6.19381Z" fill="white"/>
</svg>
