<svg width="24" height="24" viewBox="0 0 24 24" fill="none" xmlns="http://www.w3.org/2000/svg">
<path fill-rule="evenodd" clip-rule="evenodd" d="M13 4.49972C13 4.67472 12.97 4.84372 12.915 4.99972H13C13 4.60189 13.158 4.22036 13.4393 3.93906C13.7206 3.65775 14.1022 3.49972 14.5 3.49972C14.8978 3.49972 15.2794 3.65775 15.5607 3.93906C15.842 4.22036 16 4.60189 16 4.99972V5.01372C16.12 5.02072 16.24 5.03072 16.36 5.04272C16.4606 4.8464 16.6232 4.68884 16.8227 4.59458C17.0221 4.50031 17.2471 4.47462 17.4626 4.52152C17.6782 4.56842 17.8721 4.68526 18.0144 4.85386C18.1566 5.02246 18.2391 5.23336 18.249 5.45372C19.9268 6.0278 21.3832 7.11204 22.4144 8.55473C23.4456 9.99742 24 11.7264 24 13.4997V15.9997C24 17.0606 23.5786 18.078 22.8284 18.8281C22.0783 19.5783 21.0609 19.9997 20 19.9997H5.333C3.9186 19.9997 2.56213 19.4378 1.562 18.4377C0.561869 17.4376 7.08199e-07 16.0811 7.08199e-07 14.6667V13.9997C-0.000627659 12.4158 0.416905 10.8598 1.2104 9.48896C2.00389 8.11813 3.14521 6.98107 4.519 6.19272C4.47454 5.96923 4.50774 5.73725 4.61311 5.5352C4.71847 5.33315 4.88969 5.17315 5.0984 5.08169C5.30711 4.99022 5.5408 4.97278 5.76077 5.03226C5.98075 5.09173 6.17381 5.22455 6.308 5.40872C6.54 5.33672 6.776 5.27272 7.016 5.21872C6.98596 5.01473 6.99831 4.80673 7.05226 4.60772C7.10621 4.40872 7.20061 4.22297 7.32957 4.06208C7.45853 3.90119 7.61927 3.76862 7.80176 3.67264C7.98425 3.57666 8.18457 3.51933 8.39021 3.50424C8.59585 3.48915 8.80239 3.51661 8.99694 3.58492C9.19148 3.65323 9.36986 3.76092 9.52092 3.90125C9.67199 4.04159 9.7925 4.21157 9.87493 4.40057C9.95736 4.58956 9.99993 4.79353 10 4.99972H10.085C10.0126 4.79383 9.98595 4.57461 10.007 4.35737C10.028 4.14013 10.0962 3.9301 10.2068 3.74193C10.3174 3.55376 10.4677 3.39199 10.6473 3.26792C10.8268 3.14384 11.0313 3.06044 11.2464 3.02354C11.4615 2.98665 11.6821 2.99714 11.8928 3.05428C12.1034 3.11143 12.299 3.21386 12.466 3.35442C12.633 3.49497 12.7673 3.67028 12.8595 3.86809C12.9517 4.0659 12.9997 4.28146 13 4.49972V4.49972ZM9 6.99972C7.14349 6.99972 5.36301 7.73722 4.05025 9.04997C2.7375 10.3627 2 12.1432 2 13.9997V14.6667C2 15.5507 2.35116 16.3984 2.97621 17.0235C3.60127 17.6486 4.44903 17.9997 5.333 17.9997H16.535C16.1834 17.3919 15.9989 16.7019 16 15.9997V13.6467C16 11.8838 15.2997 10.1931 14.0531 8.94658C12.8066 7.70003 11.1159 6.99972 9.353 6.99972H9ZM14.884 6.99972C15.8602 7.81041 16.6455 8.82641 17.1841 9.97533C17.7227 11.1243 18.0013 12.3778 18 13.6467V15.9997C18 16.5302 18.2107 17.0389 18.5858 17.4139C18.9609 17.789 19.4696 17.9997 20 17.9997C20.5304 17.9997 21.0391 17.789 21.4142 17.4139C21.7893 17.0389 22 16.5302 22 15.9997V13.4997C22 13.3747 21.997 13.2497 21.99 13.1267C21.7987 13.2946 21.5678 13.411 21.3191 13.465C21.0704 13.519 20.812 13.5088 20.5683 13.4354C20.3246 13.3621 20.1036 13.2279 19.9261 13.0455C19.7485 12.8632 19.6203 12.6387 19.5535 12.3931C19.4866 12.1475 19.4833 11.889 19.544 11.6418C19.6046 11.3946 19.7271 11.1669 19.9 10.9802C20.0729 10.7934 20.2905 10.6537 20.5322 10.5742C20.774 10.4947 21.032 10.478 21.282 10.5257C20.9473 9.87747 20.5061 9.28998 19.977 8.78772C20.0205 8.98854 20.001 9.19788 19.9212 9.38725C19.8415 9.57662 19.7054 9.73683 19.5314 9.84609C19.3573 9.95535 19.1539 10.0084 18.9487 9.99789C18.7435 9.98743 18.5465 9.914 18.3845 9.78761C18.2225 9.66122 18.1034 9.48799 18.0433 9.2915C17.9832 9.095 17.9852 8.88477 18.0488 8.6894C18.1125 8.49404 18.2347 8.32302 18.399 8.19962C18.5633 8.07622 18.7616 8.00642 18.967 7.99972C17.9295 7.34435 16.7271 6.99753 15.5 6.99972H14.884ZM18 14.9997C18 14.7345 18.1054 14.4801 18.2929 14.2926C18.4804 14.1051 18.7348 13.9997 19 13.9997C19.2652 13.9997 19.5196 14.1051 19.7071 14.2926C19.8946 14.4801 20 14.7345 20 14.9997C20 15.2649 19.8946 15.5193 19.7071 15.7068C19.5196 15.8944 19.2652 15.9997 19 15.9997C18.7348 15.9997 18.4804 15.8944 18.2929 15.7068C18.1054 15.5193 18 15.2649 18 14.9997Z" fill="#333333"/>
</svg>
