<svg width="35" height="35" viewBox="0 0 35 35" fill="none" xmlns="http://www.w3.org/2000/svg">
<rect width="35" height="35" rx="9.21053" fill="#1A1A1A"/>
<path d="M10.6953 14.6087C10.6953 12.3826 10.6953 11.2696 11.3869 10.578C12.0784 9.88647 13.1915 9.88647 15.4175 9.88647H15.6953C17.9214 9.88647 19.0344 9.88647 19.726 10.578C20.4175 11.2696 20.4175 12.3826 20.4175 14.6087V19.7476C20.4175 21.9737 20.4175 23.0867 19.726 23.7783C19.0344 24.4698 17.9214 24.4698 15.6953 24.4698H15.4175C13.1915 24.4698 12.0784 24.4698 11.3869 23.7783C10.6953 23.0867 10.6953 21.9737 10.6953 19.7476V14.6087Z" fill="#56CCF2"/>
<path d="M13.126 9.00711C13.126 7.89407 13.126 7.33755 13.4718 6.99177C13.8175 6.646 14.374 6.646 15.4871 6.646H15.626C16.739 6.646 17.2955 6.646 17.6413 6.99177C17.9871 7.33755 17.9871 7.89407 17.9871 9.00711V9.07655H13.126V9.00711Z" fill="#56CCF2"/>
</svg>
