<svg width="27" height="27" viewBox="0 0 27 27" fill="none" xmlns="http://www.w3.org/2000/svg">
<path fill-rule="evenodd" clip-rule="evenodd" d="M7.62754 7.6195C7.6852 7.37214 7.82487 7.15156 8.02382 6.99366C8.22278 6.83576 8.46931 6.74984 8.72331 6.74987H18.2769C18.5309 6.74984 18.7775 6.83576 18.9764 6.99366C19.1754 7.15156 19.315 7.37214 19.3727 7.6195L19.9577 10.1249H7.04253L7.62754 7.6195V7.6195ZM2.24997 12.3749H3.37499C2.66848 13.3154 2.24997 14.4832 2.24997 15.75V16.875C2.24997 18.3443 3.18936 19.5953 4.5 20.0588V22.5001C4.5 22.7984 4.61853 23.0846 4.82951 23.2956C5.04049 23.5066 5.32664 23.6251 5.62502 23.6251H6.75003C7.0484 23.6251 7.33455 23.5066 7.54554 23.2956C7.75652 23.0846 7.87504 22.7984 7.87504 22.5001V20.25H19.1252V22.5001C19.1252 22.7984 19.2437 23.0846 19.4547 23.2956C19.6657 23.5066 19.9518 23.6251 20.2502 23.6251H21.3752C21.6736 23.6251 21.9597 23.5066 22.1707 23.2956C22.3817 23.0846 22.5002 22.7984 22.5002 22.5001V20.0588C23.1584 19.8259 23.7283 19.3947 24.1312 18.8245C24.5342 18.2543 24.7505 17.5732 24.7503 16.875V15.75C24.7521 14.5326 24.3571 13.3478 23.6252 12.3749H24.7503C25.0486 12.3749 25.3348 12.2564 25.5458 12.0454C25.7567 11.8344 25.8753 11.5483 25.8753 11.2499C25.8753 10.9516 25.7567 10.6654 25.5458 10.4544C25.3348 10.2434 25.0486 10.1249 24.7503 10.1249H23.6252C23.3456 10.125 23.0761 10.2292 22.8692 10.4173C22.6622 10.6053 22.5327 10.8636 22.5059 11.1419L22.471 10.9945L21.5642 7.10762C21.391 6.36573 20.9719 5.70426 20.3751 5.23079C19.7782 4.75731 19.0388 4.4997 18.2769 4.49984H8.72331C7.96147 4.4997 7.22199 4.75731 6.62515 5.23079C6.0283 5.70426 5.6092 6.36573 5.43601 7.10762L4.52925 10.9945L4.4955 11.1419C4.46864 10.8634 4.33897 10.6049 4.13178 10.4169C3.9246 10.2288 3.65478 10.1247 3.37499 10.1249H2.24997C1.9516 10.1249 1.66545 10.2434 1.45447 10.4544C1.24349 10.6654 1.12496 10.9516 1.12496 11.2499C1.12496 11.5483 1.24349 11.8344 1.45447 12.0454C1.66545 12.2564 1.9516 12.3749 2.24997 12.3749V12.3749ZM7.87504 12.3749C6.97993 12.3749 6.12147 12.7305 5.48853 13.3635C4.85559 13.9964 4.5 14.8549 4.5 15.75V16.875C4.5 17.1734 4.61853 17.4595 4.82951 17.6705C5.04049 17.8815 5.32664 18 5.62502 18H21.3752C21.6736 18 21.9597 17.8815 22.1707 17.6705C22.3817 17.4595 22.5002 17.1734 22.5002 16.875V15.75C22.5002 14.8549 22.1446 13.9964 21.5117 13.3635C20.8788 12.7305 20.0203 12.3749 19.1252 12.3749H7.87504ZM6.75003 15.1875C6.75003 14.7399 6.92782 14.3107 7.24429 13.9942C7.56077 13.6777 7.98999 13.5 8.43755 13.5C8.88511 13.5 9.31434 13.6777 9.63081 13.9942C9.94728 14.3107 10.1251 14.7399 10.1251 15.1875C10.1251 15.635 9.94728 16.0643 9.63081 16.3807C9.31434 16.6972 8.88511 16.875 8.43755 16.875C7.98999 16.875 7.56077 16.6972 7.24429 16.3807C6.92782 16.0643 6.75003 15.635 6.75003 15.1875ZM18.5627 13.5C18.1151 13.5 17.6859 13.6777 17.3694 13.9942C17.053 14.3107 16.8752 14.7399 16.8752 15.1875C16.8752 15.635 17.053 16.0643 17.3694 16.3807C17.6859 16.6972 18.1151 16.875 18.5627 16.875C19.0102 16.875 19.4395 16.6972 19.7559 16.3807C20.0724 16.0643 20.2502 15.635 20.2502 15.1875C20.2502 14.7399 20.0724 14.3107 19.7559 13.9942C19.4395 13.6777 19.0102 13.5 18.5627 13.5Z" fill="#202020"/>
<path d="M3.85728 14.9475L5.78588 11.5724L6.75018 9.64384V7.23309C7.07161 6.91166 7.8109 6.26879 8.19662 6.26879C8.67877 6.26879 10.1252 5.78664 10.6074 5.78664C11.0895 5.78664 13.0181 5.3045 13.9824 5.3045H17.3575C17.8396 5.3045 19.7682 5.78664 19.7682 6.26879C19.7682 6.75094 20.2503 7.71524 20.2503 8.19739C20.2503 8.67954 21.2146 10.6081 21.2146 11.0903C21.2146 11.5724 22.1789 12.5367 22.1789 13.0189C22.1789 13.501 23.1432 15.4296 23.6254 15.9118C24.1075 16.3939 23.1432 17.8404 22.6611 18.3225C22.2754 18.7082 20.5718 18.8047 19.7682 18.8047H14.9467H9.64307H5.30373L3.85728 17.3582V14.9475Z" fill="#202020"/>
</svg>
