<svg width="18" height="18" viewBox="0 0 18 18" fill="none" xmlns="http://www.w3.org/2000/svg">
<path d="M7.5 14.25L6.96967 13.7197L6.43934 14.25L6.96967 14.7803L7.5 14.25ZM9.96967 10.7197L6.96967 13.7197L8.03033 14.7803L11.0303 11.7803L9.96967 10.7197ZM6.96967 14.7803L9.96967 17.7803L11.0303 16.7197L8.03033 13.7197L6.96967 14.7803Z" fill="#5D5FEF"/>
<path d="M13.5466 6.375C14.0074 7.1731 14.25 8.07843 14.25 9C14.25 9.92157 14.0074 10.8269 13.5466 11.625C13.0858 12.4231 12.4231 13.0858 11.625 13.5466C10.8269 14.0074 9.92157 14.25 9 14.25" stroke="#5D5FEF" stroke-width="1.5" stroke-linecap="round"/>
<path d="M10.5 3.75L11.0303 4.28033L11.5607 3.75L11.0303 3.21967L10.5 3.75ZM8.03033 7.28033L11.0303 4.28033L9.96967 3.21967L6.96967 6.21967L8.03033 7.28033ZM11.0303 3.21967L8.03033 0.21967L6.96967 1.28033L9.96967 4.28033L11.0303 3.21967Z" fill="#5D5FEF"/>
<path d="M4.45337 11.625C3.99258 10.8269 3.75 9.92157 3.75 9C3.75 8.07843 3.99258 7.1731 4.45337 6.375C4.91415 5.5769 5.5769 4.91415 6.375 4.45337C7.1731 3.99258 8.07843 3.75 9 3.75" stroke="#5D5FEF" stroke-width="1.5" stroke-linecap="round"/>
</svg>
