<svg width="23" height="23" viewBox="0 0 23 23" fill="none" xmlns="http://www.w3.org/2000/svg">
<path fill-rule="evenodd" clip-rule="evenodd" d="M6.49717 6.4913C6.54628 6.28058 6.66526 6.09268 6.83474 5.95818C7.00422 5.82367 7.21423 5.75048 7.43059 5.7505H15.5688C15.7852 5.75048 15.9952 5.82367 16.1647 5.95818C16.3341 6.09268 16.4531 6.28058 16.5022 6.4913L17.0006 8.62552H5.99883L6.49717 6.4913ZM1.91631 10.5422H2.87465C2.27281 11.3434 1.91631 12.3381 1.91631 13.4172V14.3756C1.91631 15.6271 2.71652 16.6928 3.83299 17.0877V19.1673C3.83299 19.4214 3.93395 19.6652 4.11368 19.8449C4.2934 20.0246 4.53716 20.1256 4.79133 20.1256H5.74966C6.00383 20.1256 6.24759 20.0246 6.42731 19.8449C6.60704 19.6652 6.708 19.4214 6.708 19.1673V17.2506H16.2914V19.1673C16.2914 19.4214 16.3924 19.6652 16.5721 19.8449C16.7518 20.0246 16.9956 20.1256 17.2497 20.1256H18.2081C18.4622 20.1256 18.706 20.0246 18.8857 19.8449C19.0654 19.6652 19.1664 19.4214 19.1664 19.1673V17.0877C19.7271 16.8893 20.2125 16.5219 20.5558 16.0362C20.899 15.5505 21.0833 14.9703 21.0831 14.3756V13.4172C21.0846 12.3802 20.7482 11.3709 20.1248 10.5422H21.0831C21.3373 10.5422 21.581 10.4412 21.7607 10.2615C21.9405 10.0818 22.0414 9.83803 22.0414 9.58386C22.0414 9.32969 21.9405 9.08593 21.7607 8.90621C21.581 8.72649 21.3373 8.62552 21.0831 8.62552H20.1248C19.8866 8.62561 19.657 8.71439 19.4807 8.87455C19.3044 9.03471 19.1941 9.25478 19.1712 9.49186L19.1415 9.36632L18.3691 6.05525C18.2215 5.42328 17.8645 4.8598 17.3561 4.45648C16.8477 4.05315 16.2178 3.8337 15.5688 3.83382H7.43059C6.78162 3.8337 6.1517 4.05315 5.64328 4.45648C5.13486 4.8598 4.77786 5.42328 4.63032 6.05525L3.8579 9.36632L3.82915 9.49186C3.80627 9.25462 3.69581 9.03441 3.51932 8.87423C3.34283 8.71404 3.11299 8.62537 2.87465 8.62552H1.91631C1.66214 8.62552 1.41838 8.72649 1.23866 8.90621C1.05893 9.08593 0.957967 9.32969 0.957967 9.58386C0.957967 9.83803 1.05893 10.0818 1.23866 10.2615C1.41838 10.4412 1.66214 10.5422 1.91631 10.5422ZM6.708 10.5422C5.9455 10.5422 5.21423 10.8451 4.67506 11.3843C4.13589 11.9234 3.83299 12.6547 3.83299 13.4172V14.3756C3.83299 14.6297 3.93395 14.8735 4.11368 15.0532C4.2934 15.2329 4.53716 15.3339 4.79133 15.3339H18.2081C18.4622 15.3339 18.706 15.2329 18.8857 15.0532C19.0654 14.8735 19.1664 14.6297 19.1664 14.3756V13.4172C19.1664 12.6547 18.8635 11.9234 18.3243 11.3843C17.7852 10.8451 17.0539 10.5422 16.2914 10.5422H6.708ZM5.74966 12.938C5.74966 12.5568 5.90112 12.1912 6.1707 11.9216C6.44029 11.652 6.80592 11.5005 7.18717 11.5005C7.56842 11.5005 7.93406 11.652 8.20365 11.9216C8.47323 12.1912 8.62468 12.5568 8.62468 12.938C8.62468 13.3193 8.47323 13.6849 8.20365 13.9545C7.93406 14.2241 7.56842 14.3756 7.18717 14.3756C6.80592 14.3756 6.44029 14.2241 6.1707 13.9545C5.90112 13.6849 5.74966 13.3193 5.74966 12.938ZM15.8122 11.5005C15.431 11.5005 15.0653 11.652 14.7958 11.9216C14.5262 12.1912 14.3747 12.5568 14.3747 12.938C14.3747 13.3193 14.5262 13.6849 14.7958 13.9545C15.0653 14.2241 15.431 14.3756 15.8122 14.3756C16.1935 14.3756 16.5591 14.2241 16.8287 13.9545C17.0983 13.6849 17.2497 13.3193 17.2497 12.938C17.2497 12.5568 17.0983 12.1912 16.8287 11.9216C16.5591 11.652 16.1935 11.5005 15.8122 11.5005Z" fill="#202020"/>
<path d="M3.28599 12.7317L4.92886 9.85671L5.75029 8.21384V6.16025C6.02411 5.88644 6.65387 5.33882 6.98245 5.33882C7.39316 5.33882 8.62531 4.9281 9.03603 4.9281C9.44675 4.9281 11.0896 4.51739 11.911 4.51739H14.7861C15.1968 4.51739 16.8397 4.9281 16.8397 5.33882C16.8397 5.74954 17.2504 6.57097 17.2504 6.98169C17.2504 7.3924 18.0718 9.03527 18.0718 9.44599C18.0718 9.85671 18.8932 10.6781 18.8932 11.0889C18.8932 11.4996 19.7147 13.1424 20.1254 13.5532C20.5361 13.9639 19.7147 15.196 19.304 15.6067C18.9754 15.9353 17.5242 16.0175 16.8397 16.0175H12.7325H8.2146H4.51814L3.28599 14.7853V12.7317Z" fill="#202020"/>
</svg>
