<svg width="22" height="22" viewBox="0 0 22 22" fill="none" xmlns="http://www.w3.org/2000/svg">
<rect x="0.240866" y="0.240866" width="21.518" height="21.5173" rx="7.94859" stroke="#B3B3B3" stroke-width="0.481733"/>
<path d="M15.0941 10.9985C15.0941 11.1796 15.0246 11.3546 14.8948 11.4813C14.7681 11.6111 14.593 11.6835 14.4119 11.6835H11.6832V14.4112C11.6832 14.5922 11.6108 14.7672 11.481 14.8939C11.3542 15.0207 11.1821 15.0931 11.001 15.0931C10.8199 15.0931 10.6448 15.0207 10.5181 14.8939C10.3883 14.7672 10.3158 14.5922 10.3158 14.4112V11.6835H7.58714C7.40603 11.6835 7.23096 11.6111 7.10419 11.4813C6.97741 11.3546 6.90497 11.1796 6.90497 10.9985C6.90497 10.8175 6.97741 10.6455 7.10419 10.5158C7.23096 10.389 7.40603 10.3166 7.58714 10.3166H10.3158V7.58893C10.3158 7.40789 10.3883 7.23288 10.5181 7.10615C10.6448 6.97641 10.8199 6.90399 11.001 6.90399C11.1821 6.90399 11.3542 6.97641 11.481 7.10615C11.6108 7.23288 11.6832 7.40789 11.6832 7.58893V10.3166H14.4119C14.593 10.3166 14.7681 10.389 14.8948 10.5158C15.0246 10.6455 15.0941 10.8175 15.0941 10.9985Z" fill="#B3B3B3"/>
</svg>
