<svg width="36" height="36" viewBox="0 0 36 36" fill="none" xmlns="http://www.w3.org/2000/svg">
<rect width="36" height="36" rx="9.47368" fill="#1A1A1A"/>
<rect x="9.42871" y="8.57153" width="13.7143" height="15.4286" rx="1.71429" fill="#F2994A"/>
<path d="M9.42871 22.2857C9.42871 22.2857 9.42871 22.2857 9.42871 22.2857C9.42871 21.3389 10.1962 20.5714 11.143 20.5714C11.143 20.5714 11.143 20.5714 11.143 20.5714H20.5716C21.3703 20.5714 21.7697 20.5714 22.0847 20.4409C22.5048 20.2669 22.8385 19.9332 23.0125 19.5132C23.143 19.1981 23.143 18.7988 23.143 18V20.5714C23.143 22.1877 23.143 22.9958 22.6409 23.4979C22.1388 24 21.3307 24 19.7144 24H11.143C11.143 24 11.143 24 11.143 24C10.1962 24 9.42871 23.2325 9.42871 22.2857C9.42871 22.2857 9.42871 22.2857 9.42871 22.2857Z" fill="white"/>
<path d="M14.1433 14.9999L15.7666 16.6233C15.8169 16.6735 15.8983 16.6735 15.9485 16.6233L19.2861 13.2856" stroke="white" stroke-width="1.02857"/>
</svg>
