<svg width="24" height="24" viewBox="0 0 24 24" fill="none" xmlns="http://www.w3.org/2000/svg">
<path fill-rule="evenodd" clip-rule="evenodd" d="M10.6901 7.84996C11.1935 7.09341 11.067 6.0823 10.3927 5.47312C9.71836 4.86394 8.69963 4.8404 7.99792 5.41779C7.2962 5.99517 7.1231 6.99935 7.59102 7.77835C8.05893 8.55735 9.02675 8.87624 9.86608 8.52796C10.2015 8.38801 10.4882 8.15215 10.6901 7.84996Z" stroke="#A7A7A7" stroke-width="1.5" stroke-linecap="round" stroke-linejoin="round"/>
<path fill-rule="evenodd" clip-rule="evenodd" d="M10.6901 18.1644C11.1935 17.4079 11.067 16.3968 10.3927 15.7876C9.71836 15.1784 8.69963 15.1549 7.99792 15.7322C7.2962 16.3096 7.1231 17.3138 7.59102 18.0928C8.05893 18.8718 9.02675 19.1907 9.86608 18.8424C10.2015 18.7025 10.4882 18.4666 10.6901 18.1644V18.1644Z" stroke="#A7A7A7" stroke-width="1.5" stroke-linecap="round" stroke-linejoin="round"/>
<path fill-rule="evenodd" clip-rule="evenodd" d="M13.3101 13.0062C12.8067 12.2497 12.9332 11.2386 13.6075 10.6294C14.2818 10.0202 15.3006 9.99665 16.0023 10.574C16.704 11.1514 16.8771 12.1556 16.4092 12.9346C15.9413 13.7136 14.9734 14.0325 14.1341 13.6842C13.7987 13.5443 13.512 13.3084 13.3101 13.0062V13.0062Z" stroke="#A7A7A7" stroke-width="1.5" stroke-linecap="round" stroke-linejoin="round"/>
<path d="M11 6.07617C10.5858 6.07617 10.25 6.41196 10.25 6.82617C10.25 7.24039 10.5858 7.57617 11 7.57617V6.07617ZM19 7.57617C19.4142 7.57617 19.75 7.24039 19.75 6.82617C19.75 6.41196 19.4142 6.07617 19 6.07617V7.57617ZM7.327 7.57617C7.74121 7.57617 8.077 7.24039 8.077 6.82617C8.077 6.41196 7.74121 6.07617 7.327 6.07617V7.57617ZM5 6.07617C4.58579 6.07617 4.25 6.41196 4.25 6.82617C4.25 7.24039 4.58579 7.57617 5 7.57617V6.07617ZM11 16.3922C10.5858 16.3922 10.25 16.728 10.25 17.1422C10.25 17.5564 10.5858 17.8922 11 17.8922V16.3922ZM19 17.8922C19.4142 17.8922 19.75 17.5564 19.75 17.1422C19.75 16.728 19.4142 16.3922 19 16.3922V17.8922ZM7.327 17.8922C7.74121 17.8922 8.077 17.5564 8.077 17.1422C8.077 16.728 7.74121 16.3922 7.327 16.3922V17.8922ZM5 16.3922C4.58579 16.3922 4.25 16.728 4.25 17.1422C4.25 17.5564 4.58579 17.8922 5 17.8922V16.3922ZM13 12.7342C13.4142 12.7342 13.75 12.3984 13.75 11.9842C13.75 11.57 13.4142 11.2342 13 11.2342V12.7342ZM5 11.2342C4.58579 11.2342 4.25 11.57 4.25 11.9842C4.25 12.3984 4.58579 12.7342 5 12.7342V11.2342ZM16.673 11.2342C16.2588 11.2342 15.923 11.57 15.923 11.9842C15.923 12.3984 16.2588 12.7342 16.673 12.7342V11.2342ZM19 12.7342C19.4142 12.7342 19.75 12.3984 19.75 11.9842C19.75 11.57 19.4142 11.2342 19 11.2342V12.7342ZM11 7.57617H19V6.07617H11V7.57617ZM7.327 6.07617H5V7.57617H7.327V6.07617ZM11 17.8922H19V16.3922H11V17.8922ZM7.327 16.3922H5V17.8922H7.327V16.3922ZM13 11.2342H5V12.7342H13V11.2342ZM16.673 12.7342H19V11.2342H16.673V12.7342Z" fill="#A7A7A7"/>
</svg>
