<svg width="81" height="13" viewBox="0 0 81 13" fill="none" xmlns="http://www.w3.org/2000/svg">
<path d="M6.44787 10.1681L2.46362 12.2632L3.22458 7.82651L0 4.6839L4.45477 4.03653L6.44787 0L8.44032 4.03653L12.8951 4.6839L9.67116 7.82651L10.4328 12.2632L6.44787 10.1681Z" fill="#F3603F"/>
<path d="M23.4732 10.1681L19.489 12.2632L20.25 7.82651L17.0254 4.6839L21.4802 4.03653L23.4732 0L25.4657 4.03653L29.9205 4.6839L26.6965 7.82651L27.4581 12.2632L23.4732 10.1681Z" fill="#F3603F"/>
<path d="M40.4996 10.1681L36.5154 12.2632L37.2763 7.82651L34.0517 4.6839L38.5065 4.03653L40.4996 0L42.4921 4.03653L46.9468 4.6839L43.7229 7.82651L44.4845 12.2632L40.4996 10.1681Z" fill="#F3603F"/>
<path d="M57.526 10.1681L53.5417 12.2632L54.3027 7.82651L51.0781 4.6839L55.5329 4.03653L57.526 0L59.5184 4.03653L63.9732 4.6839L60.7493 7.82651L61.5109 12.2632L57.526 10.1681Z" fill="#F3603F"/>
<path d="M74.5523 10.1681L70.5681 12.2632L71.329 7.82651L68.1045 4.6839L72.5592 4.03653L74.5523 0L76.5448 4.03653L80.9995 4.6839L77.7756 7.82651L78.5372 12.2632L74.5523 10.1681Z" fill="#F3603F"/>
</svg>
