<svg width="27" height="27" viewBox="0 0 27 27" fill="none" xmlns="http://www.w3.org/2000/svg">
<path fill-rule="evenodd" clip-rule="evenodd" d="M5.62598 5.62535C5.62598 5.32698 5.7445 5.04083 5.95549 4.82984C6.16647 4.61886 6.45262 4.50033 6.751 4.50033H20.2512C20.5496 4.50033 20.8358 4.61886 21.0467 4.82984C21.2577 5.04083 21.3763 5.32698 21.3763 5.62535V12.3755C22.2714 12.3755 23.1298 12.7311 23.7628 13.364C24.3957 13.9969 24.7513 14.8554 24.7513 15.7505V20.2506C24.7513 21.1457 24.3957 22.0042 23.7628 22.6371C23.1298 23.2701 22.2714 23.6257 21.3763 23.6257H5.62598C4.73085 23.6257 3.8724 23.2701 3.23945 22.6371C2.6065 22.0042 2.25092 21.1457 2.25092 20.2506V15.7505C2.25092 14.8554 2.6065 13.9969 3.23945 13.364C3.8724 12.7311 4.73085 12.3755 5.62598 12.3755V5.62535ZM5.62598 14.6255C5.3276 14.6255 5.04145 14.744 4.83047 14.955C4.61949 15.166 4.50096 15.4522 4.50096 15.7505V20.2506C4.50096 20.549 4.61949 20.8351 4.83047 21.0461C5.04145 21.2571 5.3276 21.3756 5.62598 21.3756H21.3763C21.6746 21.3756 21.9608 21.2571 22.1718 21.0461C22.3827 20.8351 22.5013 20.549 22.5013 20.2506V15.7505C22.5013 15.4522 22.3827 15.166 22.1718 14.955C21.9608 14.744 21.6746 14.6255 21.3763 14.6255V16.8756C21.3763 17.1739 21.2577 17.4601 21.0467 17.6711C20.8358 17.882 20.5496 18.0006 20.2512 18.0006H6.751C6.45262 18.0006 6.16647 17.882 5.95549 17.6711C5.7445 17.4601 5.62598 17.1739 5.62598 16.8756V14.6255ZM7.87602 6.75037V15.7505H19.1262V6.75037H7.87602Z" fill="#56F2D6"/>
<path d="M3.9718 15.088C3.9718 14.1351 5.29528 14.1615 5.95703 14.2939C6.08938 14.5586 6.4335 15.3261 6.75113 16.2785C6.75113 16.9137 7.01583 17.0726 7.14818 17.0726H8.33932C8.73636 17.205 9.60987 17.4697 9.9275 17.4697H13.1039H16.2802C17.2332 17.4697 18.5302 17.205 19.0596 17.0726C19.589 16.6756 20.6478 15.8021 20.6478 15.4846V13.8964C21.0448 13.764 21.9183 13.5787 22.2359 13.8964C22.633 14.2934 23.03 14.6905 23.4271 15.4846C23.8241 16.2787 23.4271 16.6757 23.4271 17.8668V19.8521V21.8373C23.4271 22.4726 22.633 22.3667 22.2359 22.2344C21.5742 22.3667 19.9331 22.6314 18.6625 22.6314H14.295H9.9275H6.75113C5.95704 22.6314 4.76589 22.2344 3.9718 21.8373C3.1777 21.4403 3.9718 19.455 3.9718 18.6609V15.088Z" fill="#56F2D6"/>
<rect x="9.52865" y="6.35276" width="2.38228" height="10.3232" fill="#56F2D6"/>
<rect x="15.0874" y="6.35276" width="2.38228" height="10.3232" fill="#56F2D6"/>
</svg>
