<svg width="26" height="26" viewBox="0 0 26 26" fill="none" xmlns="http://www.w3.org/2000/svg">
<path fill-rule="evenodd" clip-rule="evenodd" d="M7.34568 7.33599C7.4012 7.09778 7.5357 6.88538 7.72728 6.73333C7.91887 6.58128 8.15627 6.49853 8.40086 6.49856H17.6006C17.8452 6.49853 18.0826 6.58128 18.2742 6.73333C18.4658 6.88538 18.6003 7.09778 18.6558 7.33599L19.2191 9.7486H6.78234L7.34568 7.33599V7.33599ZM2.16729 11.9153H3.25063C2.57029 12.821 2.16729 13.9455 2.16729 15.1653V16.2487C2.16729 17.6635 3.07188 18.8682 4.33398 19.3145V21.6654C4.33398 21.9527 4.44812 22.2283 4.65129 22.4314C4.85445 22.6346 5.13 22.7487 5.41733 22.7487H6.50067C6.78799 22.7487 7.06355 22.6346 7.26671 22.4314C7.46988 22.2283 7.58402 21.9527 7.58402 21.6654V19.4987H18.4175V21.6654C18.4175 21.9527 18.5316 22.2283 18.7348 22.4314C18.9379 22.6346 19.2135 22.7487 19.5008 22.7487H20.5842C20.8715 22.7487 21.147 22.6346 21.3502 22.4314C21.5534 22.2283 21.6675 21.9527 21.6675 21.6654V19.3145C22.3013 19.0903 22.8501 18.675 23.2381 18.1259C23.6261 17.5769 23.8344 16.921 23.8342 16.2487V15.1653C23.8359 13.993 23.4556 12.8521 22.7509 11.9153H23.8342C24.1215 11.9153 24.3971 11.8012 24.6002 11.598C24.8034 11.3948 24.9175 11.1193 24.9175 10.8319C24.9175 10.5446 24.8034 10.2691 24.6002 10.0659C24.3971 9.86274 24.1215 9.7486 23.8342 9.7486H22.7509C22.4816 9.7487 22.2221 9.84906 22.0228 10.0301C21.8235 10.2112 21.6988 10.4599 21.6729 10.7279L21.6393 10.586L20.7662 6.84306C20.5994 6.12865 20.1958 5.49168 19.6211 5.03574C19.0463 4.57981 18.3343 4.33173 17.6006 4.33187H8.40086C7.66724 4.33173 6.95515 4.57981 6.38041 5.03574C5.80568 5.49168 5.4021 6.12865 5.23532 6.84306L4.36215 10.586L4.32965 10.7279C4.30378 10.4598 4.17891 10.2108 3.9794 10.0297C3.77989 9.84867 3.52007 9.74843 3.25063 9.7486H2.16729C1.87997 9.7486 1.60441 9.86274 1.40125 10.0659C1.19808 10.2691 1.08394 10.5446 1.08394 10.8319C1.08394 11.1193 1.19808 11.3948 1.40125 11.598C1.60441 11.8012 1.87997 11.9153 2.16729 11.9153V11.9153ZM7.58402 11.9153C6.72205 11.9153 5.89539 12.2577 5.28589 12.8672C4.67639 13.4767 4.33398 14.3034 4.33398 15.1653V16.2487C4.33398 16.536 4.44812 16.8115 4.65129 17.0147C4.85445 17.2179 5.13 17.332 5.41733 17.332H20.5842C20.8715 17.332 21.147 17.2179 21.3502 17.0147C21.5534 16.8115 21.6675 16.536 21.6675 16.2487V15.1653C21.6675 14.3034 21.3251 13.4767 20.7156 12.8672C20.1061 12.2577 19.2794 11.9153 18.4175 11.9153H7.58402ZM6.50067 14.6237C6.50067 14.1927 6.67188 13.7793 6.97663 13.4746C7.28138 13.1698 7.69471 12.9986 8.12569 12.9986C8.55667 12.9986 8.97 13.1698 9.27475 13.4746C9.5795 13.7793 9.75071 14.1927 9.75071 14.6237C9.75071 15.0546 9.5795 15.468 9.27475 15.7727C8.97 16.0775 8.55667 16.2487 8.12569 16.2487C7.69471 16.2487 7.28138 16.0775 6.97663 15.7727C6.67188 15.468 6.50067 15.0546 6.50067 14.6237ZM17.8758 12.9986C17.4448 12.9986 17.0315 13.1698 16.7267 13.4746C16.422 13.7793 16.2508 14.1927 16.2508 14.6237C16.2508 15.0546 16.422 15.468 16.7267 15.7727C17.0315 16.0775 17.4448 16.2487 17.8758 16.2487C18.3068 16.2487 18.7201 16.0775 19.0249 15.7727C19.3296 15.468 19.5008 15.0546 19.5008 14.6237C19.5008 14.1927 19.3296 13.7793 19.0249 13.4746C18.7201 13.1698 18.3068 12.9986 17.8758 12.9986Z" fill="#202020"/>
<path d="M3.7147 14.3931L5.57187 11.143L6.50045 9.28585V6.96439C6.80998 6.65487 7.52189 6.03581 7.89332 6.03581C8.35761 6.03581 9.75049 5.57152 10.2148 5.57152C10.6791 5.57152 12.5362 5.10723 13.4648 5.10723H16.7149C17.1791 5.10723 19.0363 5.57152 19.0363 6.03581C19.0363 6.5001 19.5006 7.42869 19.5006 7.89298C19.5006 8.35727 20.4292 10.2144 20.4292 10.6787C20.4292 11.143 21.3578 12.0716 21.3578 12.5359C21.3578 13.0002 22.2863 14.8573 22.7506 15.3216C23.2149 15.7859 22.2863 17.1788 21.8221 17.6431C21.4506 18.0145 19.8101 18.1074 19.0363 18.1074H14.3934H9.2862H5.10758L3.7147 16.7145V14.3931Z" fill="#202020"/>
</svg>
