<svg width="15" height="17" viewBox="0 0 15 17" fill="none" xmlns="http://www.w3.org/2000/svg">
<path d="M11.0246 2.24916C10.2882 0.873564 8.98032 0.0331561 7.5259 0.00103893C7.46381 -0.000346311 7.40132 -0.000346311 7.33921 0.00103893C5.88481 0.0331561 4.5769 0.873564 3.84053 2.24916C3.08785 3.65524 3.06726 5.34421 3.78543 6.76719L6.79412 12.7285C6.79547 12.7312 6.79682 12.7338 6.79822 12.7364C6.93059 12.9855 7.16773 13.1342 7.4326 13.1342C7.69744 13.1342 7.93458 12.9855 8.06693 12.7364C8.06833 12.7338 8.06968 12.7312 8.07103 12.7285L11.0797 6.76719C11.7978 5.34421 11.7772 3.65524 11.0246 2.24916V2.24916ZM7.43255 5.95143C6.49174 5.95143 5.72634 5.12288 5.72634 4.10444C5.72634 3.086 6.49174 2.25745 7.43255 2.25745C8.37336 2.25745 9.13876 3.086 9.13876 4.10444C9.13876 5.12288 8.37338 5.95143 7.43255 5.95143Z" fill="#F3603F"/>
<ellipse cx="7.50017" cy="16.3048" rx="7.50017" ry="0.652189" fill="#F3603F"/>
</svg>
