<svg width="17" height="20" viewBox="0 0 17 20" fill="none" xmlns="http://www.w3.org/2000/svg">
<path d="M12.4938 2.54899C11.6593 0.990016 10.177 0.037576 8.5287 0.00117743C8.45833 -0.000392477 8.38751 -0.000392477 8.31712 0.00117743C6.66884 0.037576 5.18658 0.990016 4.35204 2.54899C3.49903 4.14251 3.47569 6.05663 4.2896 7.66931L7.69937 14.4253C7.7009 14.4283 7.70243 14.4313 7.70402 14.4343C7.85404 14.7166 8.12279 14.8851 8.42296 14.8851C8.72311 14.8851 8.99186 14.7165 9.14185 14.4343C9.14344 14.4313 9.14497 14.4283 9.1465 14.4253L12.5563 7.66931C13.3701 6.05663 13.3468 4.14251 12.4938 2.54899ZM8.42291 6.74481C7.35668 6.74481 6.48925 5.8058 6.48925 4.65159C6.48925 3.49739 7.35668 2.55838 8.42291 2.55838C9.48913 2.55838 10.3566 3.49739 10.3566 4.65159C10.3566 5.8058 9.48916 6.74481 8.42291 6.74481Z" fill="#393939"/>
<ellipse cx="8.5" cy="18.4784" rx="8.5" ry="0.73913" fill="#393939"/>
</svg>
