<svg width="49" height="49" viewBox="0 0 49 49" fill="none" xmlns="http://www.w3.org/2000/svg">
<path fill-rule="evenodd" clip-rule="evenodd" d="M26.4897 13.4855C27.245 13.1578 27.8392 12.5435 28.1416 11.7777C28.444 11.0119 28.4297 10.1574 28.1021 9.40211C27.7744 8.64681 27.1601 8.05262 26.3943 7.75024C25.6285 7.44787 24.774 7.46209 24.0187 7.78977C23.2634 8.11745 22.6692 8.73175 22.3668 9.49753C22.0644 10.2633 22.0787 11.1179 22.4063 11.8732C22.734 12.6285 23.3483 13.2227 24.1141 13.525C24.8799 13.8274 25.7344 13.8132 26.4897 13.4855ZM22.2736 14.5194C22.5306 14.4769 22.7941 14.4998 23.04 14.586C23.2858 14.6721 23.506 14.8187 23.6802 15.0123C24.2748 15.6731 24.93 16.1925 25.6228 16.5687C27.5297 17.6026 29.8984 17.6375 32.3899 16.0253C32.5609 15.9072 32.7538 15.8247 32.9573 15.7826C33.1608 15.7405 33.3706 15.7397 33.5744 15.7802C33.7782 15.8206 33.9717 15.9016 34.1436 16.0183C34.3155 16.135 34.4623 16.2851 34.5751 16.4595C34.688 16.634 34.7646 16.8293 34.8006 17.0339C34.8365 17.2386 34.831 17.4484 34.7844 17.6508C34.7378 17.8533 34.651 18.0443 34.5292 18.2127C34.4074 18.381 34.253 18.5231 34.0752 18.6306C31.2536 20.4571 28.2853 20.8261 25.6468 19.9507L23.2523 25.0197L26.7087 26.657C27.0489 26.8179 27.3191 27.097 27.4689 27.4422L30.2488 33.8499C30.4127 34.2276 30.4198 34.6548 30.2686 35.0377C30.1174 35.4206 29.8203 35.7278 29.4426 35.8916C29.065 36.0554 28.6377 36.0626 28.2548 35.9114C27.8719 35.7602 27.5648 35.4631 27.401 35.0854L24.8533 29.2131L20.5281 27.1643L20.4346 27.1203C19.9279 26.8883 19.0815 26.4975 18.5076 25.8532C18.1559 25.4559 17.8758 24.9429 17.7949 24.308C17.7143 23.6932 17.8376 23.0882 18.068 22.5196L18.0799 22.4924L21.0995 15.44C21.2021 15.2002 21.3635 14.9902 21.5687 14.8294C21.7739 14.6685 22.0163 14.5619 22.2736 14.5194ZM13.35 37.7974C12.8585 36.6645 12.8372 35.3827 13.2907 34.234C13.7443 33.0853 14.6356 32.1639 15.7686 31.6723C16.9015 31.1808 18.1833 31.1595 19.332 31.613C20.4807 32.0666 21.4021 32.9579 21.8936 34.0908C22.3852 35.2238 22.4065 36.5056 21.9529 37.6543C21.4994 38.803 20.6081 39.7244 19.4751 40.2159C18.3422 40.7075 17.0604 40.7288 15.9117 40.2752C14.763 39.8217 13.8416 38.9304 13.35 37.7974ZM14.533 28.8245C12.6448 29.6437 11.1593 31.1794 10.4034 33.0939C9.64743 35.0083 9.68297 37.1447 10.5022 39.0329C11.3214 40.9212 12.8571 42.4067 14.7716 43.1626C16.686 43.9185 18.8224 43.883 20.7106 43.0638C22.5989 42.2446 24.0844 40.7088 24.8403 38.7944C25.5962 36.8799 25.5607 34.7436 24.7415 32.8553C23.9223 30.9671 22.3865 29.4816 20.4721 28.7257C18.5576 27.9697 16.4213 28.0053 14.533 28.8245ZM33.2851 29.1488C32.7936 28.0158 32.7722 26.734 33.2258 25.5853C33.6794 24.4367 34.5707 23.5152 35.7036 23.0237C36.8366 22.5322 38.1184 22.5108 39.267 22.9644C40.4157 23.4179 41.3372 24.3092 41.8287 25.4422C42.3202 26.5751 42.3415 27.8569 41.888 29.0056C41.4344 30.1543 40.5431 31.0758 39.4102 31.5673C38.2772 32.0588 36.9954 32.0801 35.8467 31.6266C34.6981 31.173 33.7766 30.2817 33.2851 29.1488ZM34.4681 20.1758C32.5798 20.995 31.0943 22.5308 30.3384 24.4452C29.5825 26.3597 29.618 28.496 30.4372 30.3843C31.2564 32.2725 32.7922 33.758 34.7066 34.514C36.6211 35.2699 38.7574 35.2343 40.6457 34.4151C42.534 33.5959 44.0194 32.0602 44.7754 30.1457C45.5313 28.2313 45.4958 26.0949 44.6766 24.2067C43.8574 22.3184 42.3216 20.8329 40.4071 20.077C38.4927 19.3211 36.3563 19.3566 34.4681 20.1758Z" fill="#219653"/>
</svg>
