<svg width="28" height="28" viewBox="0 0 28 28" fill="none" xmlns="http://www.w3.org/2000/svg">
<path fill-rule="evenodd" clip-rule="evenodd" d="M21.4592 6.69767L15.3784 4.09159C14.498 3.71426 13.5014 3.71426 12.621 4.09159L6.5401 6.69767C6.11114 6.88151 5.83301 7.3033 5.83301 7.77V13.8984C5.83301 16.159 6.92477 18.2805 8.76434 19.5945L12.6435 22.3653C13.4547 22.9448 14.5446 22.9448 15.3559 22.3653L19.235 19.5945C21.0746 18.2805 22.1663 16.159 22.1663 13.8984V7.77C22.1663 7.3033 21.8882 6.88151 21.4592 6.69767ZM18.4108 11.2298C18.8133 10.7266 18.7317 9.99247 18.2286 9.58996C17.7254 9.18745 16.9913 9.26903 16.5887 9.77217L12.7364 14.5877L11.3247 13.176C10.8691 12.7204 10.1304 12.7204 9.6748 13.176C9.21919 13.6316 9.21919 14.3703 9.6748 14.8259L11.5473 16.6984C12.2848 17.4359 13.4997 17.3687 14.1512 16.5542L18.4108 11.2298Z" fill="#828282"/>
</svg>
