<svg width="25" height="25" viewBox="0 0 25 25" fill="none" xmlns="http://www.w3.org/2000/svg">
<path fill-rule="evenodd" clip-rule="evenodd" d="M7.06222 7.05635C7.1156 6.82732 7.24492 6.62308 7.42913 6.47689C7.61335 6.33069 7.84161 6.25113 8.07679 6.25116H16.9225C17.1577 6.25113 17.386 6.33069 17.5702 6.47689C17.7544 6.62308 17.8837 6.82732 17.9371 7.05635L18.4787 9.37612H6.52056L7.06222 7.05635V7.05635ZM2.08311 11.4594H3.12476C2.47061 12.3303 2.08311 13.4115 2.08311 14.5844V15.626C2.08311 16.9864 2.95289 18.1448 4.16642 18.5739V20.8343C4.16642 21.1106 4.27616 21.3755 4.47151 21.5709C4.66686 21.7662 4.93181 21.876 5.20807 21.876H6.24973C6.52599 21.876 6.79094 21.7662 6.98629 21.5709C7.18164 21.3755 7.29138 21.1106 7.29138 20.8343V18.751H17.7079V20.8343C17.7079 21.1106 17.8177 21.3755 18.013 21.5709C18.2084 21.7662 18.4733 21.876 18.7496 21.876H19.7912C20.0675 21.876 20.3324 21.7662 20.5278 21.5709C20.7231 21.3755 20.8329 21.1106 20.8329 20.8343V18.5739C21.4423 18.3583 21.9699 17.959 22.343 17.4311C22.7161 16.9031 22.9164 16.2725 22.9162 15.626V14.5844C22.9179 13.4572 22.5522 12.3602 21.8745 11.4594H22.9162C23.1925 11.4594 23.4574 11.3497 23.6528 11.1543C23.8481 10.959 23.9578 10.694 23.9578 10.4178C23.9578 10.1415 23.8481 9.87656 23.6528 9.68121C23.4574 9.48586 23.1925 9.37612 22.9162 9.37612H21.8745C21.6157 9.37622 21.3661 9.47271 21.1745 9.6468C20.9829 9.82089 20.8629 10.0601 20.8381 10.3178L20.8058 10.1813L19.9662 6.5824C19.8059 5.89548 19.4178 5.28302 18.8652 4.84463C18.3126 4.40624 17.6279 4.16772 16.9225 4.16785H8.07679C7.3714 4.16772 6.68672 4.40624 6.1341 4.84463C5.58148 5.28302 5.19343 5.89548 5.03307 6.5824L4.1935 10.1813L4.16225 10.3178C4.13738 10.0599 4.01731 9.82056 3.82548 9.64645C3.63365 9.47234 3.38383 9.37596 3.12476 9.37612H2.08311C1.80685 9.37612 1.5419 9.48586 1.34655 9.68121C1.1512 9.87656 1.04146 10.1415 1.04146 10.4178C1.04146 10.694 1.1512 10.959 1.34655 11.1543C1.5419 11.3497 1.80685 11.4594 2.08311 11.4594V11.4594ZM7.29138 11.4594C6.46259 11.4594 5.66774 11.7887 5.0817 12.3747C4.49566 12.9608 4.16642 13.7556 4.16642 14.5844V15.626C4.16642 15.9023 4.27616 16.1673 4.47151 16.3626C4.66686 16.558 4.93181 16.6677 5.20807 16.6677H19.7912C20.0675 16.6677 20.3324 16.558 20.5278 16.3626C20.7231 16.1673 20.8329 15.9023 20.8329 15.626V14.5844C20.8329 13.7556 20.5037 12.9608 19.9176 12.3747C19.3316 11.7887 18.5367 11.4594 17.7079 11.4594H7.29138ZM6.24973 14.0636C6.24973 13.6492 6.41435 13.2517 6.70737 12.9587C7.00039 12.6657 7.39781 12.5011 7.81221 12.5011C8.2266 12.5011 8.62403 12.6657 8.91705 12.9587C9.21007 13.2517 9.37469 13.6492 9.37469 14.0636C9.37469 14.478 9.21007 14.8754 8.91705 15.1684C8.62403 15.4614 8.2266 15.626 7.81221 15.626C7.39781 15.626 7.00039 15.4614 6.70737 15.1684C6.41435 14.8754 6.24973 14.478 6.24973 14.0636ZM17.1871 12.5011C16.7727 12.5011 16.3753 12.6657 16.0823 12.9587C15.7892 13.2517 15.6246 13.6492 15.6246 14.0636C15.6246 14.478 15.7892 14.8754 16.0823 15.1684C16.3753 15.4614 16.7727 15.626 17.1871 15.626C17.6015 15.626 17.9989 15.4614 18.2919 15.1684C18.585 14.8754 18.7496 14.478 18.7496 14.0636C18.7496 13.6492 18.585 13.2517 18.2919 12.9587C17.9989 12.6657 17.6015 12.5011 17.1871 12.5011Z" fill="#202020"/>
<path d="M3.84631 14.903L5.76927 11.5378L6.73075 9.61483V7.21113C7.05124 6.89064 7.78838 6.24965 8.17297 6.24965C8.65371 6.24965 10.0959 5.76891 10.5767 5.76891C11.0574 5.76891 12.9804 5.28817 13.9418 5.28817H17.307C17.7878 5.28817 19.7107 5.76891 19.7107 6.24965C19.7107 6.73039 20.1915 7.69187 20.1915 8.17261C20.1915 8.65335 21.1529 10.5763 21.1529 11.057C21.1529 11.5378 22.1144 12.4993 22.1144 12.98C22.1144 13.4607 23.0759 15.3837 23.5566 15.8644C24.0374 16.3452 23.0759 17.7874 22.5952 18.2681C22.2106 18.6527 20.512 18.7489 19.7107 18.7489H14.9033H9.61519H5.28853L3.84631 17.3067V14.903Z" fill="#202020"/>
</svg>
