<svg width="31" height="27" viewBox="0 0 31 27" fill="none" xmlns="http://www.w3.org/2000/svg">
<path d="M3.97064 15.1127L14.4245 24.9331C14.7846 25.2713 14.9647 25.4405 15.177 25.4821C15.2726 25.5009 15.3709 25.5009 15.4665 25.4821C15.6788 25.4405 15.8588 25.2713 16.2189 24.9331L26.6728 15.1127C29.6141 12.3497 29.9713 7.80288 27.4975 4.61447L27.0324 4.01496C24.073 0.200707 18.1329 0.840381 16.0535 5.19724C15.7597 5.81267 14.8837 5.81267 14.59 5.19724C12.5106 0.840381 6.57042 0.200705 3.61109 4.01496L3.14595 4.61447C0.672183 7.80288 1.02936 12.3497 3.97064 15.1127Z" fill="#EB455B" stroke="#EB455B" stroke-width="3"/>
</svg>
