<svg width="24" height="24" viewBox="0 0 24 24" fill="none" xmlns="http://www.w3.org/2000/svg">
<path fill-rule="evenodd" clip-rule="evenodd" d="M13 6C13 5.46957 13.2107 4.96086 13.5858 4.58579C13.9609 4.21071 14.4696 4 15 4H18C18.5304 4 19.0391 4.21071 19.4142 4.58579C19.7893 4.96086 20 5.46957 20 6V9C20 9.53043 19.7893 10.0391 19.4142 10.4142C19.0391 10.7893 18.5304 11 18 11H15C14.4696 11 13.9609 10.7893 13.5858 10.4142C13.2107 10.0391 13 9.53043 13 9V6ZM18 6H15V9H18V6ZM6 13C5.46957 13 4.96086 13.2107 4.58579 13.5858C4.21071 13.9609 4 14.4696 4 15V18C4 18.5304 4.21071 19.0391 4.58579 19.4142C4.96086 19.7893 5.46957 20 6 20H9C9.53043 20 10.0391 19.7893 10.4142 19.4142C10.7893 19.0391 11 18.5304 11 18V15C11 14.4696 10.7893 13.9609 10.4142 13.5858C10.0391 13.2107 9.53043 13 9 13H6ZM6 15H9V18H6V15ZM15 13C14.4696 13 13.9609 13.2107 13.5858 13.5858C13.2107 13.9609 13 14.4696 13 15V18C13 18.5304 13.2107 19.0391 13.5858 19.4142C13.9609 19.7893 14.4696 20 15 20H18C18.5304 20 19.0391 19.7893 19.4142 19.4142C19.7893 19.0391 20 18.5304 20 18V15C20 14.4696 19.7893 13.9609 19.4142 13.5858C19.0391 13.2107 18.5304 13 18 13H15ZM15 15H18V18H15V15ZM6 4C5.46957 4 4.96086 4.21071 4.58579 4.58579C4.21071 4.96086 4 5.46957 4 6V9C4 9.53043 4.21071 10.0391 4.58579 10.4142C4.96086 10.7893 5.46957 11 6 11H9C9.53043 11 10.0391 10.7893 10.4142 10.4142C10.7893 10.0391 11 9.53043 11 9V6C11 5.46957 10.7893 4.96086 10.4142 4.58579C10.0391 4.21071 9.53043 4 9 4H6ZM6 6H9V9H6V6Z" fill="black"/>
</svg>
