<svg width="13" height="21" viewBox="0 0 13 21" fill="none" xmlns="http://www.w3.org/2000/svg">
<path d="M12.0974 3.50472C10.95 1.36121 8.91195 0.0516648 6.64562 0.0016189C6.54887 -0.000539633 6.4515 -0.000539633 6.35472 0.0016189C4.08842 0.0516648 2.0504 1.36121 0.902966 3.50472C-0.269877 5.6957 -0.301965 8.32751 0.817113 10.5448L5.50534 19.834C5.50745 19.8381 5.50955 19.8422 5.51173 19.8463C5.718 20.2344 6.08752 20.4661 6.50024 20.4661C6.91293 20.4661 7.28244 20.2344 7.48867 19.8463C7.49085 19.8422 7.49296 19.8381 7.49506 19.834L12.1833 10.5448C13.3023 8.32751 13.2702 5.6957 12.0974 3.50472V3.50472ZM6.50017 9.27371C5.03417 9.27371 3.8415 7.98263 3.8415 6.39567C3.8415 4.80871 5.03417 3.51763 6.50017 3.51763C7.96616 3.51763 9.15884 4.80871 9.15884 6.39567C9.15884 7.98263 7.9662 9.27371 6.50017 9.27371Z" fill="#131313"/>
</svg>
