<svg width="162" height="162" viewBox="0 0 162 162" fill="none" xmlns="http://www.w3.org/2000/svg">
<path d="M10.5175 54.9835C13.9341 45.7276 19.1402 37.2354 25.8387 29.9916C32.5373 22.7478 40.597 16.8942 49.5577 12.7652C58.5184 8.63624 68.2047 6.31262 78.0634 5.92704C87.9221 5.54146 97.7602 7.10148 107.016 10.518C116.272 13.9346 124.764 19.1407 132.008 25.8392C139.252 32.5378 145.105 40.5975 149.234 49.5582C153.363 58.5189 155.687 68.2052 156.072 78.0639C156.458 87.9226 154.898 97.7607 151.482 107.017C148.065 116.272 142.859 124.765 136.16 132.008C129.462 139.252 121.402 145.106 112.441 149.235C103.481 153.364 93.7944 155.687 83.9356 156.073C74.0769 156.459 64.2388 154.899 54.9829 151.482C45.7271 148.065 37.2349 142.859 29.9911 136.161C22.7472 129.462 16.8937 121.403 12.7647 112.442C8.63574 103.481 6.31212 93.7948 5.92655 83.9361C5.54097 74.0774 7.101 64.2393 10.5175 54.9834L10.5175 54.9835Z" stroke="#E7465C" stroke-opacity="0.1" stroke-width="11.7371" stroke-linecap="round"/>
<path d="M87.888 6.18702C104.357 7.7033 119.866 14.6115 132.008 25.8402C144.151 37.0689 152.25 51.9906 155.047 68.291" stroke="#EB455B" stroke-width="11.7371" stroke-linecap="round"/>
<circle cx="80.9412" cy="80.9436" r="45.3913" fill="#EFE0E3"/>
<path d="M61.068 88.7059L79.3702 105.899C80.0006 106.491 80.3159 106.787 80.6875 106.86C80.8549 106.893 81.0271 106.893 81.1944 106.86C81.5661 106.787 81.8813 106.491 82.5118 105.899L100.814 88.7059C105.963 83.8685 106.589 75.9081 102.258 70.3259L101.443 69.2763C96.2624 62.5985 85.8626 63.7184 82.2221 71.3462C81.7078 72.4237 80.1741 72.4237 79.6599 71.3462C76.0193 63.7184 65.6196 62.5985 60.4385 69.2763L59.6241 70.3259C55.2932 75.9081 55.9185 83.8685 61.068 88.7059Z" fill="#EB455B" stroke="#EB455B" stroke-width="5.26395"/>
</svg>
