<svg width="90" height="14" viewBox="0 0 90 14" fill="none" xmlns="http://www.w3.org/2000/svg">
<path d="M7.16435 11.298L2.73737 13.6259L3.58289 8.69619L0 5.20438L4.94979 4.48507L7.16435 0L9.3782 4.48507L14.328 5.20438L10.7458 8.69619L11.5921 13.6259L7.16435 11.298Z" fill="#F3603F"/>
<path d="M26.0823 11.298L21.6553 13.6259L22.5009 8.69619L18.918 5.20438L23.8678 4.48507L26.0823 0L28.2962 4.48507L33.246 5.20438L29.6638 8.69619L30.51 13.6259L26.0823 11.298Z" fill="#F3603F"/>
<path d="M45.0003 11.298L40.5733 13.6259L41.4188 8.69619L37.8359 5.20438L42.7857 4.48507L45.0003 0L47.2141 4.48507L52.1639 5.20438L48.5817 8.69619L49.428 13.6259L45.0003 11.298Z" fill="#F3603F"/>
<path d="M63.9183 11.298L59.4913 13.6259L60.3368 8.69619L56.7539 5.20438L61.7037 4.48507L63.9183 0L66.1321 4.48507L71.0819 5.20438L67.4997 8.69619L68.346 13.6259L63.9183 11.298Z" fill="#F3603F"/>
<path d="M82.8362 11.298L78.4092 13.6259L79.2548 8.69619L75.6719 5.20438L80.6217 4.48507L82.8362 0L85.0501 4.48507L89.9999 5.20438L86.4177 8.69619L87.2639 13.6259L82.8362 11.298Z" fill="#F3603F"/>
</svg>
