<svg width="36" height="36" viewBox="0 0 36 36" fill="none" xmlns="http://www.w3.org/2000/svg">
<rect width="36" height="36" rx="9.47368" fill="#1A1A1A"/>
<path d="M9.76438 21.0817L17.349 28.2067C17.5097 28.3576 17.5901 28.4331 17.6743 28.4774C17.8782 28.5846 18.1218 28.5846 18.3257 28.4774C18.4099 28.4331 18.4903 28.3576 18.651 28.2067L26.2356 21.0817C28.3696 19.077 28.6288 15.7781 26.834 13.4648L26.4965 13.0298C24.3494 10.2625 20.0396 10.7266 18.5309 13.8876C18.3178 14.3341 17.6822 14.3341 17.4691 13.8876C15.9604 10.7266 11.6506 10.2625 9.5035 13.0298L9.16602 13.4648C7.37122 15.7781 7.63037 19.077 9.76438 21.0817Z" fill="#EB455B" stroke="#EB455B" stroke-width="2.8"/>
</svg>
