<svg width="56" height="56" viewBox="0 0 56 56" fill="none" xmlns="http://www.w3.org/2000/svg">
<g filter="url(#filter0_d_23_4183)">
<circle cx="27.9995" cy="22.815" r="17.6294" fill="white"/>
</g>
<path d="M27.9995 51.5257L22.4588 36.4148L33.5402 36.4148L27.9995 51.5257Z" fill="white"/>
<path fill-rule="evenodd" clip-rule="evenodd" d="M32.197 17.7777C32.6868 17.7777 33.1566 17.5831 33.5029 17.2367C33.8493 16.8904 34.0439 16.4206 34.0439 15.9308C34.0439 15.4409 33.8493 14.9712 33.5029 14.6248C33.1566 14.2785 32.6868 14.0839 32.197 14.0839C31.7072 14.0839 31.2374 14.2785 30.891 14.6248C30.5447 14.9712 30.3501 15.4409 30.3501 15.9308C30.3501 16.4206 30.5447 16.8904 30.891 17.2367C31.2374 17.5831 31.7072 17.7777 32.197 17.7777ZM29.6511 17.3436C29.8014 17.3813 29.9398 17.4562 30.0536 17.5614C30.1673 17.6666 30.2528 17.7988 30.3021 17.9457C30.4701 18.4472 30.7047 18.8858 30.9937 19.2552C31.7898 20.271 33.0743 20.8509 34.8159 20.5609C34.9372 20.537 35.062 20.5376 35.183 20.5628C35.304 20.588 35.4188 20.6372 35.5204 20.7076C35.622 20.778 35.7085 20.868 35.7747 20.9724C35.8409 21.0768 35.8854 21.1934 35.9057 21.3154C35.926 21.4373 35.9216 21.5621 35.8928 21.6823C35.8639 21.8025 35.8113 21.9157 35.7379 22.0151C35.6645 22.1146 35.5719 22.1983 35.4655 22.2613C35.3592 22.3243 35.2413 22.3654 35.1188 22.382C33.1463 22.7107 31.4388 22.2093 30.206 21.1067L27.6989 23.3063L29.1976 25.0184C29.3452 25.1868 29.4266 25.403 29.4267 25.6269V29.7825C29.4267 30.0274 29.3294 30.2623 29.1562 30.4354C28.983 30.6086 28.7481 30.7059 28.5032 30.7059C28.2583 30.7059 28.0234 30.6086 27.8502 30.4354C27.6771 30.2623 27.5798 30.0274 27.5798 29.7825V25.9742L25.7042 23.8318L25.6636 23.7856C25.442 23.539 25.0726 23.1253 24.9119 22.6378C24.814 22.3376 24.7826 21.9913 24.8888 21.6257C24.9904 21.2711 25.201 20.97 25.4614 20.7142L25.4743 20.7022L28.7922 17.568C28.905 17.4615 29.0428 17.3851 29.1929 17.3459C29.343 17.3067 29.5006 17.3059 29.6511 17.3436V17.3436ZM19.2687 27.9356C19.2687 27.2008 19.5606 26.4962 20.0802 25.9766C20.5997 25.4571 21.3043 25.1652 22.0391 25.1652C22.7738 25.1652 23.4785 25.4571 23.998 25.9766C24.5175 26.4962 24.8094 27.2008 24.8094 27.9356C24.8094 28.6703 24.5175 29.3749 23.998 29.8945C23.4785 30.414 22.7738 30.7059 22.0391 30.7059C21.3043 30.7059 20.5997 30.414 20.0802 29.8945C19.5606 29.3749 19.2687 28.6703 19.2687 27.9356ZM22.0391 23.3183C20.8145 23.3183 19.6401 23.8048 18.7742 24.6707C17.9083 25.5366 17.4219 26.711 17.4219 27.9356C17.4219 29.1601 17.9083 30.3345 18.7742 31.2004C19.6401 32.0663 20.8145 32.5528 22.0391 32.5528C23.2636 32.5528 24.4381 32.0663 25.304 31.2004C26.1699 30.3345 26.6563 29.1601 26.6563 27.9356C26.6563 26.711 26.1699 25.5366 25.304 24.6707C24.4381 23.8048 23.2636 23.3183 22.0391 23.3183ZM32.197 27.9356C32.197 27.2008 32.4889 26.4962 33.0084 25.9766C33.5279 25.4571 34.2326 25.1652 34.9673 25.1652C35.7021 25.1652 36.4067 25.4571 36.9263 25.9766C37.4458 26.4962 37.7377 27.2008 37.7377 27.9356C37.7377 28.6703 37.4458 29.3749 36.9263 29.8945C36.4067 30.414 35.7021 30.7059 34.9673 30.7059C34.2326 30.7059 33.5279 30.414 33.0084 29.8945C32.4889 29.3749 32.197 28.6703 32.197 27.9356V27.9356ZM34.9673 23.3183C33.7428 23.3183 32.5684 23.8048 31.7025 24.6707C30.8366 25.5366 30.3501 26.711 30.3501 27.9356C30.3501 29.1601 30.8366 30.3345 31.7025 31.2004C32.5684 32.0663 33.7428 32.5528 34.9673 32.5528C36.1919 32.5528 37.3663 32.0663 38.2322 31.2004C39.0981 30.3345 39.5846 29.1601 39.5846 27.9356C39.5846 26.711 39.0981 25.5366 38.2322 24.6707C37.3663 23.8048 36.1919 23.3183 34.9673 23.3183Z" fill="#219653"/>
<defs>
<filter id="filter0_d_23_4183" x="-0.000173892" y="0.000404947" width="55.9994" height="55.9994" filterUnits="userSpaceOnUse" color-interpolation-filters="sRGB">
<feFlood flood-opacity="0" result="BackgroundImageFix"/>
<feColorMatrix in="SourceAlpha" type="matrix" values="0 0 0 0 0 0 0 0 0 0 0 0 0 0 0 0 0 0 127 0" result="hardAlpha"/>
<feOffset dy="5.14706"/>
<feGaussianBlur stdDeviation="5.14706"/>
<feComposite in2="hardAlpha" operator="out"/>
<feColorMatrix type="matrix" values="0 0 0 0 0 0 0 0 0 0 0 0 0 0 0 0 0 0 0.1 0"/>
<feBlend mode="normal" in2="BackgroundImageFix" result="effect1_dropShadow_23_4183"/>
<feBlend mode="normal" in="SourceGraphic" in2="effect1_dropShadow_23_4183" result="shape"/>
</filter>
</defs>
</svg>
