<svg width="29" height="26" viewBox="0 0 29 26" fill="none" xmlns="http://www.w3.org/2000/svg">
<path d="M3.75778 14.3022L13.651 23.5958C13.9918 23.916 14.1622 24.076 14.3631 24.1155C14.4536 24.1332 14.5466 24.1332 14.6371 24.1155C14.838 24.076 15.0084 23.916 15.3492 23.5958L15.3492 23.5958L25.2424 14.3022C28.026 11.6873 28.364 7.38435 26.0229 4.36694L25.5827 3.79957C22.7821 0.189875 17.1605 0.795247 15.1926 4.91845C14.9146 5.50087 14.0856 5.50087 13.8076 4.91845C11.8397 0.795248 6.21812 0.189871 3.4175 3.79956L2.9773 4.36693C0.636201 7.38435 0.974228 11.6873 3.75778 14.3022Z" fill="#EB455B" stroke="#EB455B" stroke-width="2.8"/>
</svg>
