<svg width="38" height="38" viewBox="0 0 38 38" fill="none" xmlns="http://www.w3.org/2000/svg">
<rect x="0.410583" y="0.410583" width="37.1786" height="37.1773" rx="13.5492" stroke="#C4C4C4" stroke-width="0.821166"/>
<path d="M26.0724 18.9984C26.0724 19.3111 25.9524 19.6134 25.7283 19.8323C25.5093 20.0564 25.2069 20.1815 24.8941 20.1815H20.1808H17.819H13.1058C12.793 20.1815 12.4906 20.0564 12.2716 19.8323C12.0526 19.6134 11.9275 19.3111 11.9275 18.9984C11.9275 18.6857 12.0526 18.3886 12.2716 18.1645C12.4906 17.9456 12.793 17.8205 13.1058 17.8205H17.819H20.1808H24.8941C25.2069 17.8205 25.5093 17.9456 25.7283 18.1645C25.9524 18.3886 26.0724 18.6857 26.0724 18.9984Z" fill="#C4C4C4"/>
</svg>
