<svg width="28" height="28" viewBox="0 0 28 28" fill="none" xmlns="http://www.w3.org/2000/svg">
<path d="M5.83301 9.33337L5.83301 2.33337" stroke="#EB5757" stroke-width="2" stroke-linecap="round" stroke-linejoin="round"/>
<path fill-rule="evenodd" clip-rule="evenodd" d="M3.69601 10.6309C3.64765 10.8592 3.60787 11.0908 3.577 11.3253C3.5 11.9101 3.5 12.6067 3.5 14C3.5 15.3933 3.5 16.0899 3.577 16.6747C4.10869 20.7133 7.28666 23.8913 11.3253 24.423C11.9101 24.5 12.6067 24.5 14 24.5H19.25C21.3567 24.5 22.41 24.5 23.1667 23.9944C23.4943 23.7755 23.7755 23.4943 23.9944 23.1667C24.5 22.41 24.5 21.3567 24.5 19.25V14C24.5 12.6067 24.5 11.9101 24.423 11.3253C23.8913 7.28666 20.7133 4.10869 16.6747 3.577C16.0899 3.5 15.3933 3.5 14 3.5C12.6067 3.5 11.9101 3.5 11.3253 3.577C11.0908 3.60787 10.8592 3.64765 10.6309 3.69601C11.3518 4.13463 11.8333 4.92775 11.8333 5.83333C11.8333 7.21405 10.714 8.33333 9.33333 8.33333H8.33333V9.33333C8.33333 10.714 7.21405 11.8333 5.83333 11.8333C4.92775 11.8333 4.13463 11.3518 3.69601 10.6309ZM10.5 11.8333C9.94772 11.8333 9.5 12.281 9.5 12.8333C9.5 13.3856 9.94772 13.8333 10.5 13.8333H17.5C18.0523 13.8333 18.5 13.3856 18.5 12.8333C18.5 12.281 18.0523 11.8333 17.5 11.8333H10.5ZM14 16.5C13.4477 16.5 13 16.9477 13 17.5C13 18.0523 13.4477 18.5 14 18.5H17.5C18.0523 18.5 18.5 18.0523 18.5 17.5C18.5 16.9477 18.0523 16.5 17.5 16.5H14Z" fill="#EB5757"/>
<path d="M2.33301 5.83337L9.33301 5.83337" stroke="#EB5757" stroke-width="2" stroke-linecap="round" stroke-linejoin="round"/>
</svg>
