<svg width="21" height="20" viewBox="0 0 21 20" fill="none" xmlns="http://www.w3.org/2000/svg">
<path fill-rule="evenodd" clip-rule="evenodd" d="M5.65081 5.64432C5.69353 5.46108 5.79699 5.29768 5.94437 5.18071C6.09175 5.06374 6.27438 5.00009 6.46254 5.00011H13.5397C13.7278 5.00009 13.9105 5.06374 14.0578 5.18071C14.2052 5.29768 14.3087 5.46108 14.3514 5.64432L14.7848 7.50028H5.21745L5.65081 5.64432ZM1.66721 9.16706H2.5006C1.97723 9.86377 1.66721 10.7288 1.66721 11.6672V12.5006C1.66721 13.589 2.36309 14.5158 3.33399 14.8591V16.6676C3.33399 16.8886 3.42179 17.1006 3.57809 17.2569C3.73438 17.4132 3.94635 17.501 4.16738 17.501H5.00077C5.2218 17.501 5.43377 17.4132 5.59007 17.2569C5.74636 17.1006 5.83416 16.8886 5.83416 16.6676V15.0008H14.1681V16.6676C14.1681 16.8886 14.2559 17.1006 14.4121 17.2569C14.5684 17.4132 14.7804 17.501 15.0014 17.501H15.8348C16.0559 17.501 16.2678 17.4132 16.4241 17.2569C16.5804 17.1006 16.6682 16.8886 16.6682 16.6676V14.8591C17.1558 14.6866 17.5779 14.3671 17.8764 13.9448C18.1749 13.5224 18.3352 13.0178 18.335 12.5006V11.6672C18.3363 10.7654 18.0438 9.88772 17.5016 9.16706H18.335C18.556 9.16706 18.768 9.07926 18.9243 8.92297C19.0806 8.76667 19.1684 8.5547 19.1684 8.33367C19.1684 8.11264 19.0806 7.90067 18.9243 7.74438C18.768 7.58808 18.556 7.50028 18.335 7.50028H17.5016C17.2945 7.50036 17.0948 7.57756 16.9415 7.71684C16.7882 7.85612 16.6923 8.0475 16.6724 8.25367L16.6466 8.14449L15.9748 5.26513C15.8465 4.71555 15.5361 4.22554 15.094 3.87481C14.6518 3.52407 14.104 3.33323 13.5397 3.33333H6.46254C5.89818 3.33323 5.35039 3.52407 4.90826 3.87481C4.46613 4.22554 4.15567 4.71555 4.02737 5.26513L3.35566 8.14449L3.33066 8.25367C3.31076 8.04736 3.2147 7.85586 3.06122 7.71656C2.90775 7.57726 2.70787 7.50015 2.5006 7.50028H1.66721C1.44618 7.50028 1.23421 7.58808 1.07792 7.74438C0.921626 7.90067 0.833823 8.11264 0.833823 8.33367C0.833823 8.5547 0.921626 8.76667 1.07792 8.92297C1.23421 9.07926 1.44618 9.16706 1.66721 9.16706ZM5.83416 9.16706C5.17107 9.16706 4.53515 9.43047 4.06627 9.89934C3.5974 10.3682 3.33399 11.0041 3.33399 11.6672V12.5006C3.33399 12.7216 3.42179 12.9336 3.57809 13.0899C3.73438 13.2462 3.94635 13.334 4.16738 13.334H15.8348C16.0559 13.334 16.2678 13.2462 16.4241 13.0899C16.5804 12.9336 16.6682 12.7216 16.6682 12.5006V11.6672C16.6682 11.0041 16.4048 10.3682 15.9359 9.89934C15.4671 9.43047 14.8311 9.16706 14.1681 9.16706H5.83416ZM5.00077 11.2505C5.00077 10.919 5.13247 10.601 5.36691 10.3666C5.60135 10.1322 5.91931 10.0004 6.25085 10.0004C6.5824 10.0004 6.90036 10.1322 7.1348 10.3666C7.36923 10.601 7.50094 10.919 7.50094 11.2505C7.50094 11.5821 7.36923 11.9 7.1348 12.1345C6.90036 12.3689 6.5824 12.5006 6.25085 12.5006C5.91931 12.5006 5.60135 12.3689 5.36691 12.1345C5.13247 11.9 5.00077 11.5821 5.00077 11.2505ZM13.7514 10.0004C13.4198 10.0004 13.1019 10.1322 12.8674 10.3666C12.633 10.601 12.5013 10.919 12.5013 11.2505C12.5013 11.5821 12.633 11.9 12.8674 12.1345C13.1019 12.3689 13.4198 12.5006 13.7514 12.5006C14.0829 12.5006 14.4009 12.3689 14.6353 12.1345C14.8697 11.9 15.0014 11.5821 15.0014 11.2505C15.0014 10.919 14.8697 10.601 14.6353 10.3666C14.4009 10.1322 14.0829 10.0004 13.7514 10.0004Z" fill="#202020"/>
<path d="M3.38422 13.1155L5.07641 10.1541L5.9225 8.46195V6.34672C6.20453 6.06468 6.8532 5.50062 7.19164 5.50062C7.61468 5.50062 8.88382 5.07758 9.30687 5.07758C9.72991 5.07758 11.4221 4.65453 12.2682 4.65453H15.2295C15.6526 4.65453 17.3447 5.07758 17.3447 5.50062C17.3447 5.92367 17.7678 6.76976 17.7678 7.19281C17.7678 7.61585 18.6139 9.30804 18.6139 9.73108C18.6139 10.1541 19.46 11.0002 19.46 11.4233C19.46 11.8463 20.3061 13.5385 20.7291 13.9615C21.1522 14.3846 20.3061 15.6537 19.883 16.0768C19.5446 16.4152 18.0498 16.4998 17.3447 16.4998H13.1143H8.46078H4.65336L3.38422 15.2307V13.1155Z" fill="#202020"/>
</svg>
