<svg width="30" height="30" viewBox="0 0 30 30" fill="none" xmlns="http://www.w3.org/2000/svg">
<path fill-rule="evenodd" clip-rule="evenodd" d="M15 17.5C16.3807 17.5 17.5 18.6193 17.5 20C17.5 21.3807 16.3807 22.5 15 22.5C13.6193 22.5 12.5 21.3807 12.5 20C12.5 18.6193 13.6193 17.5 15 17.5Z" stroke="#4F4F4F" stroke-width="1.875" stroke-linecap="round" stroke-linejoin="round"/>
<path d="M8.40595 14.2616C7.99848 14.581 7.92713 15.1703 8.24659 15.5778C8.56604 15.9853 9.15533 16.0566 9.5628 15.7372L8.40595 14.2616ZM20.4372 15.7372C20.8447 16.0566 21.434 15.9853 21.7534 15.5778C22.0729 15.1703 22.0015 14.581 21.594 14.2616L20.4372 15.7372ZM5.6743 11.1348C5.26566 11.4528 5.19213 12.0418 5.51008 12.4505C5.82803 12.8591 6.41706 12.9326 6.8257 12.6147L5.6743 11.1348ZM23.201 12.6347C23.6207 12.9379 24.2067 12.8435 24.5099 12.4237C24.8131 12.004 24.7187 11.418 24.299 11.1148L23.201 12.6347ZM9.5628 15.7372C12.7555 13.2341 17.2445 13.2341 20.4372 15.7372L21.594 14.2616C17.7221 11.226 12.2779 11.226 8.40595 14.2616L9.5628 15.7372ZM6.8257 12.6147C10.2846 9.92342 13.6118 9.41051 16.4367 9.80556C19.2959 10.2054 21.6933 11.5455 23.201 12.6347L24.299 11.1148C22.6454 9.92026 19.9622 8.40535 16.6964 7.94863C13.3963 7.48712 9.55413 8.11609 5.6743 11.1348L6.8257 12.6147Z" fill="#4F4F4F"/>
</svg>
