<svg width="25" height="25" viewBox="0 0 25 25" fill="none" xmlns="http://www.w3.org/2000/svg">
<path fill-rule="evenodd" clip-rule="evenodd" d="M5.20808 5.20858C5.20808 4.93232 5.31782 4.66736 5.51317 4.47201C5.70852 4.27666 5.97347 4.16692 6.24974 4.16692H18.7497C19.026 4.16692 19.2909 4.27666 19.4863 4.47201C19.6816 4.66736 19.7914 4.93232 19.7914 5.20858V11.4586C20.6202 11.4586 21.415 11.7878 22.0011 12.3739C22.5871 12.9599 22.9164 13.7548 22.9164 14.5836V18.7502C22.9164 19.579 22.5871 20.3739 22.0011 20.9599C21.415 21.546 20.6202 21.8752 19.7914 21.8752H5.20808C4.37928 21.8752 3.58442 21.546 2.99837 20.9599C2.41232 20.3739 2.08308 19.579 2.08308 18.7502V14.5836C2.08308 13.7548 2.41232 12.9599 2.99837 12.3739C3.58442 11.7878 4.37928 11.4586 5.20808 11.4586V5.20858ZM5.20808 13.5419C4.93181 13.5419 4.66686 13.6516 4.47151 13.847C4.27616 14.0423 4.16641 14.3073 4.16641 14.5836V18.7502C4.16641 19.0265 4.27616 19.2914 4.47151 19.4868C4.66686 19.6821 4.93181 19.7919 5.20808 19.7919H19.7914C20.0677 19.7919 20.3326 19.6821 20.528 19.4868C20.7233 19.2914 20.833 19.0265 20.833 18.7502V14.5836C20.833 14.3073 20.7233 14.0423 20.528 13.847C20.3326 13.6516 20.0677 13.5419 19.7914 13.5419V15.6252C19.7914 15.9015 19.6816 16.1664 19.4863 16.3618C19.2909 16.5571 19.026 16.6669 18.7497 16.6669H6.24974C5.97347 16.6669 5.70852 16.5571 5.51317 16.3618C5.31782 16.1664 5.20808 15.9015 5.20808 15.6252V13.5419ZM7.29141 6.25025V14.5836H17.7081V6.25025H7.29141Z" fill="#56F2D6"/>
<path d="M3.67761 13.97C3.67761 13.0877 4.90304 13.1122 5.51575 13.2348C5.6383 13.4799 5.95691 14.1905 6.25102 15.0724C6.25102 15.6605 6.4961 15.8076 6.61865 15.8076H7.72153C8.08916 15.9302 8.89794 16.1753 9.19204 16.1753H12.1331H15.0741C15.9564 16.1753 17.1573 15.9302 17.6475 15.8076C18.1377 15.44 19.118 14.6313 19.118 14.3372V12.8667C19.4856 12.7442 20.2944 12.5726 20.5885 12.8667L20.5885 12.8667C20.9562 13.2344 21.3238 13.602 21.6914 14.3372C22.059 15.0725 21.6914 15.4401 21.6914 16.543V18.3812V20.2193C21.6914 20.8075 20.9562 20.7095 20.5885 20.5869C19.9758 20.7095 18.4563 20.9546 17.2799 20.9546H13.236H9.19204H6.25102C5.51576 20.9546 4.41286 20.5869 3.67761 20.2193C2.94235 19.8517 3.67761 18.0135 3.67761 17.2783V13.97Z" fill="#56F2D6"/>
<rect x="8.82294" y="5.88204" width="2.20577" height="9.55834" fill="#56F2D6"/>
<rect x="13.9693" y="5.88204" width="2.20577" height="9.55834" fill="#56F2D6"/>
</svg>
