<svg width="38" height="38" viewBox="0 0 38 38" fill="none" xmlns="http://www.w3.org/2000/svg">
<path fill-rule="evenodd" clip-rule="evenodd" d="M10.7351 10.7238C10.8162 10.3757 11.0128 10.0652 11.2928 9.84299C11.5728 9.62077 11.9198 9.49983 12.2772 9.49987H25.7231C26.0805 9.49983 26.4275 9.62077 26.7075 9.84299C26.9875 10.0652 27.1841 10.3757 27.2652 10.7238L28.0886 14.2499H9.91172L10.7351 10.7238V10.7238ZM3.16664 17.4166H4.74999C3.75565 18.7403 3.16664 20.3838 3.16664 22.1667V23.75C3.16664 25.8179 4.48874 27.5786 6.33335 28.2309V31.6668C6.33335 32.0867 6.50016 32.4895 6.7971 32.7864C7.09404 33.0833 7.49677 33.2501 7.9167 33.2501H9.50005C9.91998 33.2501 10.3227 33.0833 10.6196 32.7864C10.9166 32.4895 11.0834 32.0867 11.0834 31.6668V28.5001H26.9169V31.6668C26.9169 32.0867 27.0837 32.4895 27.3807 32.7864C27.6776 33.0833 28.0803 33.2501 28.5003 33.2501H30.0836C30.5035 33.2501 30.9063 33.0833 31.2032 32.7864C31.5002 32.4895 31.667 32.0867 31.667 31.6668V28.2309C32.5933 27.9031 33.3953 27.2962 33.9624 26.4937C34.5296 25.6913 34.834 24.7327 34.8337 23.75V22.1667C34.8362 20.4533 34.2804 18.7858 33.2503 17.4166H34.8337C35.2536 17.4166 35.6563 17.2498 35.9533 16.9529C36.2502 16.6559 36.417 16.2532 36.417 15.8333C36.417 15.4133 36.2502 15.0106 35.9533 14.7137C35.6563 14.4167 35.2536 14.2499 34.8337 14.2499H33.2503C32.8568 14.2501 32.4775 14.3968 32.1862 14.6614C31.8949 14.926 31.7127 15.2896 31.6749 15.6813L31.6258 15.4739L30.3496 10.0034C30.1059 8.95923 29.516 8.02827 28.676 7.36191C27.836 6.69554 26.7953 6.33297 25.7231 6.33317H12.2772C11.205 6.33297 10.1643 6.69554 9.32429 7.36191C8.48429 8.02827 7.89444 8.95923 7.65069 10.0034L6.37451 15.4739L6.32701 15.6813C6.28921 15.2893 6.1067 14.9255 5.81511 14.6608C5.52352 14.3962 5.14378 14.2497 4.74999 14.2499H3.16664C2.74671 14.2499 2.34398 14.4167 2.04704 14.7137C1.75011 15.0106 1.58329 15.4133 1.58329 15.8333C1.58329 16.2532 1.75011 16.6559 2.04704 16.9529C2.34398 17.2498 2.74671 17.4166 3.16664 17.4166V17.4166ZM11.0834 17.4166C9.82361 17.4166 8.61541 17.9171 7.7246 18.8079C6.8338 19.6987 6.33335 20.9069 6.33335 22.1667V23.75C6.33335 24.17 6.50016 24.5727 6.7971 24.8696C7.09404 25.1666 7.49677 25.3334 7.9167 25.3334H30.0836C30.5035 25.3334 30.9063 25.1666 31.2032 24.8696C31.5002 24.5727 31.667 24.17 31.667 23.75V22.1667C31.667 20.9069 31.1665 19.6987 30.2757 18.8079C29.3849 17.9171 28.1767 17.4166 26.9169 17.4166H11.0834ZM9.50005 21.375C9.50005 20.7451 9.75027 20.141 10.1957 19.6956C10.6411 19.2502 11.2452 19 11.8751 19C12.505 19 13.1091 19.2502 13.5545 19.6956C13.9999 20.141 14.2501 20.7451 14.2501 21.375C14.2501 22.0049 13.9999 22.609 13.5545 23.0544C13.1091 23.4998 12.505 23.75 11.8751 23.75C11.2452 23.75 10.6411 23.4998 10.1957 23.0544C9.75027 22.609 9.50005 22.0049 9.50005 21.375ZM26.1252 19C25.4953 19 24.8912 19.2502 24.4458 19.6956C24.0004 20.141 23.7502 20.7451 23.7502 21.375C23.7502 22.0049 24.0004 22.609 24.4458 23.0544C24.8912 23.4998 25.4953 23.75 26.1252 23.75C26.7551 23.75 27.3592 23.4998 27.8046 23.0544C28.25 22.609 28.5003 22.0049 28.5003 21.375C28.5003 20.7451 28.25 20.141 27.8046 19.6956C27.3592 19.2502 26.7551 19 26.1252 19Z" fill="#1C1C1C"/>
<path d="M6.07984 23.56L9.11988 18.2399L10.6399 15.1999V11.3998C11.1466 10.8931 12.3119 9.8798 12.9199 9.8798C13.6799 9.8798 15.96 9.11979 16.72 9.11979C17.48 9.11979 20.52 8.35978 22.04 8.35978H27.3601C28.1201 8.35978 31.1601 9.11979 31.1601 9.8798C31.1601 10.6398 31.9201 12.1598 31.9201 12.9198C31.9201 13.6798 33.4401 16.7199 33.4401 17.4799C33.4401 18.2399 34.9602 19.7599 34.9602 20.5199C34.9602 21.2799 36.4802 24.32 37.2402 25.08C38.0002 25.84 36.4802 28.12 35.7202 28.88C35.1122 29.488 32.4268 29.64 31.1601 29.64H23.56H15.1999H8.35987L6.07984 27.36V23.56Z" fill="#1C1C1C"/>
</svg>
