<svg width="28" height="28" viewBox="0 0 28 28" fill="none" xmlns="http://www.w3.org/2000/svg">
<path fill-rule="evenodd" clip-rule="evenodd" d="M7.91033 7.90118C7.97012 7.64466 8.11496 7.41591 8.32128 7.25217C8.5276 7.08843 8.78326 6.99932 9.04666 6.99935H18.954C19.2174 6.99932 19.4731 7.08843 19.6794 7.25217C19.8857 7.41591 20.0305 7.64466 20.0903 7.90118L20.697 10.4993H7.30366L7.91033 7.90118V7.90118ZM2.33366 12.8327H3.50033C2.76766 13.808 2.33366 15.019 2.33366 16.3327V17.4993C2.33366 19.023 3.30783 20.3203 4.66699 20.801V23.3327C4.66699 23.6421 4.78991 23.9388 5.0087 24.1576C5.22749 24.3764 5.52424 24.4994 5.83366 24.4994H7.00033C7.30974 24.4994 7.60649 24.3764 7.82528 24.1576C8.04408 23.9388 8.16699 23.6421 8.16699 23.3327V20.9994H19.8337V23.3327C19.8337 23.6421 19.9566 23.9388 20.1754 24.1576C20.3942 24.3764 20.6909 24.4994 21.0003 24.4994H22.167C22.4764 24.4994 22.7732 24.3764 22.992 24.1576C23.2107 23.9388 23.3337 23.6421 23.3337 23.3327V20.801C24.0162 20.5595 24.6072 20.1123 25.025 19.521C25.4429 18.9297 25.6672 18.2234 25.667 17.4993V16.3327C25.6689 15.0702 25.2593 13.8415 24.5003 12.8327H25.667C25.9764 12.8327 26.2732 12.7098 26.492 12.491C26.7107 12.2722 26.8337 11.9754 26.8337 11.666C26.8337 11.3566 26.7107 11.0599 26.492 10.8411C26.2732 10.6223 25.9764 10.4993 25.667 10.4993H24.5003C24.2104 10.4995 23.9308 10.6075 23.7162 10.8025C23.5016 10.9975 23.3673 11.2654 23.3395 11.554L23.3033 11.4012L22.363 7.37035C22.1834 6.60099 21.7488 5.91503 21.1298 5.42403C20.5109 4.93302 19.744 4.66587 18.954 4.66602H9.04666C8.25661 4.66587 7.48976 4.93302 6.87082 5.42403C6.25188 5.91503 5.81726 6.60099 5.63766 7.37035L4.69733 11.4012L4.66233 11.554C4.63447 11.2652 4.49999 10.9971 4.28514 10.8021C4.07029 10.6071 3.79048 10.4992 3.50033 10.4993H2.33366C2.02424 10.4993 1.72749 10.6223 1.5087 10.8411C1.28991 11.0599 1.16699 11.3566 1.16699 11.666C1.16699 11.9754 1.28991 12.2722 1.5087 12.491C1.72749 12.7098 2.02424 12.8327 2.33366 12.8327V12.8327ZM8.16699 12.8327C7.23873 12.8327 6.3485 13.2014 5.69212 13.8578C5.03574 14.5142 4.66699 15.4044 4.66699 16.3327V17.4993C4.66699 17.8088 4.78991 18.1055 5.0087 18.3243C5.22749 18.5431 5.52424 18.666 5.83366 18.666H22.167C22.4764 18.666 22.7732 18.5431 22.992 18.3243C23.2107 18.1055 23.3337 17.8088 23.3337 17.4993V16.3327C23.3337 15.4044 22.9649 14.5142 22.3085 13.8578C21.6522 13.2014 20.7619 12.8327 19.8337 12.8327H8.16699ZM7.00033 15.7493C7.00033 15.2852 7.1847 14.8401 7.51289 14.5119C7.84108 14.1837 8.2862 13.9993 8.75033 13.9993C9.21445 13.9993 9.65957 14.1837 9.98776 14.5119C10.316 14.8401 10.5003 15.2852 10.5003 15.7493C10.5003 16.2135 10.316 16.6586 9.98776 16.9868C9.65957 17.315 9.21445 17.4993 8.75033 17.4993C8.2862 17.4993 7.84108 17.315 7.51289 16.9868C7.1847 16.6586 7.00033 16.2135 7.00033 15.7493ZM19.2503 13.9993C18.7862 13.9993 18.3411 14.1837 18.0129 14.5119C17.6847 14.8401 17.5003 15.2852 17.5003 15.7493C17.5003 16.2135 17.6847 16.6586 18.0129 16.9868C18.3411 17.315 18.7862 17.4993 19.2503 17.4993C19.7145 17.4993 20.1596 17.315 20.4878 16.9868C20.8159 16.6586 21.0003 16.2135 21.0003 15.7493C21.0003 15.2852 20.8159 14.8401 20.4878 14.5119C20.1596 14.1837 19.7145 13.9993 19.2503 13.9993Z" fill="#141414"/>
</svg>
