<svg width="28" height="28" viewBox="0 0 28 28" fill="none" xmlns="http://www.w3.org/2000/svg">
<path d="M7 11.4994C7 8.82814 7 7.49249 7.82986 6.66263C8.65973 5.83276 9.99537 5.83276 12.6667 5.83276H15.3333C18.0046 5.83276 19.3403 5.83276 20.1701 6.66263C21 7.49249 21 8.82814 21 11.4994V21.1661C21 23.8374 21 25.173 20.1701 26.0029C19.3403 26.8328 18.0046 26.8328 15.3333 26.8328H12.6667C9.99537 26.8328 8.65973 26.8328 7.82986 26.0029C7 25.173 7 23.8374 7 21.1661V11.4994Z" fill="#56CCF2"/>
<path d="M10.5 4.00008C10.5 2.66444 10.5 1.99661 10.9149 1.58168C11.3299 1.16675 11.9977 1.16675 13.3333 1.16675H14.6667C16.0023 1.16675 16.6701 1.16675 17.0851 1.58168C17.5 1.99661 17.5 2.66444 17.5 4.00008V4.66675H10.5V4.00008Z" fill="#56CCF2"/>
</svg>
