<svg width="34" height="34" viewBox="0 0 34 34" fill="none" xmlns="http://www.w3.org/2000/svg">
<path d="M8.5 12.7492C8.5 10.0779 8.5 8.74225 9.32986 7.91238C10.1597 7.08252 11.4954 7.08252 14.1667 7.08252H19.8333C22.5046 7.08252 23.8403 7.08252 24.6701 7.91238C25.5 8.74225 25.5 10.0779 25.5 12.7492V26.9159C25.5 29.5871 25.5 30.9228 24.6701 31.7527C23.8403 32.5825 22.5046 32.5825 19.8333 32.5825H14.1667C11.4954 32.5825 10.1597 32.5825 9.32986 31.7527C8.5 30.9228 8.5 29.5871 8.5 26.9159V12.7492Z" fill="#56CCF2"/>
<path d="M12.75 4.24984C12.75 2.91419 12.75 2.24637 13.1649 1.83144C13.5799 1.4165 14.2477 1.4165 15.5833 1.4165H18.4167C19.7523 1.4165 20.4201 1.4165 20.8351 1.83144C21.25 2.24637 21.25 2.91419 21.25 4.24984V5.6665H12.75V4.24984Z" fill="#56CCF2"/>
</svg>
