<svg width="24" height="24" viewBox="0 0 24 24" fill="none" xmlns="http://www.w3.org/2000/svg">
<path fill-rule="evenodd" clip-rule="evenodd" d="M4.00017 4.98134C4.00017 4.71709 4.10553 4.46367 4.29307 4.27682C4.48061 4.08997 4.73496 3.985 5.00018 3.985H11.1722C11.4374 3.98506 11.6917 4.09006 11.8792 4.27693L19.8793 12.2476C20.0667 12.4345 20.172 12.6879 20.172 12.9521C20.172 13.2163 20.0667 13.4696 19.8793 13.6565L13.7072 19.8059C13.5197 19.9927 13.2654 20.0976 13.0002 20.0976C12.7351 20.0976 12.4807 19.9927 12.2932 19.8059L4.29318 11.8352C4.10562 11.6484 4.00023 11.395 4.00017 11.1307V4.98134ZM5.00018 1.99232C4.20453 1.99232 3.44146 2.30723 2.87885 2.86778C2.31624 3.42833 2.00016 4.1886 2.00016 4.98134V11.1307C2.0006 11.9231 2.31676 12.6828 2.87917 13.243L10.8792 21.2137C11.4418 21.7741 12.2047 22.0889 13.0002 22.0889C13.7957 22.0889 14.5586 21.7741 15.1212 21.2137L21.2933 15.0663C21.5719 14.7887 21.7929 14.4592 21.9437 14.0965C22.0945 13.7338 22.1721 13.3451 22.1721 12.9526C22.1721 12.56 22.0945 12.1713 21.9437 11.8086C21.7929 11.4459 21.5719 11.1164 21.2933 10.8388L13.2932 2.8681C12.7307 2.30751 11.9678 1.99249 11.1722 1.99232H5.00018ZM8.00019 9.96304C8.53063 9.96304 9.03934 9.7531 9.41441 9.3794C9.78949 9.0057 10.0002 8.49885 10.0002 7.97036C10.0002 7.44187 9.78949 6.93502 9.41441 6.56132C9.03934 6.18762 8.53063 5.97768 8.00019 5.97768C7.46976 5.97768 6.96105 6.18762 6.58597 6.56132C6.2109 6.93502 6.00018 7.44187 6.00018 7.97036C6.00018 8.49885 6.2109 9.0057 6.58597 9.3794C6.96105 9.7531 7.46976 9.96304 8.00019 9.96304Z" fill="black"/>
</svg>
