<svg width="36" height="36" viewBox="0 0 36 36" fill="none" xmlns="http://www.w3.org/2000/svg">
<rect width="36" height="36" rx="9.47368" fill="#1A1A1A"/>
<path d="M17.125 27.1256L16.7637 26.2223C16.1372 24.6561 16.4013 22.874 17.455 21.5568V21.5568C17.9907 20.8872 19.0093 20.8872 19.545 21.5568V21.5568C20.5987 22.874 20.8628 24.6561 20.2363 26.2223L19.875 27.1256" stroke="#EBA945" stroke-width="2.75"/>
<path d="M21.9365 14.7502C21.9365 13.6618 23.3841 13.3733 23.7681 14.3917C24.6971 16.855 25.374 19.0587 25.374 20.2501C25.374 24.047 22.296 27.1251 18.499 27.1251C14.7021 27.1251 11.624 24.047 11.624 20.2501C11.624 18.9701 12.4053 16.5217 13.4412 13.8381C14.783 10.3618 15.4539 8.62371 16.2821 8.53009C16.5471 8.50013 16.8362 8.55399 17.0726 8.67736C17.8115 9.06293 17.8115 10.9587 17.8115 14.7502C17.8115 15.8892 18.7349 16.8127 19.874 16.8127C21.0131 16.8127 21.9365 15.8892 21.9365 14.7502Z" stroke="#EBA945" stroke-width="2.75"/>
<path d="M17 26.8756L16.25 25.3756V23.8756C16.25 23.5013 17 22.375 17 22C17 21.625 18.125 21.6256 18.5 21.2506C18.8 20.9506 19.375 21.3756 19.625 21.6256C19.875 21.8756 20.375 22.4506 20.375 22.7506C20.375 23.1256 20.375 23.1256 20.75 23.8756C21.125 24.6256 20.75 25.3756 20.75 26.1256C20.75 26.7256 19.75 26.8756 19.25 26.8756H17Z" fill="#EBA945"/>
</svg>
