<svg width="24" height="24" viewBox="0 0 24 24" fill="none" xmlns="http://www.w3.org/2000/svg">
<path fill-rule="evenodd" clip-rule="evenodd" d="M12 14C13.1046 14 14 14.8954 14 16C14 17.1046 13.1046 18 12 18C10.8954 18 10 17.1046 10 16C10 14.8954 10.8954 14 12 14Z" stroke="black" stroke-width="1.5" stroke-linecap="round" stroke-linejoin="round"/>
<path d="M6.72427 11.4095C6.3983 11.6651 6.34122 12.1365 6.59678 12.4625C6.85235 12.7885 7.32378 12.8455 7.64975 12.59L6.72427 11.4095ZM16.3493 12.59C16.6752 12.8455 17.1467 12.7885 17.4022 12.4625C17.6578 12.1365 17.6007 11.6651 17.2748 11.4095L16.3493 12.59ZM4.53944 8.90787C4.21252 9.16223 4.15371 9.63345 4.40807 9.96036C4.66243 10.2873 5.13364 10.3461 5.46056 10.0917L4.53944 8.90787ZM18.5608 10.1078C18.8966 10.3503 19.3654 10.2748 19.608 9.939C19.8505 9.60324 19.775 9.13441 19.4392 8.89185L18.5608 10.1078ZM7.64975 12.59C10.2039 10.5875 13.7951 10.5875 16.3493 12.59L17.2748 11.4095C14.1772 8.98101 9.82185 8.98101 6.72427 11.4095L7.64975 12.59ZM5.46056 10.0917C8.22769 7.93873 10.8895 7.52841 13.1494 7.84445C15.4367 8.16432 17.3546 9.2364 18.5608 10.1078L19.4392 8.89185C18.1164 7.93621 15.9698 6.72428 13.3571 6.3589C10.717 5.9897 7.64331 6.49287 4.53944 8.90787L5.46056 10.0917Z" fill="black"/>
</svg>
