<svg width="25" height="25" viewBox="0 0 25 25" fill="none" xmlns="http://www.w3.org/2000/svg">
<path fill-rule="evenodd" clip-rule="evenodd" d="M12.4992 21.8746C17.6768 21.8746 21.874 17.6773 21.874 12.4997C21.874 7.32213 17.6768 3.12487 12.4992 3.12487C7.32163 3.12487 3.12437 7.32213 3.12437 12.4997C3.12437 17.6773 7.32163 21.8746 12.4992 21.8746ZM13.5406 6.76981C13.5406 6.19453 13.0742 5.72817 12.4989 5.72817C11.9237 5.72817 11.4573 6.19453 11.4573 6.76981V12.2385C11.4573 12.9576 12.0402 13.5405 12.7594 13.5405H16.1447C16.72 13.5405 17.1864 13.0742 17.1864 12.4989C17.1864 11.9236 16.72 11.4572 16.1447 11.4572H13.5406V6.76981Z" fill="#F2F2F2"/>
</svg>
