<svg width="341" height="159" viewBox="0 0 341 159" fill="none" xmlns="http://www.w3.org/2000/svg">
<g filter="url(#filter0_d_23_4526)">
<path fill-rule="evenodd" clip-rule="evenodd" d="M10 21C10 12.7157 16.7157 6 25 6H316C324.284 6 331 12.7157 331 21V81.0145C330.835 81.0049 330.668 81 330.5 81C325.806 81 322 84.8056 322 89.5C322 94.1944 325.806 98 330.5 98C330.668 98 330.835 97.9951 331 97.9855V130C331 138.284 324.284 145 316 145H25C16.7157 145 10 138.284 10 130V97.9855C14.4617 97.7267 18 94.0266 18 89.5C18 84.9734 14.4617 81.2733 10 81.0145V21Z" fill="white"/>
</g>
<defs>
<filter id="filter0_d_23_4526" x="0" y="0" width="341" height="159" filterUnits="userSpaceOnUse" color-interpolation-filters="sRGB">
<feFlood flood-opacity="0" result="BackgroundImageFix"/>
<feColorMatrix in="SourceAlpha" type="matrix" values="0 0 0 0 0 0 0 0 0 0 0 0 0 0 0 0 0 0 127 0" result="hardAlpha"/>
<feOffset dy="4"/>
<feGaussianBlur stdDeviation="5"/>
<feComposite in2="hardAlpha" operator="out"/>
<feColorMatrix type="matrix" values="0 0 0 0 0 0 0 0 0 0 0 0 0 0 0 0 0 0 0.05 0"/>
<feBlend mode="normal" in2="BackgroundImageFix" result="effect1_dropShadow_23_4526"/>
<feBlend mode="normal" in="SourceGraphic" in2="effect1_dropShadow_23_4526" result="shape"/>
</filter>
</defs>
</svg>
