<svg width="35" height="35" viewBox="0 0 35 35" fill="none" xmlns="http://www.w3.org/2000/svg">
<rect width="35" height="35" rx="9.21053" fill="#1A1A1A"/>
<path fill-rule="evenodd" clip-rule="evenodd" d="M10.5157 10.5165C10.5157 10.2519 10.6208 9.99814 10.8079 9.81103C10.995 9.62392 11.2488 9.5188 11.5134 9.5188H23.4864C23.751 9.5188 24.0048 9.62392 24.1919 9.81103C24.379 9.99814 24.4841 10.2519 24.4841 10.5165V16.503C25.278 16.503 26.0393 16.8184 26.6006 17.3797C27.162 17.941 27.4773 18.7024 27.4773 19.4962V23.4872C27.4773 24.2811 27.162 25.0424 26.6006 25.6037C26.0393 26.1651 25.278 26.4804 24.4841 26.4804H10.5157C9.72184 26.4804 8.9605 26.1651 8.39916 25.6037C7.83782 25.0424 7.52246 24.2811 7.52246 23.4872V19.4962C7.52246 18.7024 7.83782 17.941 8.39916 17.3797C8.9605 16.8184 9.72184 16.503 10.5157 16.503V10.5165ZM10.5157 18.4985C10.2511 18.4985 9.99729 18.6036 9.81018 18.7907C9.62307 18.9778 9.51795 19.2316 9.51795 19.4962V23.4872C9.51795 23.7518 9.62307 24.0056 9.81018 24.1927C9.99729 24.3798 10.2511 24.4849 10.5157 24.4849H24.4841C24.7487 24.4849 25.0025 24.3798 25.1896 24.1927C25.3767 24.0056 25.4818 23.7518 25.4818 23.4872V19.4962C25.4818 19.2316 25.3767 18.9778 25.1896 18.7907C25.0025 18.6036 24.7487 18.4985 24.4841 18.4985V20.494C24.4841 20.7586 24.379 21.0124 24.1919 21.1995C24.0048 21.3866 23.751 21.4917 23.4864 21.4917H11.5134C11.2488 21.4917 10.995 21.3866 10.8079 21.1995C10.6208 21.0124 10.5157 20.7586 10.5157 20.494V18.4985ZM12.5112 11.5143V19.4962H22.4886V11.5143H12.5112Z" fill="#56F2D6"/>
<path d="M9.04933 18.9081C9.04933 18.063 10.2231 18.0865 10.81 18.2039C10.9273 18.4386 11.2325 19.1193 11.5142 19.964C11.5142 20.5273 11.749 20.6682 11.8664 20.6683H12.9227C13.2749 20.7856 14.0496 21.0204 14.3313 21.0204H17.1483H19.9653C20.8104 21.0204 21.9607 20.7856 22.4302 20.6683C22.8997 20.3161 23.8387 19.5415 23.8387 19.2599V17.8513C24.1908 17.734 24.9655 17.5696 25.2472 17.8513C25.5993 18.2035 25.9515 18.5556 26.3036 19.2599C26.6557 19.9641 26.3036 20.3162 26.3036 21.3726V23.1333V24.8939C26.3036 25.4573 25.5993 25.3634 25.2472 25.246C24.6603 25.3634 23.2049 25.5981 22.0781 25.5981H18.2047H14.3313H11.5142C10.81 25.5981 9.75359 25.246 9.04933 24.8939C8.34508 24.5418 9.04933 22.7811 9.04933 22.0769V18.9081Z" fill="#56F2D6"/>
<rect x="13.9775" y="11.1614" width="2.11277" height="9.15532" fill="#56F2D6"/>
<rect x="18.9072" y="11.1614" width="2.11277" height="9.15532" fill="#56F2D6"/>
</svg>
