<svg width="34" height="34" viewBox="0 0 34 34" fill="none" xmlns="http://www.w3.org/2000/svg">
<rect width="34" height="34" rx="10.4082" fill="#212121"/>
<path d="M10.7549 14.3968C10.7549 12.5433 10.7549 11.6165 11.3307 11.0407C11.9065 10.4648 12.8333 10.4648 14.6869 10.4648H18.6188C20.4724 10.4648 21.3992 10.4648 21.975 11.0407C22.5508 11.6165 22.5508 12.5433 22.5508 14.3968V24.2267C22.5508 26.0803 22.5508 27.0071 21.975 27.5829C21.3992 28.1587 20.4724 28.1587 18.6188 28.1587H14.6869C12.8333 28.1587 11.9065 28.1587 11.3307 27.5829C10.7549 27.0071 10.7549 26.0803 10.7549 24.2267V14.3968Z" fill="#56CCF2"/>
<path d="M13.7041 8.49968C13.7041 7.5729 13.7041 7.10952 13.992 6.8216C14.2799 6.53369 14.7433 6.53369 15.6701 6.53369H17.6361C18.5628 6.53369 19.0262 6.53369 19.3141 6.8216C19.6021 7.10952 19.6021 7.5729 19.6021 8.49968V9.48267H13.7041V8.49968Z" fill="#56CCF2"/>
</svg>
