<svg width="23" height="28" viewBox="0 0 23 28" fill="none" xmlns="http://www.w3.org/2000/svg">
<path fill-rule="evenodd" clip-rule="evenodd" d="M1.63038 16.9203C1.43972 16.8692 1.27717 16.7445 1.17848 16.5736C1.0798 16.4026 1.05305 16.1995 1.10414 16.0088L1.29966 15.2791C1.47669 14.6182 1.78216 13.9987 2.19861 13.4559C2.61507 12.913 3.13437 12.4576 3.72684 12.1154L6.26151 10.6526L5.63818 4.95635C5.591 4.52555 5.67021 4.09034 5.86613 3.70378C6.06206 3.31723 6.36623 2.99605 6.74156 2.77942L8.17899 1.94947C8.27848 1.892 8.38992 1.85834 8.50459 1.85114C8.61926 1.84394 8.73404 1.86338 8.83993 1.90795C8.94583 1.95252 9.03997 2.02101 9.11498 2.10804C9.18998 2.19508 9.24382 2.2983 9.27227 2.40962L10.7386 8.13988L13.1036 6.97673L13.3075 5.28693C13.3526 4.91253 13.5144 4.56182 13.7699 4.28448C14.0255 4.00714 14.3618 3.81723 14.7312 3.74166C15.1006 3.66609 15.4845 3.70869 15.8284 3.86342C16.1723 4.01815 16.4587 4.27717 16.6472 4.60379L19.2784 9.16138C19.467 9.48793 19.5481 9.86554 19.5101 10.2407C19.4722 10.6159 19.3171 10.9697 19.067 11.2519C18.8168 11.534 18.4842 11.7303 18.1163 11.813C17.7483 11.8956 17.3637 11.8603 17.017 11.7122L15.4517 11.0439L13.2619 12.5106L17.491 16.6457C17.5733 16.726 17.6359 16.8243 17.6738 16.9329C17.7118 17.0414 17.724 17.1573 17.7097 17.2714C17.6953 17.3855 17.6547 17.4947 17.591 17.5905C17.5273 17.6863 17.4423 17.766 17.3427 17.8234L15.9056 18.6519C15.5304 18.8686 15.1001 18.9715 14.6674 18.9479C14.2347 18.9243 13.8182 18.7753 13.4688 18.519L8.84834 15.1312L6.31296 16.5939C5.72049 16.9363 5.06639 17.1586 4.38802 17.2481C3.70964 17.3376 3.02028 17.2926 2.35931 17.1156L1.63038 16.9203ZM2.7345 15.6751L2.74528 15.678C3.69838 15.9334 4.71388 15.7997 5.56848 15.3065L8.52445 13.5997C8.64957 13.5275 8.79302 13.4932 8.93731 13.501C9.08159 13.5089 9.22047 13.5586 9.33697 13.6441L14.3488 17.3194C14.4653 17.4048 14.6042 17.4545 14.7485 17.4624C14.8928 17.4703 15.0362 17.436 15.1613 17.3637L15.7492 17.0243L11.5665 12.9347C11.4874 12.8573 11.4266 12.7632 11.3884 12.6594C11.3502 12.5555 11.3357 12.4444 11.3459 12.3342C11.3561 12.224 11.3907 12.1175 11.4473 12.0223C11.5039 11.9272 11.5809 11.8459 11.6729 11.7843L14.9594 9.58289C15.0623 9.51394 15.1807 9.47173 15.3039 9.46009C15.4272 9.44845 15.5514 9.46775 15.6653 9.51623L17.6011 10.3431C17.6606 10.3688 17.7267 10.375 17.7899 10.3609C17.8532 10.3468 17.9104 10.3132 17.9534 10.2647C17.9965 10.2162 18.0231 10.1554 18.0296 10.091C18.0361 10.0265 18.0221 9.9616 17.9895 9.90554L15.3584 5.34795C15.3261 5.29175 15.2769 5.24717 15.2178 5.22054C15.1587 5.19391 15.0928 5.18659 15.0293 5.19962C14.9658 5.21265 14.908 5.24537 14.8642 5.29312C14.8204 5.34087 14.7927 5.40122 14.7852 5.46559L14.5334 7.55555C14.5185 7.6786 14.4731 7.79599 14.4014 7.89706C14.3296 7.99813 14.2338 8.07967 14.1225 8.1343L10.5729 9.87997C10.4735 9.92877 10.3645 9.9548 10.2539 9.95617C10.1432 9.95753 10.0336 9.93419 9.9331 9.88784C9.83259 9.8415 9.74368 9.77332 9.67285 9.68827C9.60202 9.60321 9.55105 9.50343 9.52366 9.39619L8.07338 3.72957L7.48566 4.0683C7.3605 4.14052 7.25906 4.24762 7.19374 4.37652C7.12842 4.50542 7.10203 4.65054 7.1178 4.79419L7.79438 10.9732C7.81015 11.1168 7.78376 11.2619 7.71844 11.3908C7.65312 11.5197 7.55169 11.6268 7.42653 11.699L4.47075 13.405C3.61629 13.8985 2.99279 14.7112 2.73739 15.6644L2.7345 15.6751Z" fill="#292929"/>
<path d="M10.1743 27.2555L22.0825 18.3244" stroke="#292929" stroke-width="1.4879" stroke-linecap="round"/>
</svg>
