<svg width="24" height="24" viewBox="0 0 24 24" fill="none" xmlns="http://www.w3.org/2000/svg">
<path fill-rule="evenodd" clip-rule="evenodd" d="M5.00015 3C4.46972 3 3.96101 3.21071 3.58594 3.58579C3.21087 3.96086 3.00015 4.46957 3.00015 5V6.838L1.49015 11.368C1.40044 11.6375 1.36912 11.9229 1.39826 12.2054C1.4274 12.4879 1.51635 12.761 1.65919 13.0065C1.80202 13.2519 1.99547 13.4642 2.22668 13.6291C2.45789 13.794 2.72156 13.9079 3.00015 13.963V20C3.00015 20.5304 3.21087 21.0391 3.58594 21.4142C3.96101 21.7893 4.46972 22 5.00015 22H19.0002C19.5306 22 20.0393 21.7893 20.4144 21.4142C20.7894 21.0391 21.0002 20.5304 21.0002 20V13.963C21.2787 13.9079 21.5424 13.794 21.7736 13.6291C22.0048 13.4642 22.1983 13.2519 22.3411 13.0065C22.484 12.761 22.5729 12.4879 22.602 12.2054C22.6312 11.9229 22.5999 11.6375 22.5102 11.368L21.0002 6.837V5C21.0002 4.46957 20.7894 3.96086 20.4144 3.58579C20.0393 3.21071 19.5306 3 19.0002 3H5.00015ZM15.0002 20H19.0002V14H5.00015V20H9.00015V17C9.00015 16.2044 9.31622 15.4413 9.87883 14.8787C10.4414 14.3161 11.2045 14 12.0002 14C12.7958 14 13.5589 14.3161 14.1215 14.8787C14.6841 15.4413 15.0002 16.2044 15.0002 17V20ZM11.0002 20H13.0002V17C13.0002 16.7348 12.8948 16.4804 12.7073 16.2929C12.5197 16.1054 12.2654 16 12.0002 16C11.7349 16 11.4806 16.1054 11.293 16.2929C11.1055 16.4804 11.0002 16.7348 11.0002 17V20ZM3.38715 12L4.72115 8H6.32015L5.65315 12H3.38715ZM7.68015 12L8.34715 8H11.0002V12H7.68015ZM13.0002 12V8H15.6532L16.3202 12H13.0002ZM18.3472 12L17.6802 8H19.2802L20.6132 12H18.3472ZM19.0002 5V6H5.00015V5H19.0002Z" fill="black"/>
</svg>
