<svg width="25" height="28" viewBox="0 0 25 28" fill="none" xmlns="http://www.w3.org/2000/svg">
<path fill-rule="evenodd" clip-rule="evenodd" d="M12 2V7L12 7.05441C11.9999 7.47848 11.9998 7.8906 12.0455 8.23052C12.097 8.61372 12.2226 9.051 12.5858 9.41421C12.949 9.77743 13.3863 9.90295 13.7695 9.95447C14.1094 10.0002 14.5215 10.0001 14.9456 10H14.9456L15 10H20V16C20 18.8284 20 20.2426 19.1213 21.1213C18.2426 22 16.8284 22 14 22H10C7.17157 22 5.75736 22 4.87868 21.1213C4 20.2426 4 18.8284 4 16V8C4 5.17157 4 3.75736 4.87868 2.87868C5.75736 2 7.17157 2 10 2H12ZM14 2.00462V7C14 7.49967 14.0021 7.77383 14.0277 7.96402L14.0287 7.97131L14.036 7.97231C14.2262 7.99788 14.5003 8 15 8H19.9954C19.9852 7.58836 19.9525 7.31595 19.8478 7.06306C19.6955 6.69552 19.4065 6.40649 18.8284 5.82843L16.1716 3.17157C15.5935 2.59351 15.3045 2.30448 14.9369 2.15224C14.684 2.04749 14.4116 2.01481 14 2.00462Z" fill="#828282"/>
<path fill-rule="evenodd" clip-rule="evenodd" d="M18 26.25C20.8995 26.25 23.25 23.8995 23.25 21C23.25 18.1005 20.8995 15.75 18 15.75C15.1005 15.75 12.75 18.1005 12.75 21C12.75 23.8995 15.1005 26.25 18 26.25Z" fill="#828282"/>
<path d="M20.0417 21.5C20.3178 21.5 20.5417 21.2761 20.5417 21C20.5417 20.7239 20.3178 20.5 20.0417 20.5V21.5ZM18.5 17.7917C18.5 17.5155 18.2761 17.2917 18 17.2917C17.7239 17.2917 17.5 17.5155 17.5 17.7917H18.5ZM22.75 21C22.75 23.6234 20.6234 25.75 18 25.75V26.75C21.1756 26.75 23.75 24.1756 23.75 21H22.75ZM18 16.25C20.6234 16.25 22.75 18.3766 22.75 21H23.75C23.75 17.8244 21.1756 15.25 18 15.25V16.25ZM13.25 21C13.25 18.3766 15.3766 16.25 18 16.25V15.25C14.8244 15.25 12.25 17.8244 12.25 21H13.25ZM18 25.75C15.3766 25.75 13.25 23.6234 13.25 21H12.25C12.25 24.1756 14.8244 26.75 18 26.75V25.75ZM20.0417 20.5H18.1458V21.5H20.0417V20.5ZM18.5 20.8542V17.7917H17.5V20.8542H18.5ZM18.1458 20.5C18.3414 20.5 18.5 20.6586 18.5 20.8542H17.5C17.5 21.2109 17.7891 21.5 18.1458 21.5V20.5Z" fill="white"/>
</svg>
