<svg width="19" height="21" viewBox="0 0 19 21" fill="none" xmlns="http://www.w3.org/2000/svg">
<path d="M13.6526 2.78542C12.7407 1.08184 11.121 0.0410613 9.31978 0.00128664C9.24289 -0.00042888 9.1655 -0.00042888 9.08858 0.00128664C7.28741 0.0410613 5.66767 1.08184 4.75573 2.78542C3.8236 4.52674 3.79809 6.6184 4.6875 8.38066L8.41353 15.7633C8.41521 15.7666 8.41688 15.7699 8.41861 15.7731C8.58254 16.0816 8.87622 16.2657 9.20424 16.2657C9.53223 16.2657 9.82591 16.0815 9.98981 15.7731C9.99154 15.7699 9.99322 15.7666 9.99489 15.7633L13.7209 8.38066C14.6103 6.6184 14.5848 4.52674 13.6526 2.78542V2.78542ZM9.20418 7.37041C8.03906 7.37041 7.09117 6.3443 7.09117 5.08304C7.09117 3.82179 8.03906 2.79568 9.20418 2.79568C10.3693 2.79568 11.3172 3.82179 11.3172 5.08304C11.3172 6.3443 10.3693 7.37041 9.20418 7.37041Z" fill="#4442B7"/>
<ellipse cx="9.2884" cy="20.1925" rx="9.2884" ry="0.807687" fill="#4442B7"/>
</svg>
