<svg width="28" height="28" viewBox="0 0 28 28" fill="none" xmlns="http://www.w3.org/2000/svg">
<path d="M20.4977 11.9065C20.6307 12.3711 21.1151 12.6399 21.5797 12.5069C22.0443 12.3739 22.3131 11.8895 22.1801 11.4249L20.4977 11.9065ZM19.3556 8.22402L19.9857 7.61693L19.9851 7.61623L19.3556 8.22402ZM15.2968 5.98985L15.4736 5.1329L15.4719 5.13257L15.2968 5.98985ZM10.7223 6.45652L10.3776 5.65226L10.3767 5.65263L10.7223 6.45652ZM7.1686 9.46185L6.43324 8.98764L6.43323 8.98766L7.1686 9.46185ZM8.15327 19.774L8.78599 19.1696L8.78561 19.1692L8.15327 19.774ZM18.1504 20.7902L18.6486 21.5095L18.6488 21.5094L18.1504 20.7902ZM21.8799 17.4486C22.0589 16.9997 21.8401 16.4907 21.3912 16.3117C20.9423 16.1328 20.4333 16.3516 20.2543 16.8005L21.8799 17.4486ZM20.4922 11.4456C20.3707 11.9134 20.6513 12.391 21.119 12.5126C21.5867 12.6341 22.0644 12.3535 22.186 11.8858L20.4922 11.4456ZM23.0143 8.69848C23.1358 8.23077 22.8552 7.75308 22.3875 7.63152C21.9198 7.50997 21.4421 7.79059 21.3206 8.25831L23.0143 8.69848ZM21.1057 12.5094C21.5715 12.6381 22.0535 12.3648 22.1822 11.899C22.3109 11.4332 22.0376 10.9513 21.5718 10.8226L21.1057 12.5094ZM18.4813 9.96858C18.0156 9.83987 17.5336 10.1131 17.4049 10.5789C17.2762 11.0447 17.5494 11.5267 18.0152 11.6554L18.4813 9.96858ZM13.709 11.6661C13.709 11.1829 13.3172 10.7911 12.834 10.7911C12.3507 10.7911 11.959 11.1829 11.959 11.6661H13.709ZM12.834 15.1661H11.959C11.959 15.6494 12.3507 16.0411 12.834 16.0411V15.1661ZM16.334 16.0411C16.8172 16.0411 17.209 15.6494 17.209 15.1661C17.209 14.6829 16.8172 14.2911 16.334 14.2911V16.0411ZM22.1801 11.4249C21.7709 9.99528 21.0175 8.68781 19.9857 7.61693L18.7255 8.83111C19.5587 9.69597 20.1672 10.7519 20.4977 11.9065L22.1801 11.4249ZM19.9851 7.61623C18.7655 6.35319 17.1931 5.48766 15.4736 5.1329L15.12 6.84681C16.4944 7.13038 17.7513 7.82222 18.7261 8.83181L19.9851 7.61623ZM15.4719 5.13257C13.7605 4.78289 11.9831 4.96421 10.3776 5.65226L11.0669 7.26078C12.3448 6.71314 13.7595 6.56883 15.1216 6.84714L15.4719 5.13257ZM10.3767 5.65263C8.75994 6.34757 7.38699 7.50868 6.43324 8.98764L7.90396 9.93606C8.66914 8.7495 9.77065 7.81795 11.0678 7.26041L10.3767 5.65263ZM6.43323 8.98766C4.11728 12.5792 4.56714 17.2905 7.52093 20.3788L8.78561 19.1692C6.39139 16.6659 6.02676 12.8472 7.90397 9.93605L6.43323 8.98766ZM7.52054 20.3784C10.4466 23.4416 15.1661 23.9213 18.6486 21.5095L17.6523 20.0708C14.8776 21.9925 11.1173 21.6102 8.78599 19.1696L7.52054 20.3784ZM18.6488 21.5094C20.1015 20.5027 21.2253 19.0903 21.8799 17.4486L20.2543 16.8005C19.7271 18.1227 18.822 19.2602 17.652 20.071L18.6488 21.5094ZM22.186 11.8858L23.0143 8.69848L21.3206 8.25831L20.4922 11.4456L22.186 11.8858ZM21.5718 10.8226L18.4813 9.96858L18.0152 11.6554L21.1057 12.5094L21.5718 10.8226ZM11.959 11.6661V15.1661H13.709V11.6661H11.959ZM12.834 16.0411H16.334V14.2911H12.834V16.0411Z" fill="#4F4F4F"/>
</svg>
