<svg width="24" height="24" viewBox="0 0 24 24" fill="none" xmlns="http://www.w3.org/2000/svg">
<path fill-rule="evenodd" clip-rule="evenodd" d="M6.78038 6.77251C6.83163 6.55263 6.95578 6.35656 7.13263 6.21621C7.30947 6.07586 7.52861 5.99948 7.75438 5.99951H16.2464C16.4722 5.99948 16.6913 6.07586 16.8681 6.21621C17.045 6.35656 17.1691 6.55263 17.2204 6.77251L17.7404 8.99951H6.26038L6.78038 6.77251ZM2.00037 10.9995H3.00037C2.37237 11.8355 2.00037 12.8735 2.00037 13.9995V14.9995C2.00037 16.3055 2.83537 17.4175 4.00038 17.8295V19.9995C4.00038 20.2647 4.10573 20.5191 4.29327 20.7066C4.48081 20.8942 4.73516 20.9995 5.00038 20.9995H6.00038C6.2656 20.9995 6.51995 20.8942 6.70749 20.7066C6.89502 20.5191 7.00038 20.2647 7.00038 19.9995V17.9995H17.0004V19.9995C17.0004 20.2647 17.1058 20.5191 17.2933 20.7066C17.4808 20.8942 17.7352 20.9995 18.0004 20.9995H19.0004C19.2656 20.9995 19.52 20.8942 19.7075 20.7066C19.895 20.5191 20.0004 20.2647 20.0004 19.9995V17.8295C20.5855 17.6225 21.092 17.2392 21.4502 16.7324C21.8083 16.2255 22.0006 15.6201 22.0004 14.9995V13.9995C22.002 12.9174 21.6509 11.8642 21.0004 10.9995H22.0004C22.2656 10.9995 22.52 10.8942 22.7075 10.7066C22.895 10.5191 23.0004 10.2647 23.0004 9.99951C23.0004 9.7343 22.895 9.47994 22.7075 9.29241C22.52 9.10487 22.2656 8.99951 22.0004 8.99951H21.0004C20.7519 8.99961 20.5123 9.09224 20.3283 9.25937C20.1444 9.4265 20.0293 9.65613 20.0054 9.90351L19.9744 9.77251L19.1684 6.31751C19.0144 5.65806 18.6419 5.07009 18.1114 4.64923C17.5809 4.22837 16.9236 3.99938 16.2464 3.9995H7.75438C7.0772 3.99938 6.4199 4.22837 5.88937 4.64923C5.35885 5.07009 4.98632 5.65806 4.83238 6.31751L4.02638 9.77251L3.99638 9.90351C3.9725 9.65596 3.85723 9.42618 3.67307 9.25903C3.48891 9.09188 3.24908 8.99936 3.00037 8.99951H2.00037C1.73516 8.99951 1.4808 9.10487 1.29327 9.29241C1.10573 9.47994 1.00037 9.7343 1.00037 9.99951C1.00037 10.2647 1.10573 10.5191 1.29327 10.7066C1.4808 10.8942 1.73516 10.9995 2.00037 10.9995ZM7.00038 10.9995C6.20473 10.9995 5.44167 11.3156 4.87906 11.8782C4.31645 12.4408 4.00038 13.2039 4.00038 13.9995V14.9995C4.00038 15.2647 4.10573 15.5191 4.29327 15.7066C4.48081 15.8942 4.73516 15.9995 5.00038 15.9995H19.0004C19.2656 15.9995 19.52 15.8942 19.7075 15.7066C19.895 15.5191 20.0004 15.2647 20.0004 14.9995V13.9995C20.0004 13.2039 19.6843 12.4408 19.1217 11.8782C18.5591 11.3156 17.796 10.9995 17.0004 10.9995H7.00038ZM6.00038 13.4995C6.00038 13.1017 6.15841 12.7202 6.43972 12.4389C6.72102 12.1576 7.10256 11.9995 7.50038 11.9995C7.89821 11.9995 8.27974 12.1576 8.56104 12.4389C8.84235 12.7202 9.00038 13.1017 9.00038 13.4995C9.00038 13.8973 8.84235 14.2789 8.56104 14.5602C8.27974 14.8415 7.89821 14.9995 7.50038 14.9995C7.10256 14.9995 6.72102 14.8415 6.43972 14.5602C6.15841 14.2789 6.00038 13.8973 6.00038 13.4995ZM16.5004 11.9995C16.1026 11.9995 15.721 12.1576 15.4397 12.4389C15.1584 12.7202 15.0004 13.1017 15.0004 13.4995C15.0004 13.8973 15.1584 14.2789 15.4397 14.5602C15.721 14.8415 16.1026 14.9995 16.5004 14.9995C16.8982 14.9995 17.2797 14.8415 17.5611 14.5602C17.8424 14.2789 18.0004 13.8973 18.0004 13.4995C18.0004 13.1017 17.8424 12.7202 17.5611 12.4389C17.2797 12.1576 16.8982 11.9995 16.5004 11.9995Z" fill="#202020"/>
<path d="M3.42843 13.2868L5.14272 10.2868L5.99986 8.57248V6.42962C6.28558 6.1439 6.94272 5.57247 7.28558 5.57247C7.71415 5.57247 8.99987 5.1439 9.42844 5.1439C9.85701 5.1439 11.5713 4.71533 12.4284 4.71533H15.4284C15.857 4.71533 17.5713 5.1439 17.5713 5.57247C17.5713 6.00105 17.9999 6.85819 17.9999 7.28676C17.9999 7.71533 18.857 9.42962 18.857 9.85819C18.857 10.2868 19.7142 11.1439 19.7142 11.5725C19.7142 12.0011 20.5713 13.7153 20.9999 14.1439C21.4285 14.5725 20.5713 15.8582 20.1427 16.2868C19.7999 16.6296 18.2856 16.7153 17.5713 16.7153H13.2856H8.57129H4.71415L3.42843 15.4296V13.2868Z" fill="#202020"/>
</svg>
